<?xml version="1.0" encoding="UTF-8"?><svg xmlns="http://www.w3.org/2000/svg" xmlns:xlink="http://www.w3.org/1999/xlink" stroke-dasharray="none" shape-rendering="auto" font-family="'Dialog'" width="1130" text-rendering="auto" fill-opacity="1" contentScriptType="text/ecmascript" color-interpolation="auto" color-rendering="auto" preserveAspectRatio="xMidYMid meet" font-size="12" viewBox="0 0 1130 1035" fill="black" stroke="black" image-rendering="auto" stroke-miterlimit="10" zoomAndPan="magnify" version="1.0" stroke-linecap="square" stroke-linejoin="miter" contentStyleType="text/css" font-style="normal" height="1035" stroke-width="1" stroke-dashoffset="0" font-weight="normal" stroke-opacity="1">
    <!--Generated by the Batik Graphics2D SVG Generator-->
    <defs id="genericDefs"/>
    <g>
        <defs id="defs1">
            <linearGradient x1="110" x2="110" y1="60" gradientUnits="userSpaceOnUse" y2="140" xlink:type="simple" xlink:actuate="onLoad" id="linearGradient1" xlink:show="other" spreadMethod="pad">
                <stop stop-opacity="1" stop-color="white" offset="0%"/>
                <stop stop-opacity="1" stop-color="rgb(195,209,213)" offset="100%"/>
            </linearGradient>
            <linearGradient x1="110" x2="110" y1="640" gradientUnits="userSpaceOnUse" y2="700" xlink:type="simple" xlink:actuate="onLoad" id="linearGradient2" xlink:show="other" spreadMethod="pad">
                <stop stop-opacity="1" stop-color="white" offset="0%"/>
                <stop stop-opacity="1" stop-color="rgb(195,209,213)" offset="100%"/>
            </linearGradient>
            <linearGradient x1="70" x2="70" y1="10" gradientUnits="userSpaceOnUse" y2="1025" xlink:type="simple" xlink:actuate="onLoad" id="linearGradient3" xlink:show="other" spreadMethod="pad">
                <stop stop-opacity="1" stop-color="white" offset="0%"/>
                <stop stop-opacity="1" stop-color="rgb(195,209,213)" offset="100%"/>
            </linearGradient>
            <linearGradient x1="110" x2="110" y1="60" gradientUnits="userSpaceOnUse" y2="140" xlink:type="simple" xlink:actuate="onLoad" id="linearGradient4" xlink:show="other" spreadMethod="pad">
                <stop stop-opacity="1" stop-color="white" offset="0%"/>
                <stop stop-opacity="1" stop-color="rgb(195,209,213)" offset="100%"/>
            </linearGradient>
            <linearGradient x1="110" x2="110" y1="640" gradientUnits="userSpaceOnUse" y2="700" xlink:type="simple" xlink:actuate="onLoad" id="linearGradient5" xlink:show="other" spreadMethod="pad">
                <stop stop-opacity="1" stop-color="white" offset="0%"/>
                <stop stop-opacity="1" stop-color="rgb(195,209,213)" offset="100%"/>
            </linearGradient>
            <linearGradient x1="310" x2="310" y1="120" gradientUnits="userSpaceOnUse" y2="220" xlink:type="simple" xlink:actuate="onLoad" id="linearGradient6" xlink:show="other" spreadMethod="pad">
                <stop stop-opacity="1" stop-color="white" offset="0%"/>
                <stop stop-opacity="1" stop-color="rgb(195,209,213)" offset="100%"/>
            </linearGradient>
            <linearGradient x1="310" x2="310" y1="520" gradientUnits="userSpaceOnUse" y2="621" xlink:type="simple" xlink:actuate="onLoad" id="linearGradient7" xlink:show="other" spreadMethod="pad">
                <stop stop-opacity="1" stop-color="white" offset="0%"/>
                <stop stop-opacity="1" stop-color="rgb(195,209,213)" offset="100%"/>
            </linearGradient>
            <linearGradient x1="310" x2="310" y1="240" gradientUnits="userSpaceOnUse" y2="340" xlink:type="simple" xlink:actuate="onLoad" id="linearGradient8" xlink:show="other" spreadMethod="pad">
                <stop stop-opacity="1" stop-color="white" offset="0%"/>
                <stop stop-opacity="1" stop-color="rgb(195,209,213)" offset="100%"/>
            </linearGradient>
            <linearGradient x1="310" x2="310" y1="380" gradientUnits="userSpaceOnUse" y2="480" xlink:type="simple" xlink:actuate="onLoad" id="linearGradient9" xlink:show="other" spreadMethod="pad">
                <stop stop-opacity="1" stop-color="white" offset="0%"/>
                <stop stop-opacity="1" stop-color="rgb(195,209,213)" offset="100%"/>
            </linearGradient>
            <linearGradient x1="270" x2="270" y1="10" gradientUnits="userSpaceOnUse" y2="1025" xlink:type="simple" xlink:actuate="onLoad" id="linearGradient10" xlink:show="other" spreadMethod="pad">
                <stop stop-opacity="1" stop-color="white" offset="0%"/>
                <stop stop-opacity="1" stop-color="rgb(195,209,213)" offset="100%"/>
            </linearGradient>
            <linearGradient x1="310" x2="310" y1="120" gradientUnits="userSpaceOnUse" y2="220" xlink:type="simple" xlink:actuate="onLoad" id="linearGradient11" xlink:show="other" spreadMethod="pad">
                <stop stop-opacity="1" stop-color="white" offset="0%"/>
                <stop stop-opacity="1" stop-color="rgb(195,209,213)" offset="100%"/>
            </linearGradient>
            <linearGradient x1="310" x2="310" y1="520" gradientUnits="userSpaceOnUse" y2="621" xlink:type="simple" xlink:actuate="onLoad" id="linearGradient12" xlink:show="other" spreadMethod="pad">
                <stop stop-opacity="1" stop-color="white" offset="0%"/>
                <stop stop-opacity="1" stop-color="rgb(195,209,213)" offset="100%"/>
            </linearGradient>
            <linearGradient x1="310" x2="310" y1="240" gradientUnits="userSpaceOnUse" y2="340" xlink:type="simple" xlink:actuate="onLoad" id="linearGradient13" xlink:show="other" spreadMethod="pad">
                <stop stop-opacity="1" stop-color="white" offset="0%"/>
                <stop stop-opacity="1" stop-color="rgb(195,209,213)" offset="100%"/>
            </linearGradient>
            <linearGradient x1="310" x2="310" y1="380" gradientUnits="userSpaceOnUse" y2="480" xlink:type="simple" xlink:actuate="onLoad" id="linearGradient14" xlink:show="other" spreadMethod="pad">
                <stop stop-opacity="1" stop-color="white" offset="0%"/>
                <stop stop-opacity="1" stop-color="rgb(195,209,213)" offset="100%"/>
            </linearGradient>
            <linearGradient x1="570" x2="570" y1="260" gradientUnits="userSpaceOnUse" y2="341" xlink:type="simple" xlink:actuate="onLoad" id="linearGradient15" xlink:show="other" spreadMethod="pad">
                <stop stop-opacity="1" stop-color="white" offset="0%"/>
                <stop stop-opacity="1" stop-color="rgb(195,209,213)" offset="100%"/>
            </linearGradient>
            <linearGradient x1="530" x2="530" y1="10" gradientUnits="userSpaceOnUse" y2="1025" xlink:type="simple" xlink:actuate="onLoad" id="linearGradient16" xlink:show="other" spreadMethod="pad">
                <stop stop-opacity="1" stop-color="white" offset="0%"/>
                <stop stop-opacity="1" stop-color="rgb(195,209,213)" offset="100%"/>
            </linearGradient>
            <linearGradient x1="570" x2="570" y1="260" gradientUnits="userSpaceOnUse" y2="341" xlink:type="simple" xlink:actuate="onLoad" id="linearGradient17" xlink:show="other" spreadMethod="pad">
                <stop stop-opacity="1" stop-color="white" offset="0%"/>
                <stop stop-opacity="1" stop-color="rgb(195,209,213)" offset="100%"/>
            </linearGradient>
            <linearGradient x1="790" x2="790" y1="380" gradientUnits="userSpaceOnUse" y2="480" xlink:type="simple" xlink:actuate="onLoad" id="linearGradient18" xlink:show="other" spreadMethod="pad">
                <stop stop-opacity="1" stop-color="white" offset="0%"/>
                <stop stop-opacity="1" stop-color="rgb(195,209,213)" offset="100%"/>
            </linearGradient>
            <linearGradient x1="750" x2="750" y1="10" gradientUnits="userSpaceOnUse" y2="1025" xlink:type="simple" xlink:actuate="onLoad" id="linearGradient19" xlink:show="other" spreadMethod="pad">
                <stop stop-opacity="1" stop-color="white" offset="0%"/>
                <stop stop-opacity="1" stop-color="rgb(195,209,213)" offset="100%"/>
            </linearGradient>
            <linearGradient x1="790" x2="790" y1="380" gradientUnits="userSpaceOnUse" y2="480" xlink:type="simple" xlink:actuate="onLoad" id="linearGradient20" xlink:show="other" spreadMethod="pad">
                <stop stop-opacity="1" stop-color="white" offset="0%"/>
                <stop stop-opacity="1" stop-color="rgb(195,209,213)" offset="100%"/>
            </linearGradient>
            <linearGradient x1="10" x2="10" y1="80" gradientUnits="userSpaceOnUse" y2="147" xlink:type="simple" xlink:actuate="onLoad" id="linearGradient21" xlink:show="other" spreadMethod="pad">
                <stop stop-opacity="1" stop-color="rgb(255,255,204)" offset="0%"/>
                <stop stop-opacity="1" stop-color="white" offset="100%"/>
            </linearGradient>
            <linearGradient x1="170" x2="170" y1="160" gradientUnits="userSpaceOnUse" y2="220" xlink:type="simple" xlink:actuate="onLoad" id="linearGradient22" xlink:show="other" spreadMethod="pad">
                <stop stop-opacity="1" stop-color="rgb(255,255,204)" offset="0%"/>
                <stop stop-opacity="1" stop-color="white" offset="100%"/>
            </linearGradient>
            <linearGradient x1="590" x2="590" y1="40" gradientUnits="userSpaceOnUse" y2="100" xlink:type="simple" xlink:actuate="onLoad" id="linearGradient23" xlink:show="other" spreadMethod="pad">
                <stop stop-opacity="1" stop-color="rgb(255,255,204)" offset="0%"/>
                <stop stop-opacity="1" stop-color="white" offset="100%"/>
            </linearGradient>
            <linearGradient x1="650" x2="650" y1="300" gradientUnits="userSpaceOnUse" y2="360" xlink:type="simple" xlink:actuate="onLoad" id="linearGradient24" xlink:show="other" spreadMethod="pad">
                <stop stop-opacity="1" stop-color="rgb(255,255,204)" offset="0%"/>
                <stop stop-opacity="1" stop-color="white" offset="100%"/>
            </linearGradient>
            <linearGradient x1="950" x2="950" y1="380" gradientUnits="userSpaceOnUse" y2="480" xlink:type="simple" xlink:actuate="onLoad" id="linearGradient25" xlink:show="other" spreadMethod="pad">
                <stop stop-opacity="1" stop-color="white" offset="0%"/>
                <stop stop-opacity="1" stop-color="rgb(195,209,213)" offset="100%"/>
            </linearGradient>
            <linearGradient x1="910" x2="910" y1="10" gradientUnits="userSpaceOnUse" y2="710" xlink:type="simple" xlink:actuate="onLoad" id="linearGradient26" xlink:show="other" spreadMethod="pad">
                <stop stop-opacity="1" stop-color="white" offset="0%"/>
                <stop stop-opacity="1" stop-color="rgb(195,209,213)" offset="100%"/>
            </linearGradient>
            <linearGradient x1="950" x2="950" y1="380" gradientUnits="userSpaceOnUse" y2="480" xlink:type="simple" xlink:actuate="onLoad" id="linearGradient27" xlink:show="other" spreadMethod="pad">
                <stop stop-opacity="1" stop-color="white" offset="0%"/>
                <stop stop-opacity="1" stop-color="rgb(195,209,213)" offset="100%"/>
            </linearGradient>
            <clipPath clipPathUnits="userSpaceOnUse" id="clipPath1">
                <path d="M110 60 L110 139 L129 139 L129 60 Z"/>
            </clipPath>
            <clipPath clipPathUnits="userSpaceOnUse" id="clipPath2">
                <path d="M109 59 L131 59 L131 141 L109 141 L109 59 Z"/>
            </clipPath>
            <clipPath clipPathUnits="userSpaceOnUse" id="clipPath3">
                <path d="M110 640 L110 699 L129 699 L129 640 Z"/>
            </clipPath>
            <clipPath clipPathUnits="userSpaceOnUse" id="clipPath4">
                <path d="M109 639 L131 639 L131 701 L109 701 L109 639 Z"/>
            </clipPath>
            <clipPath clipPathUnits="userSpaceOnUse" id="clipPath5">
                <path d="M69 9 L171 9 L171 1026 L69 1026 L69 9 Z"/>
            </clipPath>
            <clipPath clipPathUnits="userSpaceOnUse" id="clipPath6">
                <path d="M70 10 L70 1024 L169 1024 L169 10 Z"/>
            </clipPath>
            <clipPath clipPathUnits="userSpaceOnUse" id="clipPath7">
                <path d="M98 12 L144 12 L144 25 L98 25 L98 12 Z"/>
            </clipPath>
            <clipPath clipPathUnits="userSpaceOnUse" id="clipPath8">
                <path d="M310 120 L310 219 L329 219 L329 120 Z"/>
            </clipPath>
            <clipPath clipPathUnits="userSpaceOnUse" id="clipPath9">
                <path d="M309 119 L331 119 L331 221 L309 221 L309 119 Z"/>
            </clipPath>
            <clipPath clipPathUnits="userSpaceOnUse" id="clipPath10">
                <path d="M310 520 L310 620 L329 620 L329 520 Z"/>
            </clipPath>
            <clipPath clipPathUnits="userSpaceOnUse" id="clipPath11">
                <path d="M309 519 L331 519 L331 622 L309 622 L309 519 Z"/>
            </clipPath>
            <clipPath clipPathUnits="userSpaceOnUse" id="clipPath12">
                <path d="M310 240 L310 339 L329 339 L329 240 Z"/>
            </clipPath>
            <clipPath clipPathUnits="userSpaceOnUse" id="clipPath13">
                <path d="M309 239 L331 239 L331 341 L309 341 L309 239 Z"/>
            </clipPath>
            <clipPath clipPathUnits="userSpaceOnUse" id="clipPath14">
                <path d="M310 380 L310 479 L329 479 L329 380 Z"/>
            </clipPath>
            <clipPath clipPathUnits="userSpaceOnUse" id="clipPath15">
                <path d="M309 379 L331 379 L331 481 L309 481 L309 379 Z"/>
            </clipPath>
            <clipPath clipPathUnits="userSpaceOnUse" id="clipPath16">
                <path d="M269 9 L371 9 L371 1026 L269 1026 L269 9 Z"/>
            </clipPath>
            <clipPath clipPathUnits="userSpaceOnUse" id="clipPath17">
                <path d="M270 10 L270 1024 L369 1024 L369 10 Z"/>
            </clipPath>
            <clipPath clipPathUnits="userSpaceOnUse" id="clipPath18">
                <path d="M277 12 L364 12 L364 25 L277 25 L277 12 Z"/>
            </clipPath>
            <clipPath clipPathUnits="userSpaceOnUse" id="clipPath19">
                <path d="M570 260 L570 340 L589 340 L589 260 Z"/>
            </clipPath>
            <clipPath clipPathUnits="userSpaceOnUse" id="clipPath20">
                <path d="M569 259 L591 259 L591 342 L569 342 L569 259 Z"/>
            </clipPath>
            <clipPath clipPathUnits="userSpaceOnUse" id="clipPath21">
                <path d="M529 9 L631 9 L631 1026 L529 1026 L529 9 Z"/>
            </clipPath>
            <clipPath clipPathUnits="userSpaceOnUse" id="clipPath22">
                <path d="M530 10 L530 1024 L629 1024 L629 10 Z"/>
            </clipPath>
            <clipPath clipPathUnits="userSpaceOnUse" id="clipPath23">
                <path d="M559 12 L603 12 L603 25 L559 25 L559 12 Z"/>
            </clipPath>
            <clipPath clipPathUnits="userSpaceOnUse" id="clipPath24">
                <path d="M790 380 L790 479 L809 479 L809 380 Z"/>
            </clipPath>
            <clipPath clipPathUnits="userSpaceOnUse" id="clipPath25">
                <path d="M789 379 L811 379 L811 481 L789 481 L789 379 Z"/>
            </clipPath>
            <clipPath clipPathUnits="userSpaceOnUse" id="clipPath26">
                <path d="M749 9 L851 9 L851 1026 L749 1026 L749 9 Z"/>
            </clipPath>
            <clipPath clipPathUnits="userSpaceOnUse" id="clipPath27">
                <path d="M750 10 L750 1024 L849 1024 L849 10 Z"/>
            </clipPath>
            <clipPath clipPathUnits="userSpaceOnUse" id="clipPath28">
                <path d="M778 12 L824 12 L824 25 L778 25 L778 12 Z"/>
            </clipPath>
            <clipPath clipPathUnits="userSpaceOnUse" id="clipPath29">
                <path d="M10 80 L10 146 L83 146 L83 92 L71 80 Z"/>
            </clipPath>
            <clipPath clipPathUnits="userSpaceOnUse" id="clipPath30">
                <path d="M15 85 L70 85 L70 142 L15 142 L15 85 Z"/>
            </clipPath>
            <clipPath clipPathUnits="userSpaceOnUse" id="clipPath31">
                <path d="M9 79 L85 79 L85 148 L9 148 L9 79 Z"/>
            </clipPath>
            <clipPath clipPathUnits="userSpaceOnUse" id="clipPath32">
                <path d="M170 160 L170 219 L250 219 L250 172 L238 160 Z"/>
            </clipPath>
            <clipPath clipPathUnits="userSpaceOnUse" id="clipPath33">
                <path d="M175 165 L227 165 L227 211 L175 211 L175 165 Z"/>
            </clipPath>
            <clipPath clipPathUnits="userSpaceOnUse" id="clipPath34">
                <path d="M169 159 L252 159 L252 221 L169 221 L169 159 Z"/>
            </clipPath>
            <clipPath clipPathUnits="userSpaceOnUse" id="clipPath35">
                <path d="M590 40 L590 99 L690 99 L690 52 L678 40 Z"/>
            </clipPath>
            <clipPath clipPathUnits="userSpaceOnUse" id="clipPath36">
                <path d="M595 45 L671 45 L671 91 L595 91 L595 45 Z"/>
            </clipPath>
            <clipPath clipPathUnits="userSpaceOnUse" id="clipPath37">
                <path d="M589 39 L692 39 L692 101 L589 101 L589 39 Z"/>
            </clipPath>
            <clipPath clipPathUnits="userSpaceOnUse" id="clipPath38">
                <path d="M650 300 L650 359 L750 359 L750 312 L738 300 Z"/>
            </clipPath>
            <clipPath clipPathUnits="userSpaceOnUse" id="clipPath39">
                <path d="M655 305 L727 305 L727 351 L655 351 L655 305 Z"/>
            </clipPath>
            <clipPath clipPathUnits="userSpaceOnUse" id="clipPath40">
                <path d="M649 299 L752 299 L752 361 L649 361 L649 299 Z"/>
            </clipPath>
            <clipPath clipPathUnits="userSpaceOnUse" id="clipPath41">
                <path d="M950 380 L950 479 L969 479 L969 380 Z"/>
            </clipPath>
            <clipPath clipPathUnits="userSpaceOnUse" id="clipPath42">
                <path d="M949 379 L971 379 L971 481 L949 481 L949 379 Z"/>
            </clipPath>
            <clipPath clipPathUnits="userSpaceOnUse" id="clipPath43">
                <path d="M909 9 L1011 9 L1011 711 L909 711 L909 9 Z"/>
            </clipPath>
            <clipPath clipPathUnits="userSpaceOnUse" id="clipPath44">
                <path d="M910 10 L910 709 L1009 709 L1009 10 Z"/>
            </clipPath>
            <clipPath clipPathUnits="userSpaceOnUse" id="clipPath45">
                <path d="M924 12 L998 12 L998 25 L924 25 L924 12 Z"/>
            </clipPath>
            <clipPath clipPathUnits="userSpaceOnUse" id="clipPath46">
                <path d="M-1 -1 L1131 -1 L1131 1036 L-1 1036 L-1 -1 Z"/>
            </clipPath>
            <clipPath clipPathUnits="userSpaceOnUse" id="clipPath47">
                <path d="M198 41 L254 41 L254 54 L198 54 L198 41 Z"/>
            </clipPath>
            <clipPath clipPathUnits="userSpaceOnUse" id="clipPath48">
                <path d="M303 53 L322 53 L322 68 L303 68 L303 53 Z"/>
            </clipPath>
            <clipPath clipPathUnits="userSpaceOnUse" id="clipPath49">
                <path d="M167 101 L275 101 L275 114 L167 114 L167 101 Z"/>
            </clipPath>
            <clipPath clipPathUnits="userSpaceOnUse" id="clipPath50">
                <path d="M293 113 L312 113 L312 128 L293 128 L293 113 Z"/>
            </clipPath>
            <clipPath clipPathUnits="userSpaceOnUse" id="clipPath51">
                <path d="M194 647 L254 647 L254 660 L194 660 L194 647 Z"/>
            </clipPath>
            <clipPath clipPathUnits="userSpaceOnUse" id="clipPath52">
                <path d="M129 633 L148 633 L148 648 L129 648 L129 633 Z"/>
            </clipPath>
            <clipPath clipPathUnits="userSpaceOnUse" id="clipPath53">
                <path d="M375 154 L492 154 L492 167 L375 167 L375 154 Z"/>
            </clipPath>
            <clipPath clipPathUnits="userSpaceOnUse" id="clipPath54">
                <path d="M309 193 L328 193 L328 208 L309 208 L309 193 Z"/>
            </clipPath>
            <clipPath clipPathUnits="userSpaceOnUse" id="clipPath55">
                <path d="M424 241 L479 241 L479 254 L424 254 L424 241 Z"/>
            </clipPath>
            <clipPath clipPathUnits="userSpaceOnUse" id="clipPath56">
                <path d="M553 253 L572 253 L572 268 L553 268 L553 253 Z"/>
            </clipPath>
            <clipPath clipPathUnits="userSpaceOnUse" id="clipPath57">
                <path d="M502 381 L620 381 L620 394 L502 394 L502 381 Z"/>
            </clipPath>
            <clipPath clipPathUnits="userSpaceOnUse" id="clipPath58">
                <path d="M773 393 L792 393 L792 408 L773 408 L773 393 Z"/>
            </clipPath>
            <clipPath clipPathUnits="userSpaceOnUse" id="clipPath59">
                <path d="M375 554 L448 554 L448 567 L375 567 L375 554 Z"/>
            </clipPath>
            <clipPath clipPathUnits="userSpaceOnUse" id="clipPath60">
                <path d="M309 593 L328 593 L328 608 L309 608 L309 593 Z"/>
            </clipPath>
            <clipPath clipPathUnits="userSpaceOnUse" id="clipPath61">
                <path d="M421 327 L477 327 L477 340 L421 340 L421 327 Z"/>
            </clipPath>
            <clipPath clipPathUnits="userSpaceOnUse" id="clipPath62">
                <path d="M329 313 L348 313 L348 328 L329 328 L329 313 Z"/>
            </clipPath>
            <clipPath clipPathUnits="userSpaceOnUse" id="clipPath63">
                <path d="M459 467 L659 467 L659 480 L459 480 L459 467 Z"/>
            </clipPath>
            <clipPath clipPathUnits="userSpaceOnUse" id="clipPath64">
                <path d="M329 453 L348 453 L348 468 L329 468 L329 453 Z"/>
            </clipPath>
            <clipPath clipPathUnits="userSpaceOnUse" id="clipPath65">
                <path d="M825 381 L938 381 L938 394 L825 394 L825 381 Z"/>
            </clipPath>
            <clipPath clipPathUnits="userSpaceOnUse" id="clipPath66">
                <path d="M933 393 L952 393 L952 408 L933 408 L933 393 Z"/>
            </clipPath>
            <clipPath clipPathUnits="userSpaceOnUse" id="clipPath67">
                <path d="M777 467 L982 467 L982 480 L777 480 L777 467 Z"/>
            </clipPath>
            <clipPath clipPathUnits="userSpaceOnUse" id="clipPath68">
                <path d="M809 453 L828 453 L828 468 L809 468 L809 453 Z"/>
            </clipPath>
            <clipPath clipPathUnits="userSpaceOnUse" id="clipPath69">
                <path d="M1015 434 L1108 434 L1108 447 L1015 447 L1015 434 Z"/>
            </clipPath>
            <clipPath clipPathUnits="userSpaceOnUse" id="clipPath70">
                <path d="M949 473 L968 473 L968 488 L949 488 L949 473 Z"/>
            </clipPath>
        </defs>
        <g font-size="14" fill="url(#linearGradient1)" font-family="'.AppleSystemUIFont'" stroke-linejoin="round" stroke="url(#linearGradient1)" stroke-width="0" stroke-miterlimit="0">
            <rect x="110" y="60" clip-path="url(#clipPath1)" width="20" height="80" stroke="none"/>
        </g>
        <g stroke-width="1.1" font-size="14" font-family="'.AppleSystemUIFont'" stroke-linecap="butt">
            <rect x="110" y="60" clip-path="url(#clipPath2)" fill="none" width="19" rx="0" ry="0" height="79"/>
            <rect x="110" y="640" clip-path="url(#clipPath3)" fill="url(#linearGradient2)" width="20" height="60" stroke="none"/>
            <rect x="110" y="640" clip-path="url(#clipPath4)" fill="none" width="19" rx="0" ry="0" height="59"/>
            <rect x="70" y="10" clip-path="url(#clipPath5)" fill="none" width="99" height="14"/>
            <line clip-path="url(#clipPath5)" fill="none" x1="120" x2="120" y1="24" y2="1024" stroke-dasharray="5,5"/>
            <rect x="70" y="10" clip-path="url(#clipPath6)" fill="url(#linearGradient3)" width="100" stroke-dasharray="5,5" opacity="0" height="1015" stroke="none"/>
            <text x="99" font-size="12" y="25" clip-path="url(#clipPath7)" stroke-dasharray="5,5" stroke="none" xml:space="preserve">Final User</text>
            <rect x="110" y="60" clip-path="url(#clipPath1)" fill="url(#linearGradient4)" width="20" stroke-dasharray="5,5" height="80" stroke="none"/>
            <rect x="110" y="60" clip-path="url(#clipPath2)" fill="none" width="19" rx="0" ry="0" height="79"/>
            <rect x="110" y="640" clip-path="url(#clipPath3)" fill="url(#linearGradient5)" width="20" height="60" stroke="none"/>
            <rect x="110" y="640" clip-path="url(#clipPath4)" fill="none" width="19" rx="0" ry="0" height="59"/>
            <rect x="310" y="120" clip-path="url(#clipPath8)" fill="url(#linearGradient6)" width="20" height="100" stroke="none"/>
            <rect x="310" y="120" clip-path="url(#clipPath9)" fill="none" width="19" rx="0" ry="0" height="99"/>
            <rect x="310" y="520" clip-path="url(#clipPath10)" fill="url(#linearGradient7)" width="20" height="101" stroke="none"/>
            <rect x="310" y="520" clip-path="url(#clipPath11)" fill="none" width="19" rx="0" ry="0" height="100"/>
            <rect x="310" y="240" clip-path="url(#clipPath12)" fill="url(#linearGradient8)" width="20" height="100" stroke="none"/>
            <rect x="310" y="240" clip-path="url(#clipPath13)" fill="none" width="19" rx="0" ry="0" height="99"/>
            <rect x="310" y="380" clip-path="url(#clipPath14)" fill="url(#linearGradient9)" width="20" height="100" stroke="none"/>
            <rect x="310" y="380" clip-path="url(#clipPath15)" fill="none" width="19" rx="0" ry="0" height="99"/>
            <rect x="270" y="10" clip-path="url(#clipPath16)" fill="none" width="99" height="14"/>
            <line clip-path="url(#clipPath16)" fill="none" x1="320" x2="320" y1="24" y2="1024" stroke-dasharray="5,5"/>
            <rect x="270" y="10" clip-path="url(#clipPath17)" fill="url(#linearGradient10)" width="100" stroke-dasharray="5,5" opacity="0" height="1015" stroke="none"/>
            <text x="278" font-size="12" y="25" clip-path="url(#clipPath18)" stroke-dasharray="5,5" stroke="none" xml:space="preserve">GUI SVG Generator</text>
            <rect x="310" y="120" clip-path="url(#clipPath8)" fill="url(#linearGradient11)" width="20" stroke-dasharray="5,5" height="100" stroke="none"/>
            <rect x="310" y="120" clip-path="url(#clipPath9)" fill="none" width="19" rx="0" ry="0" height="99"/>
            <rect x="310" y="520" clip-path="url(#clipPath10)" fill="url(#linearGradient12)" width="20" height="101" stroke="none"/>
            <rect x="310" y="520" clip-path="url(#clipPath11)" fill="none" width="19" rx="0" ry="0" height="100"/>
            <rect x="310" y="240" clip-path="url(#clipPath12)" fill="url(#linearGradient13)" width="20" height="100" stroke="none"/>
            <rect x="310" y="240" clip-path="url(#clipPath13)" fill="none" width="19" rx="0" ry="0" height="99"/>
            <rect x="310" y="380" clip-path="url(#clipPath14)" fill="url(#linearGradient14)" width="20" height="100" stroke="none"/>
            <rect x="310" y="380" clip-path="url(#clipPath15)" fill="none" width="19" rx="0" ry="0" height="99"/>
            <rect x="570" y="260" clip-path="url(#clipPath19)" fill="url(#linearGradient15)" width="20" height="81" stroke="none"/>
            <rect x="570" y="260" clip-path="url(#clipPath20)" fill="none" width="19" rx="0" ry="0" height="80"/>
            <rect x="530" y="10" clip-path="url(#clipPath21)" fill="none" width="99" height="14"/>
            <line clip-path="url(#clipPath21)" fill="none" x1="580" x2="580" y1="24" y2="1024" stroke-dasharray="5,5"/>
            <rect x="530" y="10" clip-path="url(#clipPath22)" fill="url(#linearGradient16)" width="100" stroke-dasharray="5,5" opacity="0" height="1015" stroke="none"/>
            <text x="560" font-size="12" y="25" clip-path="url(#clipPath23)" stroke-dasharray="5,5" stroke="none" xml:space="preserve">Database</text>
            <rect x="570" y="260" clip-path="url(#clipPath19)" fill="url(#linearGradient17)" width="20" stroke-dasharray="5,5" height="81" stroke="none"/>
            <rect x="570" y="260" clip-path="url(#clipPath20)" fill="none" width="19" rx="0" ry="0" height="80"/>
            <rect x="790" y="380" clip-path="url(#clipPath24)" fill="url(#linearGradient18)" width="20" height="100" stroke="none"/>
            <rect x="790" y="380" clip-path="url(#clipPath25)" fill="none" width="19" rx="0" ry="0" height="99"/>
            <rect x="750" y="10" clip-path="url(#clipPath26)" fill="none" width="99" height="14"/>
            <line clip-path="url(#clipPath26)" fill="none" x1="800" x2="800" y1="24" y2="1024" stroke-dasharray="5,5"/>
            <rect x="750" y="10" clip-path="url(#clipPath27)" fill="url(#linearGradient19)" width="100" stroke-dasharray="5,5" opacity="0" height="1015" stroke="none"/>
            <text x="779" font-size="12" y="25" clip-path="url(#clipPath28)" stroke-dasharray="5,5" stroke="none" xml:space="preserve">Draw SVG</text>
            <rect x="790" y="380" clip-path="url(#clipPath24)" fill="url(#linearGradient20)" width="20" stroke-dasharray="5,5" height="100" stroke="none"/>
            <rect x="790" y="380" clip-path="url(#clipPath25)" fill="none" width="19" rx="0" ry="0" height="99"/>
            <rect x="10" y="80" clip-path="url(#clipPath29)" fill="url(#linearGradient21)" width="74" height="67" stroke="none"/>
            <text x="16" font-size="12" y="98" clip-path="url(#clipPath30)" stroke="none" xml:space="preserve">The user</text>
            <text x="16" font-size="12" y="109" clip-path="url(#clipPath30)" stroke="none" xml:space="preserve">chooses</text>
            <text x="16" font-size="12" y="120" clip-path="url(#clipPath30)" stroke="none" xml:space="preserve">preferences</text>
            <text x="16" font-size="12" y="131" clip-path="url(#clipPath30)" stroke="none" xml:space="preserve">and paper</text>
            <text x="16" font-size="12" y="142" clip-path="url(#clipPath30)" stroke="none" xml:space="preserve">format</text>
            <line clip-path="url(#clipPath31)" fill="none" x1="10" x2="71" y1="80" y2="80"/>
            <line clip-path="url(#clipPath31)" fill="none" x1="71" x2="83" y1="80" y2="92"/>
            <line clip-path="url(#clipPath31)" fill="none" x1="83" x2="83" y1="92" y2="146"/>
            <line clip-path="url(#clipPath31)" fill="none" x1="83" x2="10" y1="146" y2="146"/>
            <line clip-path="url(#clipPath31)" fill="none" x1="10" x2="10" y1="146" y2="80"/>
            <line clip-path="url(#clipPath31)" fill="none" x1="10" x2="10" y1="80" y2="80"/>
            <line clip-path="url(#clipPath31)" fill="none" x1="71" x2="71" y1="80" y2="92"/>
            <line clip-path="url(#clipPath31)" fill="none" x1="71" x2="84" y1="92" y2="92"/>
            <rect x="170" y="160" clip-path="url(#clipPath32)" fill="url(#linearGradient22)" width="81" height="60" stroke="none"/>
            <text x="176" font-size="12" y="178" clip-path="url(#clipPath33)" stroke="none" xml:space="preserve">All settings</text>
            <text x="176" font-size="12" y="189" clip-path="url(#clipPath33)" stroke="none" xml:space="preserve">don't make</text>
            <text x="176" font-size="12" y="200" clip-path="url(#clipPath33)" stroke="none" xml:space="preserve">the SVG</text>
            <text x="176" font-size="12" y="211" clip-path="url(#clipPath33)" stroke="none" xml:space="preserve">responsive</text>
            <line clip-path="url(#clipPath34)" fill="none" x1="170" x2="238" y1="160" y2="160"/>
            <line clip-path="url(#clipPath34)" fill="none" x1="238" x2="250" y1="160" y2="172"/>
            <line clip-path="url(#clipPath34)" fill="none" x1="250" x2="250" y1="172" y2="219"/>
            <line clip-path="url(#clipPath34)" fill="none" x1="250" x2="170" y1="219" y2="219"/>
            <line clip-path="url(#clipPath34)" fill="none" x1="170" x2="170" y1="219" y2="160"/>
            <line clip-path="url(#clipPath34)" fill="none" x1="170" x2="170" y1="160" y2="160"/>
            <line clip-path="url(#clipPath34)" fill="none" x1="238" x2="238" y1="160" y2="172"/>
            <line clip-path="url(#clipPath34)" fill="none" x1="238" x2="251" y1="172" y2="172"/>
            <rect x="590" y="40" clip-path="url(#clipPath35)" fill="url(#linearGradient23)" width="101" height="60" stroke="none"/>
            <text x="596" font-size="12" y="58" clip-path="url(#clipPath36)" stroke="none" xml:space="preserve">Use model</text>
            <text x="596" font-size="12" y="69" clip-path="url(#clipPath36)" stroke="none" xml:space="preserve">package</text>
            <text x="596" font-size="12" y="80" clip-path="url(#clipPath36)" stroke="none" xml:space="preserve">beceause ROF is</text>
            <text x="596" font-size="12" y="91" clip-path="url(#clipPath36)" stroke="none" xml:space="preserve">not functionnal</text>
            <line clip-path="url(#clipPath37)" fill="none" x1="590" x2="678" y1="40" y2="40"/>
            <line clip-path="url(#clipPath37)" fill="none" x1="678" x2="690" y1="40" y2="52"/>
            <line clip-path="url(#clipPath37)" fill="none" x1="690" x2="690" y1="52" y2="99"/>
            <line clip-path="url(#clipPath37)" fill="none" x1="690" x2="590" y1="99" y2="99"/>
            <line clip-path="url(#clipPath37)" fill="none" x1="590" x2="590" y1="99" y2="40"/>
            <line clip-path="url(#clipPath37)" fill="none" x1="590" x2="590" y1="40" y2="40"/>
            <line clip-path="url(#clipPath37)" fill="none" x1="678" x2="678" y1="40" y2="52"/>
            <line clip-path="url(#clipPath37)" fill="none" x1="678" x2="691" y1="52" y2="52"/>
            <rect x="650" y="300" clip-path="url(#clipPath38)" fill="url(#linearGradient24)" width="101" height="60" stroke="none"/>
            <text x="656" font-size="12" y="318" clip-path="url(#clipPath39)" stroke="none" xml:space="preserve">Here SVG is an</text>
            <text x="656" font-size="12" y="329" clip-path="url(#clipPath39)" stroke="none" xml:space="preserve">attribute of the</text>
            <text x="656" font-size="12" y="340" clip-path="url(#clipPath39)" stroke="none" xml:space="preserve">GUI SVG</text>
            <text x="656" font-size="12" y="351" clip-path="url(#clipPath39)" stroke="none" xml:space="preserve">Generator class</text>
            <line clip-path="url(#clipPath40)" fill="none" x1="650" x2="738" y1="300" y2="300"/>
            <line clip-path="url(#clipPath40)" fill="none" x1="738" x2="750" y1="300" y2="312"/>
            <line clip-path="url(#clipPath40)" fill="none" x1="750" x2="750" y1="312" y2="359"/>
            <line clip-path="url(#clipPath40)" fill="none" x1="750" x2="650" y1="359" y2="359"/>
            <line clip-path="url(#clipPath40)" fill="none" x1="650" x2="650" y1="359" y2="300"/>
            <line clip-path="url(#clipPath40)" fill="none" x1="650" x2="650" y1="300" y2="300"/>
            <line clip-path="url(#clipPath40)" fill="none" x1="738" x2="738" y1="300" y2="312"/>
            <line clip-path="url(#clipPath40)" fill="none" x1="738" x2="751" y1="312" y2="312"/>
            <rect x="950" y="380" clip-path="url(#clipPath41)" fill="url(#linearGradient25)" width="20" height="100" stroke="none"/>
            <rect x="950" y="380" clip-path="url(#clipPath42)" fill="none" width="19" rx="0" ry="0" height="99"/>
            <rect x="910" y="10" clip-path="url(#clipPath43)" fill="none" width="99" height="14"/>
            <line clip-path="url(#clipPath43)" fill="none" x1="960" x2="960" y1="24" y2="709" stroke-dasharray="5,5"/>
            <rect x="910" y="10" clip-path="url(#clipPath44)" fill="url(#linearGradient26)" width="100" stroke-dasharray="5,5" opacity="0" height="700" stroke="none"/>
            <text x="925" font-size="12" y="25" clip-path="url(#clipPath45)" stroke-dasharray="5,5" stroke="none" xml:space="preserve">Responsive SVG</text>
            <rect x="950" y="380" clip-path="url(#clipPath41)" fill="url(#linearGradient27)" width="20" stroke-dasharray="5,5" height="100" stroke="none"/>
            <rect x="950" y="380" clip-path="url(#clipPath42)" fill="none" width="19" rx="0" ry="0" height="99"/>
            <line clip-path="url(#clipPath46)" fill="none" text-rendering="optimizeLegibility" x1="130" x2="320" y1="60" y2="60"/>
            <text x="199" font-size="12" y="54" clip-path="url(#clipPath47)" text-rendering="optimizeLegibility" stroke="none" xml:space="preserve">Set Settings</text>
            <polygon text-rendering="optimizeLegibility" clip-path="url(#clipPath48)" points=" 320 60 304 66 304 54" stroke="none"/>
            <polygon fill="none" text-rendering="optimizeLegibility" clip-path="url(#clipPath48)" points=" 320 60 304 66 304 54"/>
            <line clip-path="url(#clipPath46)" fill="none" text-rendering="optimizeLegibility" x1="130" x2="310" y1="120" y2="120"/>
            <text x="168" font-size="12" y="114" clip-path="url(#clipPath49)" text-rendering="optimizeLegibility" stroke="none" xml:space="preserve">ButtonPush.addListener</text>
            <line clip-path="url(#clipPath50)" fill="none" text-rendering="optimizeLegibility" x1="294" x2="310" y1="126" y2="120"/>
            <line clip-path="url(#clipPath50)" fill="none" text-rendering="optimizeLegibility" x1="310" x2="294" y1="120" y2="114"/>
            <line clip-path="url(#clipPath46)" fill="none" text-rendering="optimizeLegibility" x1="320" x2="130" y1="640" y2="640" stroke-dasharray="6.6,3.3"/>
            <text x="195" font-size="12" y="660" clip-path="url(#clipPath51)" text-rendering="optimizeLegibility" stroke-dasharray="6.6,3.3" stroke="none" xml:space="preserve">SVG genered</text>
            <line clip-path="url(#clipPath52)" fill="none" text-rendering="optimizeLegibility" x1="146" x2="130" y1="634" y2="640"/>
            <line clip-path="url(#clipPath52)" fill="none" text-rendering="optimizeLegibility" x1="130" x2="146" y1="640" y2="646"/>
            <line clip-path="url(#clipPath46)" fill="none" text-rendering="optimizeLegibility" x1="310" x2="372" y1="120" y2="120"/>
            <line clip-path="url(#clipPath46)" fill="none" text-rendering="optimizeLegibility" x1="372" x2="372" y1="120" y2="200"/>
            <line clip-path="url(#clipPath46)" fill="none" text-rendering="optimizeLegibility" x1="372" x2="310" y1="200" y2="200"/>
            <text x="376" font-size="12" y="167" clip-path="url(#clipPath53)" text-rendering="optimizeLegibility" stroke="none" xml:space="preserve">Settings = news Setting( )</text>
            <line clip-path="url(#clipPath54)" fill="none" text-rendering="optimizeLegibility" x1="326" x2="310" y1="194" y2="200"/>
            <line clip-path="url(#clipPath54)" fill="none" text-rendering="optimizeLegibility" x1="310" x2="326" y1="200" y2="206"/>
            <line clip-path="url(#clipPath46)" fill="none" text-rendering="optimizeLegibility" x1="330" x2="570" y1="260" y2="260"/>
            <text x="425" font-size="12" y="254" clip-path="url(#clipPath55)" text-rendering="optimizeLegibility" stroke="none" xml:space="preserve">ask for data</text>
            <line clip-path="url(#clipPath56)" fill="none" text-rendering="optimizeLegibility" x1="554" x2="570" y1="266" y2="260"/>
            <line clip-path="url(#clipPath56)" fill="none" text-rendering="optimizeLegibility" x1="570" x2="554" y1="260" y2="254"/>
            <line clip-path="url(#clipPath46)" fill="none" text-rendering="optimizeLegibility" x1="330" x2="790" y1="400" y2="400"/>
            <text x="503" font-size="12" y="394" clip-path="url(#clipPath57)" text-rendering="optimizeLegibility" stroke="none" xml:space="preserve">SVG.Paint(datas, settings)</text>
            <line clip-path="url(#clipPath58)" fill="none" text-rendering="optimizeLegibility" x1="774" x2="790" y1="406" y2="400"/>
            <line clip-path="url(#clipPath58)" fill="none" text-rendering="optimizeLegibility" x1="790" x2="774" y1="400" y2="394"/>
            <line clip-path="url(#clipPath46)" fill="none" text-rendering="optimizeLegibility" x1="310" x2="372" y1="520" y2="520"/>
            <line clip-path="url(#clipPath46)" fill="none" text-rendering="optimizeLegibility" x1="372" x2="372" y1="520" y2="600"/>
            <line clip-path="url(#clipPath46)" fill="none" text-rendering="optimizeLegibility" x1="372" x2="310" y1="600" y2="600"/>
            <text x="376" font-size="12" y="567" clip-path="url(#clipPath59)" text-rendering="optimizeLegibility" stroke="none" xml:space="preserve">file = new File( )</text>
            <line clip-path="url(#clipPath60)" fill="none" text-rendering="optimizeLegibility" x1="326" x2="310" y1="594" y2="600"/>
            <line clip-path="url(#clipPath60)" fill="none" text-rendering="optimizeLegibility" x1="310" x2="326" y1="600" y2="606"/>
            <line clip-path="url(#clipPath46)" fill="none" text-rendering="optimizeLegibility" x1="84" x2="212" y1="120" y2="60" stroke-dasharray="6.6,3.3"/>
            <line clip-path="url(#clipPath46)" fill="none" text-rendering="optimizeLegibility" x1="570" x2="330" y1="320" y2="320" stroke-dasharray="6.6,3.3"/>
            <text x="422" font-size="12" y="340" clip-path="url(#clipPath61)" text-rendering="optimizeLegibility" stroke-dasharray="6.6,3.3" stroke="none" xml:space="preserve">return datas</text>
            <line clip-path="url(#clipPath62)" fill="none" text-rendering="optimizeLegibility" x1="346" x2="330" y1="314" y2="320"/>
            <line clip-path="url(#clipPath62)" fill="none" text-rendering="optimizeLegibility" x1="330" x2="346" y1="320" y2="326"/>
            <line clip-path="url(#clipPath46)" fill="none" text-rendering="optimizeLegibility" x1="790" x2="330" y1="460" y2="460" stroke-dasharray="6.6,3.3"/>
            <text x="460" font-size="12" y="480" clip-path="url(#clipPath63)" text-rendering="optimizeLegibility" stroke-dasharray="6.6,3.3" stroke="none" xml:space="preserve">draw admission, formation, Responsable, etc</text>
            <line clip-path="url(#clipPath64)" fill="none" text-rendering="optimizeLegibility" x1="346" x2="330" y1="454" y2="460"/>
            <line clip-path="url(#clipPath64)" fill="none" text-rendering="optimizeLegibility" x1="330" x2="346" y1="460" y2="466"/>
            <line clip-path="url(#clipPath46)" fill="none" text-rendering="optimizeLegibility" x1="210" x2="310" y1="160" y2="120" stroke-dasharray="6.6,3.3"/>
            <line clip-path="url(#clipPath46)" fill="none" text-rendering="optimizeLegibility" x1="810" x2="950" y1="400" y2="400"/>
            <text x="826" font-size="12" y="394" clip-path="url(#clipPath65)" text-rendering="optimizeLegibility" stroke="none" xml:space="preserve">Ask for a responsive SVG</text>
            <line clip-path="url(#clipPath66)" fill="none" text-rendering="optimizeLegibility" x1="934" x2="950" y1="406" y2="400"/>
            <line clip-path="url(#clipPath66)" fill="none" text-rendering="optimizeLegibility" x1="950" x2="934" y1="400" y2="394"/>
            <line clip-path="url(#clipPath46)" fill="none" text-rendering="optimizeLegibility" x1="690" x2="626" y1="360" y2="400" stroke-dasharray="6.6,3.3"/>
            <line clip-path="url(#clipPath46)" fill="none" text-rendering="optimizeLegibility" x1="950" x2="810" y1="460" y2="460" stroke-dasharray="6.6,3.3"/>
            <text x="778" font-size="12" y="480" clip-path="url(#clipPath67)" text-rendering="optimizeLegibility" stroke-dasharray="6.6,3.3" stroke="none" xml:space="preserve">associate positions making the SVG reponsive</text>
            <line clip-path="url(#clipPath68)" fill="none" text-rendering="optimizeLegibility" x1="826" x2="810" y1="454" y2="460"/>
            <line clip-path="url(#clipPath68)" fill="none" text-rendering="optimizeLegibility" x1="810" x2="826" y1="460" y2="466"/>
            <line clip-path="url(#clipPath46)" fill="none" text-rendering="optimizeLegibility" x1="950" x2="1012" y1="400" y2="400"/>
            <line clip-path="url(#clipPath46)" fill="none" text-rendering="optimizeLegibility" x1="1012" x2="1012" y1="400" y2="480"/>
            <line clip-path="url(#clipPath46)" fill="none" text-rendering="optimizeLegibility" x1="1012" x2="950" y1="480" y2="480"/>
            <text x="1016" font-size="12" y="447" clip-path="url(#clipPath69)" text-rendering="optimizeLegibility" stroke="none" xml:space="preserve">Control the settings </text>
            <line clip-path="url(#clipPath70)" fill="none" text-rendering="optimizeLegibility" x1="966" x2="950" y1="474" y2="480"/>
            <line clip-path="url(#clipPath70)" fill="none" text-rendering="optimizeLegibility" x1="950" x2="966" y1="480" y2="486"/>
        </g>
    </g>
</svg>
