<?xml version="1.0" encoding="UTF-8"?><svg xmlns="http://www.w3.org/2000/svg" xmlns:xlink="http://www.w3.org/1999/xlink" stroke-dasharray="none" shape-rendering="auto" font-family="'Dialog'" width="1154" text-rendering="auto" fill-opacity="1" contentScriptType="text/ecmascript" color-interpolation="auto" color-rendering="auto" preserveAspectRatio="xMidYMid meet" font-size="12" viewBox="0 0 1154 1035" fill="black" stroke="black" image-rendering="auto" stroke-miterlimit="10" zoomAndPan="magnify" version="1.0" stroke-linecap="square" stroke-linejoin="miter" contentStyleType="text/css" font-style="normal" height="1035" stroke-width="1" stroke-dashoffset="0" font-weight="normal" stroke-opacity="1">
    <!--Generated by the Batik Graphics2D SVG Generator-->
    <defs id="genericDefs"/>
    <g>
        <defs id="defs1">
            <linearGradient x1="110" x2="110" y1="140" gradientUnits="userSpaceOnUse" y2="840" xlink:type="simple" xlink:actuate="onLoad" id="linearGradient1" xlink:show="other" spreadMethod="pad">
                <stop stop-opacity="1" stop-color="white" offset="0%"/>
                <stop stop-opacity="1" stop-color="rgb(195,209,213)" offset="100%"/>
            </linearGradient>
            <linearGradient x1="70" x2="70" y1="10" gradientUnits="userSpaceOnUse" y2="1025" xlink:type="simple" xlink:actuate="onLoad" id="linearGradient2" xlink:show="other" spreadMethod="pad">
                <stop stop-opacity="1" stop-color="white" offset="0%"/>
                <stop stop-opacity="1" stop-color="rgb(195,209,213)" offset="100%"/>
            </linearGradient>
            <linearGradient x1="110" x2="110" y1="140" gradientUnits="userSpaceOnUse" y2="840" xlink:type="simple" xlink:actuate="onLoad" id="linearGradient3" xlink:show="other" spreadMethod="pad">
                <stop stop-opacity="1" stop-color="white" offset="0%"/>
                <stop stop-opacity="1" stop-color="rgb(195,209,213)" offset="100%"/>
            </linearGradient>
            <linearGradient x1="310" x2="310" y1="120" gradientUnits="userSpaceOnUse" y2="820" xlink:type="simple" xlink:actuate="onLoad" id="linearGradient4" xlink:show="other" spreadMethod="pad">
                <stop stop-opacity="1" stop-color="white" offset="0%"/>
                <stop stop-opacity="1" stop-color="rgb(195,209,213)" offset="100%"/>
            </linearGradient>
            <linearGradient x1="270" x2="270" y1="10" gradientUnits="userSpaceOnUse" y2="1025" xlink:type="simple" xlink:actuate="onLoad" id="linearGradient5" xlink:show="other" spreadMethod="pad">
                <stop stop-opacity="1" stop-color="white" offset="0%"/>
                <stop stop-opacity="1" stop-color="rgb(195,209,213)" offset="100%"/>
            </linearGradient>
            <linearGradient x1="310" x2="310" y1="120" gradientUnits="userSpaceOnUse" y2="820" xlink:type="simple" xlink:actuate="onLoad" id="linearGradient6" xlink:show="other" spreadMethod="pad">
                <stop stop-opacity="1" stop-color="white" offset="0%"/>
                <stop stop-opacity="1" stop-color="rgb(195,209,213)" offset="100%"/>
            </linearGradient>
            <linearGradient x1="570" x2="570" y1="340" gradientUnits="userSpaceOnUse" y2="420" xlink:type="simple" xlink:actuate="onLoad" id="linearGradient7" xlink:show="other" spreadMethod="pad">
                <stop stop-opacity="1" stop-color="white" offset="0%"/>
                <stop stop-opacity="1" stop-color="rgb(195,209,213)" offset="100%"/>
            </linearGradient>
            <linearGradient x1="530" x2="530" y1="10" gradientUnits="userSpaceOnUse" y2="1025" xlink:type="simple" xlink:actuate="onLoad" id="linearGradient8" xlink:show="other" spreadMethod="pad">
                <stop stop-opacity="1" stop-color="white" offset="0%"/>
                <stop stop-opacity="1" stop-color="rgb(195,209,213)" offset="100%"/>
            </linearGradient>
            <linearGradient x1="570" x2="570" y1="340" gradientUnits="userSpaceOnUse" y2="420" xlink:type="simple" xlink:actuate="onLoad" id="linearGradient9" xlink:show="other" spreadMethod="pad">
                <stop stop-opacity="1" stop-color="white" offset="0%"/>
                <stop stop-opacity="1" stop-color="rgb(195,209,213)" offset="100%"/>
            </linearGradient>
            <linearGradient x1="790" x2="790" y1="500" gradientUnits="userSpaceOnUse" y2="560" xlink:type="simple" xlink:actuate="onLoad" id="linearGradient10" xlink:show="other" spreadMethod="pad">
                <stop stop-opacity="1" stop-color="white" offset="0%"/>
                <stop stop-opacity="1" stop-color="rgb(195,209,213)" offset="100%"/>
            </linearGradient>
            <linearGradient x1="750" x2="750" y1="10" gradientUnits="userSpaceOnUse" y2="1025" xlink:type="simple" xlink:actuate="onLoad" id="linearGradient11" xlink:show="other" spreadMethod="pad">
                <stop stop-opacity="1" stop-color="white" offset="0%"/>
                <stop stop-opacity="1" stop-color="rgb(195,209,213)" offset="100%"/>
            </linearGradient>
            <linearGradient x1="790" x2="790" y1="500" gradientUnits="userSpaceOnUse" y2="560" xlink:type="simple" xlink:actuate="onLoad" id="linearGradient12" xlink:show="other" spreadMethod="pad">
                <stop stop-opacity="1" stop-color="white" offset="0%"/>
                <stop stop-opacity="1" stop-color="rgb(195,209,213)" offset="100%"/>
            </linearGradient>
            <linearGradient x1="10" x2="10" y1="80" gradientUnits="userSpaceOnUse" y2="147" xlink:type="simple" xlink:actuate="onLoad" id="linearGradient13" xlink:show="other" spreadMethod="pad">
                <stop stop-opacity="1" stop-color="rgb(255,255,204)" offset="0%"/>
                <stop stop-opacity="1" stop-color="white" offset="100%"/>
            </linearGradient>
            <linearGradient x1="590" x2="590" y1="40" gradientUnits="userSpaceOnUse" y2="100" xlink:type="simple" xlink:actuate="onLoad" id="linearGradient14" xlink:show="other" spreadMethod="pad">
                <stop stop-opacity="1" stop-color="rgb(255,255,204)" offset="0%"/>
                <stop stop-opacity="1" stop-color="white" offset="100%"/>
            </linearGradient>
            <linearGradient x1="630" x2="630" y1="400" gradientUnits="userSpaceOnUse" y2="460" xlink:type="simple" xlink:actuate="onLoad" id="linearGradient15" xlink:show="other" spreadMethod="pad">
                <stop stop-opacity="1" stop-color="rgb(255,255,204)" offset="0%"/>
                <stop stop-opacity="1" stop-color="white" offset="100%"/>
            </linearGradient>
            <linearGradient x1="950" x2="950" y1="500" gradientUnits="userSpaceOnUse" y2="560" xlink:type="simple" xlink:actuate="onLoad" id="linearGradient16" xlink:show="other" spreadMethod="pad">
                <stop stop-opacity="1" stop-color="white" offset="0%"/>
                <stop stop-opacity="1" stop-color="rgb(195,209,213)" offset="100%"/>
            </linearGradient>
            <linearGradient x1="910" x2="910" y1="10" gradientUnits="userSpaceOnUse" y2="825" xlink:type="simple" xlink:actuate="onLoad" id="linearGradient17" xlink:show="other" spreadMethod="pad">
                <stop stop-opacity="1" stop-color="white" offset="0%"/>
                <stop stop-opacity="1" stop-color="rgb(195,209,213)" offset="100%"/>
            </linearGradient>
            <linearGradient x1="950" x2="950" y1="500" gradientUnits="userSpaceOnUse" y2="560" xlink:type="simple" xlink:actuate="onLoad" id="linearGradient18" xlink:show="other" spreadMethod="pad">
                <stop stop-opacity="1" stop-color="white" offset="0%"/>
                <stop stop-opacity="1" stop-color="rgb(195,209,213)" offset="100%"/>
            </linearGradient>
            <linearGradient x1="390" x2="390" y1="60" gradientUnits="userSpaceOnUse" y2="127" xlink:type="simple" xlink:actuate="onLoad" id="linearGradient19" xlink:show="other" spreadMethod="pad">
                <stop stop-opacity="1" stop-color="rgb(255,255,204)" offset="0%"/>
                <stop stop-opacity="1" stop-color="white" offset="100%"/>
            </linearGradient>
            <clipPath clipPathUnits="userSpaceOnUse" id="clipPath1">
                <path d="M110 140 L110 839 L129 839 L129 140 Z"/>
            </clipPath>
            <clipPath clipPathUnits="userSpaceOnUse" id="clipPath2">
                <path d="M109 139 L131 139 L131 841 L109 841 L109 139 Z"/>
            </clipPath>
            <clipPath clipPathUnits="userSpaceOnUse" id="clipPath3">
                <path d="M69 9 L171 9 L171 1026 L69 1026 L69 9 Z"/>
            </clipPath>
            <clipPath clipPathUnits="userSpaceOnUse" id="clipPath4">
                <path d="M70 10 L70 1024 L169 1024 L169 10 Z"/>
            </clipPath>
            <clipPath clipPathUnits="userSpaceOnUse" id="clipPath5">
                <path d="M98 12 L144 12 L144 25 L98 25 L98 12 Z"/>
            </clipPath>
            <clipPath clipPathUnits="userSpaceOnUse" id="clipPath6">
                <path d="M310 120 L310 819 L329 819 L329 120 Z"/>
            </clipPath>
            <clipPath clipPathUnits="userSpaceOnUse" id="clipPath7">
                <path d="M309 119 L331 119 L331 821 L309 821 L309 119 Z"/>
            </clipPath>
            <clipPath clipPathUnits="userSpaceOnUse" id="clipPath8">
                <path d="M269 9 L371 9 L371 1026 L269 1026 L269 9 Z"/>
            </clipPath>
            <clipPath clipPathUnits="userSpaceOnUse" id="clipPath9">
                <path d="M270 10 L270 1024 L369 1024 L369 10 Z"/>
            </clipPath>
            <clipPath clipPathUnits="userSpaceOnUse" id="clipPath10">
                <path d="M277 12 L364 12 L364 25 L277 25 L277 12 Z"/>
            </clipPath>
            <clipPath clipPathUnits="userSpaceOnUse" id="clipPath11">
                <path d="M570 340 L570 419 L589 419 L589 340 Z"/>
            </clipPath>
            <clipPath clipPathUnits="userSpaceOnUse" id="clipPath12">
                <path d="M569 339 L591 339 L591 421 L569 421 L569 339 Z"/>
            </clipPath>
            <clipPath clipPathUnits="userSpaceOnUse" id="clipPath13">
                <path d="M529 9 L631 9 L631 1026 L529 1026 L529 9 Z"/>
            </clipPath>
            <clipPath clipPathUnits="userSpaceOnUse" id="clipPath14">
                <path d="M530 10 L530 1024 L629 1024 L629 10 Z"/>
            </clipPath>
            <clipPath clipPathUnits="userSpaceOnUse" id="clipPath15">
                <path d="M559 12 L603 12 L603 25 L559 25 L559 12 Z"/>
            </clipPath>
            <clipPath clipPathUnits="userSpaceOnUse" id="clipPath16">
                <path d="M790 500 L790 559 L809 559 L809 500 Z"/>
            </clipPath>
            <clipPath clipPathUnits="userSpaceOnUse" id="clipPath17">
                <path d="M789 499 L811 499 L811 561 L789 561 L789 499 Z"/>
            </clipPath>
            <clipPath clipPathUnits="userSpaceOnUse" id="clipPath18">
                <path d="M749 9 L851 9 L851 1026 L749 1026 L749 9 Z"/>
            </clipPath>
            <clipPath clipPathUnits="userSpaceOnUse" id="clipPath19">
                <path d="M750 10 L750 1024 L849 1024 L849 10 Z"/>
            </clipPath>
            <clipPath clipPathUnits="userSpaceOnUse" id="clipPath20">
                <path d="M778 12 L824 12 L824 25 L778 25 L778 12 Z"/>
            </clipPath>
            <clipPath clipPathUnits="userSpaceOnUse" id="clipPath21">
                <path d="M10 80 L10 146 L83 146 L83 92 L71 80 Z"/>
            </clipPath>
            <clipPath clipPathUnits="userSpaceOnUse" id="clipPath22">
                <path d="M15 85 L70 85 L70 142 L15 142 L15 85 Z"/>
            </clipPath>
            <clipPath clipPathUnits="userSpaceOnUse" id="clipPath23">
                <path d="M9 79 L85 79 L85 148 L9 148 L9 79 Z"/>
            </clipPath>
            <clipPath clipPathUnits="userSpaceOnUse" id="clipPath24">
                <path d="M590 40 L590 99 L690 99 L690 52 L678 40 Z"/>
            </clipPath>
            <clipPath clipPathUnits="userSpaceOnUse" id="clipPath25">
                <path d="M595 45 L671 45 L671 91 L595 91 L595 45 Z"/>
            </clipPath>
            <clipPath clipPathUnits="userSpaceOnUse" id="clipPath26">
                <path d="M589 39 L692 39 L692 101 L589 101 L589 39 Z"/>
            </clipPath>
            <clipPath clipPathUnits="userSpaceOnUse" id="clipPath27">
                <path d="M630 400 L630 459 L730 459 L730 412 L718 400 Z"/>
            </clipPath>
            <clipPath clipPathUnits="userSpaceOnUse" id="clipPath28">
                <path d="M635 405 L707 405 L707 451 L635 451 L635 405 Z"/>
            </clipPath>
            <clipPath clipPathUnits="userSpaceOnUse" id="clipPath29">
                <path d="M629 399 L732 399 L732 461 L629 461 L629 399 Z"/>
            </clipPath>
            <clipPath clipPathUnits="userSpaceOnUse" id="clipPath30">
                <path d="M950 500 L950 559 L969 559 L969 500 Z"/>
            </clipPath>
            <clipPath clipPathUnits="userSpaceOnUse" id="clipPath31">
                <path d="M949 499 L971 499 L971 561 L949 561 L949 499 Z"/>
            </clipPath>
            <clipPath clipPathUnits="userSpaceOnUse" id="clipPath32">
                <path d="M909 9 L1011 9 L1011 826 L909 826 L909 9 Z"/>
            </clipPath>
            <clipPath clipPathUnits="userSpaceOnUse" id="clipPath33">
                <path d="M910 10 L910 824 L1009 824 L1009 10 Z"/>
            </clipPath>
            <clipPath clipPathUnits="userSpaceOnUse" id="clipPath34">
                <path d="M924 12 L998 12 L998 25 L924 25 L924 12 Z"/>
            </clipPath>
            <clipPath clipPathUnits="userSpaceOnUse" id="clipPath35">
                <path d="M390 60 L390 126 L470 126 L470 72 L458 60 Z"/>
            </clipPath>
            <clipPath clipPathUnits="userSpaceOnUse" id="clipPath36">
                <path d="M395 65 L447 65 L447 122 L395 122 L395 65 Z"/>
            </clipPath>
            <clipPath clipPathUnits="userSpaceOnUse" id="clipPath37">
                <path d="M389 59 L472 59 L472 128 L389 128 L389 59 Z"/>
            </clipPath>
            <clipPath clipPathUnits="userSpaceOnUse" id="clipPath38">
                <path d="M-1 -1 L1155 -1 L1155 1036 L-1 1036 L-1 -1 Z"/>
            </clipPath>
            <clipPath clipPathUnits="userSpaceOnUse" id="clipPath39">
                <path d="M193 121 L249 121 L249 134 L193 134 L193 121 Z"/>
            </clipPath>
            <clipPath clipPathUnits="userSpaceOnUse" id="clipPath40">
                <path d="M293 133 L312 133 L312 148 L293 148 L293 133 Z"/>
            </clipPath>
            <clipPath clipPathUnits="userSpaceOnUse" id="clipPath41">
                <path d="M167 201 L275 201 L275 214 L167 214 L167 201 Z"/>
            </clipPath>
            <clipPath clipPathUnits="userSpaceOnUse" id="clipPath42">
                <path d="M293 213 L312 213 L312 228 L293 228 L293 213 Z"/>
            </clipPath>
            <clipPath clipPathUnits="userSpaceOnUse" id="clipPath43">
                <path d="M189 827 L249 827 L249 840 L189 840 L189 827 Z"/>
            </clipPath>
            <clipPath clipPathUnits="userSpaceOnUse" id="clipPath44">
                <path d="M129 813 L148 813 L148 828 L129 828 L129 813 Z"/>
            </clipPath>
            <clipPath clipPathUnits="userSpaceOnUse" id="clipPath45">
                <path d="M375 274 L489 274 L489 287 L375 287 L375 274 Z"/>
            </clipPath>
            <clipPath clipPathUnits="userSpaceOnUse" id="clipPath46">
                <path d="M309 313 L328 313 L328 328 L309 328 L309 313 Z"/>
            </clipPath>
            <clipPath clipPathUnits="userSpaceOnUse" id="clipPath47">
                <path d="M424 321 L479 321 L479 334 L424 334 L424 321 Z"/>
            </clipPath>
            <clipPath clipPathUnits="userSpaceOnUse" id="clipPath48">
                <path d="M553 333 L572 333 L572 348 L553 348 L553 333 Z"/>
            </clipPath>
            <clipPath clipPathUnits="userSpaceOnUse" id="clipPath49">
                <path d="M502 481 L620 481 L620 494 L502 494 L502 481 Z"/>
            </clipPath>
            <clipPath clipPathUnits="userSpaceOnUse" id="clipPath50">
                <path d="M773 493 L792 493 L792 508 L773 508 L773 493 Z"/>
            </clipPath>
            <clipPath clipPathUnits="userSpaceOnUse" id="clipPath51">
                <path d="M375 694 L446 694 L446 707 L375 707 L375 694 Z"/>
            </clipPath>
            <clipPath clipPathUnits="userSpaceOnUse" id="clipPath52">
                <path d="M309 733 L328 733 L328 748 L309 748 L309 733 Z"/>
            </clipPath>
            <clipPath clipPathUnits="userSpaceOnUse" id="clipPath53">
                <path d="M421 427 L477 427 L477 440 L421 440 L421 427 Z"/>
            </clipPath>
            <clipPath clipPathUnits="userSpaceOnUse" id="clipPath54">
                <path d="M329 413 L348 413 L348 428 L329 428 L329 413 Z"/>
            </clipPath>
            <clipPath clipPathUnits="userSpaceOnUse" id="clipPath55">
                <path d="M461 567 L658 567 L658 580 L461 580 L461 567 Z"/>
            </clipPath>
            <clipPath clipPathUnits="userSpaceOnUse" id="clipPath56">
                <path d="M329 553 L348 553 L348 568 L329 568 L329 553 Z"/>
            </clipPath>
            <clipPath clipPathUnits="userSpaceOnUse" id="clipPath57">
                <path d="M832 481 L931 481 L931 494 L832 494 L832 481 Z"/>
            </clipPath>
            <clipPath clipPathUnits="userSpaceOnUse" id="clipPath58">
                <path d="M933 493 L952 493 L952 508 L933 508 L933 493 Z"/>
            </clipPath>
            <clipPath clipPathUnits="userSpaceOnUse" id="clipPath59">
                <path d="M837 567 L921 567 L921 580 L837 580 L837 567 Z"/>
            </clipPath>
            <clipPath clipPathUnits="userSpaceOnUse" id="clipPath60">
                <path d="M809 553 L828 553 L828 568 L809 568 L809 553 Z"/>
            </clipPath>
            <clipPath clipPathUnits="userSpaceOnUse" id="clipPath61">
                <path d="M1020 524 L1132 524 L1132 537 L1020 537 L1020 524 Z"/>
            </clipPath>
            <clipPath clipPathUnits="userSpaceOnUse" id="clipPath62">
                <path d="M949 553 L968 553 L968 568 L949 568 L949 553 Z"/>
            </clipPath>
        </defs>
        <g font-size="11" fill="url(#linearGradient1)" font-family="'.AppleSystemUIFont'" stroke-linejoin="round" stroke="url(#linearGradient1)" stroke-width="0" stroke-miterlimit="0">
            <rect x="110" y="140" clip-path="url(#clipPath1)" width="20" height="700" stroke="none"/>
        </g>
        <g stroke-width="1.1" font-size="11" font-family="'.AppleSystemUIFont'" stroke-linecap="butt">
            <rect x="110" y="140" clip-path="url(#clipPath2)" fill="none" width="19" rx="0" ry="0" height="699"/>
            <rect x="70" y="10" clip-path="url(#clipPath3)" fill="none" width="99" height="14"/>
            <line clip-path="url(#clipPath3)" fill="none" x1="120" x2="120" y1="24" y2="1024" stroke-dasharray="5,5"/>
            <rect x="70" y="10" clip-path="url(#clipPath4)" fill="url(#linearGradient2)" width="100" stroke-dasharray="5,5" opacity="0" height="1015" stroke="none"/>
            <text x="99" font-size="9" y="22" clip-path="url(#clipPath5)" stroke-dasharray="5,5" stroke="none" xml:space="preserve">Final User</text>
            <rect x="110" y="140" clip-path="url(#clipPath1)" fill="url(#linearGradient3)" width="20" stroke-dasharray="5,5" height="700" stroke="none"/>
            <rect x="110" y="140" clip-path="url(#clipPath2)" fill="none" width="19" rx="0" ry="0" height="699"/>
            <rect x="310" y="120" clip-path="url(#clipPath6)" fill="url(#linearGradient4)" width="20" height="700" stroke="none"/>
            <rect x="310" y="120" clip-path="url(#clipPath7)" fill="none" width="19" rx="0" ry="0" height="699"/>
            <rect x="270" y="10" clip-path="url(#clipPath8)" fill="none" width="99" height="14"/>
            <line clip-path="url(#clipPath8)" fill="none" x1="320" x2="320" y1="24" y2="1024" stroke-dasharray="5,5"/>
            <rect x="270" y="10" clip-path="url(#clipPath9)" fill="url(#linearGradient5)" width="100" stroke-dasharray="5,5" opacity="0" height="1015" stroke="none"/>
            <text x="278" font-size="9" y="22" clip-path="url(#clipPath10)" stroke-dasharray="5,5" stroke="none" xml:space="preserve">GUI SVG Generator</text>
            <rect x="310" y="120" clip-path="url(#clipPath6)" fill="url(#linearGradient6)" width="20" stroke-dasharray="5,5" height="700" stroke="none"/>
            <rect x="310" y="120" clip-path="url(#clipPath7)" fill="none" width="19" rx="0" ry="0" height="699"/>
            <rect x="570" y="340" clip-path="url(#clipPath11)" fill="url(#linearGradient7)" width="20" height="80" stroke="none"/>
            <rect x="570" y="340" clip-path="url(#clipPath12)" fill="none" width="19" rx="0" ry="0" height="79"/>
            <rect x="530" y="10" clip-path="url(#clipPath13)" fill="none" width="99" height="14"/>
            <line clip-path="url(#clipPath13)" fill="none" x1="580" x2="580" y1="24" y2="1024" stroke-dasharray="5,5"/>
            <rect x="530" y="10" clip-path="url(#clipPath14)" fill="url(#linearGradient8)" width="100" stroke-dasharray="5,5" opacity="0" height="1015" stroke="none"/>
            <text x="560" font-size="9" y="22" clip-path="url(#clipPath15)" stroke-dasharray="5,5" stroke="none" xml:space="preserve">Database</text>
            <rect x="570" y="340" clip-path="url(#clipPath11)" fill="url(#linearGradient9)" width="20" stroke-dasharray="5,5" height="80" stroke="none"/>
            <rect x="570" y="340" clip-path="url(#clipPath12)" fill="none" width="19" rx="0" ry="0" height="79"/>
            <rect x="790" y="500" clip-path="url(#clipPath16)" fill="url(#linearGradient10)" width="20" height="60" stroke="none"/>
            <rect x="790" y="500" clip-path="url(#clipPath17)" fill="none" width="19" rx="0" ry="0" height="59"/>
            <rect x="750" y="10" clip-path="url(#clipPath18)" fill="none" width="99" height="14"/>
            <line clip-path="url(#clipPath18)" fill="none" x1="800" x2="800" y1="24" y2="1024" stroke-dasharray="5,5"/>
            <rect x="750" y="10" clip-path="url(#clipPath19)" fill="url(#linearGradient11)" width="100" stroke-dasharray="5,5" opacity="0" height="1015" stroke="none"/>
            <text x="779" font-size="9" y="22" clip-path="url(#clipPath20)" stroke-dasharray="5,5" stroke="none" xml:space="preserve">Draw SVG</text>
            <rect x="790" y="500" clip-path="url(#clipPath16)" fill="url(#linearGradient12)" width="20" stroke-dasharray="5,5" height="60" stroke="none"/>
            <rect x="790" y="500" clip-path="url(#clipPath17)" fill="none" width="19" rx="0" ry="0" height="59"/>
            <rect x="10" y="80" clip-path="url(#clipPath21)" fill="url(#linearGradient13)" width="74" height="67" stroke="none"/>
            <text x="16" font-size="9" y="95" clip-path="url(#clipPath22)" stroke="none" xml:space="preserve">The user</text>
            <text x="16" font-size="9" y="106" clip-path="url(#clipPath22)" stroke="none" xml:space="preserve">chooses</text>
            <text x="16" font-size="9" y="117" clip-path="url(#clipPath22)" stroke="none" xml:space="preserve">preferences</text>
            <text x="16" font-size="9" y="128" clip-path="url(#clipPath22)" stroke="none" xml:space="preserve">and paper</text>
            <text x="16" font-size="9" y="139" clip-path="url(#clipPath22)" stroke="none" xml:space="preserve">format</text>
            <line clip-path="url(#clipPath23)" fill="none" x1="10" x2="71" y1="80" y2="80"/>
            <line clip-path="url(#clipPath23)" fill="none" x1="71" x2="83" y1="80" y2="92"/>
            <line clip-path="url(#clipPath23)" fill="none" x1="83" x2="83" y1="92" y2="146"/>
            <line clip-path="url(#clipPath23)" fill="none" x1="83" x2="10" y1="146" y2="146"/>
            <line clip-path="url(#clipPath23)" fill="none" x1="10" x2="10" y1="146" y2="80"/>
            <line clip-path="url(#clipPath23)" fill="none" x1="10" x2="10" y1="80" y2="80"/>
            <line clip-path="url(#clipPath23)" fill="none" x1="71" x2="71" y1="80" y2="92"/>
            <line clip-path="url(#clipPath23)" fill="none" x1="71" x2="84" y1="92" y2="92"/>
            <rect x="590" y="40" clip-path="url(#clipPath24)" fill="url(#linearGradient14)" width="101" height="60" stroke="none"/>
            <text x="596" font-size="9" y="55" clip-path="url(#clipPath25)" stroke="none" xml:space="preserve">Use model</text>
            <text x="596" font-size="9" y="66" clip-path="url(#clipPath25)" stroke="none" xml:space="preserve">package</text>
            <text x="596" font-size="9" y="77" clip-path="url(#clipPath25)" stroke="none" xml:space="preserve">beceause ROF is</text>
            <text x="596" font-size="9" y="88" clip-path="url(#clipPath25)" stroke="none" xml:space="preserve">not functionnal</text>
            <line clip-path="url(#clipPath26)" fill="none" x1="590" x2="678" y1="40" y2="40"/>
            <line clip-path="url(#clipPath26)" fill="none" x1="678" x2="690" y1="40" y2="52"/>
            <line clip-path="url(#clipPath26)" fill="none" x1="690" x2="690" y1="52" y2="99"/>
            <line clip-path="url(#clipPath26)" fill="none" x1="690" x2="590" y1="99" y2="99"/>
            <line clip-path="url(#clipPath26)" fill="none" x1="590" x2="590" y1="99" y2="40"/>
            <line clip-path="url(#clipPath26)" fill="none" x1="590" x2="590" y1="40" y2="40"/>
            <line clip-path="url(#clipPath26)" fill="none" x1="678" x2="678" y1="40" y2="52"/>
            <line clip-path="url(#clipPath26)" fill="none" x1="678" x2="691" y1="52" y2="52"/>
            <rect x="630" y="400" clip-path="url(#clipPath27)" fill="url(#linearGradient15)" width="101" height="60" stroke="none"/>
            <text x="636" font-size="9" y="415" clip-path="url(#clipPath28)" stroke="none" xml:space="preserve">Here SVG is an</text>
            <text x="636" font-size="9" y="426" clip-path="url(#clipPath28)" stroke="none" xml:space="preserve">attribute of the</text>
            <text x="636" font-size="9" y="437" clip-path="url(#clipPath28)" stroke="none" xml:space="preserve">GUI SVG</text>
            <text x="636" font-size="9" y="448" clip-path="url(#clipPath28)" stroke="none" xml:space="preserve">Generator class</text>
            <line clip-path="url(#clipPath29)" fill="none" x1="630" x2="718" y1="400" y2="400"/>
            <line clip-path="url(#clipPath29)" fill="none" x1="718" x2="730" y1="400" y2="412"/>
            <line clip-path="url(#clipPath29)" fill="none" x1="730" x2="730" y1="412" y2="459"/>
            <line clip-path="url(#clipPath29)" fill="none" x1="730" x2="630" y1="459" y2="459"/>
            <line clip-path="url(#clipPath29)" fill="none" x1="630" x2="630" y1="459" y2="400"/>
            <line clip-path="url(#clipPath29)" fill="none" x1="630" x2="630" y1="400" y2="400"/>
            <line clip-path="url(#clipPath29)" fill="none" x1="718" x2="718" y1="400" y2="412"/>
            <line clip-path="url(#clipPath29)" fill="none" x1="718" x2="731" y1="412" y2="412"/>
            <rect x="950" y="500" clip-path="url(#clipPath30)" fill="url(#linearGradient16)" width="20" height="60" stroke="none"/>
            <rect x="950" y="500" clip-path="url(#clipPath31)" fill="none" width="19" rx="0" ry="0" height="59"/>
            <rect x="910" y="10" clip-path="url(#clipPath32)" fill="none" width="99" height="14"/>
            <line clip-path="url(#clipPath32)" fill="none" x1="960" x2="960" y1="24" y2="824" stroke-dasharray="5,5"/>
            <rect x="910" y="10" clip-path="url(#clipPath33)" fill="url(#linearGradient17)" width="100" stroke-dasharray="5,5" opacity="0" height="815" stroke="none"/>
            <text x="925" font-size="9" y="22" clip-path="url(#clipPath34)" stroke-dasharray="5,5" stroke="none" xml:space="preserve">Responsive SVG</text>
            <rect x="950" y="500" clip-path="url(#clipPath30)" fill="url(#linearGradient18)" width="20" stroke-dasharray="5,5" height="60" stroke="none"/>
            <rect x="950" y="500" clip-path="url(#clipPath31)" fill="none" width="19" rx="0" ry="0" height="59"/>
            <rect x="390" y="60" clip-path="url(#clipPath35)" fill="url(#linearGradient19)" width="81" height="67" stroke="none"/>
            <text x="396" font-size="9" y="75" clip-path="url(#clipPath36)" stroke="none" xml:space="preserve">All settings</text>
            <text x="396" font-size="9" y="86" clip-path="url(#clipPath36)" stroke="none" xml:space="preserve">don't make</text>
            <text x="396" font-size="9" y="97" clip-path="url(#clipPath36)" stroke="none" xml:space="preserve">the SVG</text>
            <text x="396" font-size="9" y="108" clip-path="url(#clipPath36)" stroke="none" xml:space="preserve">responsive</text>
            <line clip-path="url(#clipPath37)" fill="none" x1="390" x2="458" y1="60" y2="60"/>
            <line clip-path="url(#clipPath37)" fill="none" x1="458" x2="470" y1="60" y2="72"/>
            <line clip-path="url(#clipPath37)" fill="none" x1="470" x2="470" y1="72" y2="126"/>
            <line clip-path="url(#clipPath37)" fill="none" x1="470" x2="390" y1="126" y2="126"/>
            <line clip-path="url(#clipPath37)" fill="none" x1="390" x2="390" y1="126" y2="60"/>
            <line clip-path="url(#clipPath37)" fill="none" x1="390" x2="390" y1="60" y2="60"/>
            <line clip-path="url(#clipPath37)" fill="none" x1="458" x2="458" y1="60" y2="72"/>
            <line clip-path="url(#clipPath37)" fill="none" x1="458" x2="471" y1="72" y2="72"/>
            <line clip-path="url(#clipPath38)" fill="none" text-rendering="optimizeLegibility" x1="130" x2="310" y1="140" y2="140"/>
            <text x="194" font-size="9" y="131" clip-path="url(#clipPath39)" text-rendering="optimizeLegibility" stroke="none" xml:space="preserve">Set Settings</text>
            <polygon text-rendering="optimizeLegibility" clip-path="url(#clipPath40)" points=" 310 140 294 146 294 134" stroke="none"/>
            <polygon fill="none" text-rendering="optimizeLegibility" clip-path="url(#clipPath40)" points=" 310 140 294 146 294 134"/>
            <line clip-path="url(#clipPath38)" fill="none" text-rendering="optimizeLegibility" x1="130" x2="310" y1="220" y2="220"/>
            <text x="168" font-size="9" y="211" clip-path="url(#clipPath41)" text-rendering="optimizeLegibility" stroke="none" xml:space="preserve">ButtonPush.addListener</text>
            <line clip-path="url(#clipPath42)" fill="none" text-rendering="optimizeLegibility" x1="294" x2="310" y1="226" y2="220"/>
            <line clip-path="url(#clipPath42)" fill="none" text-rendering="optimizeLegibility" x1="310" x2="294" y1="220" y2="214"/>
            <line clip-path="url(#clipPath38)" fill="none" text-rendering="optimizeLegibility" x1="310" x2="130" y1="820" y2="820" stroke-dasharray="6.6,3.3"/>
            <text x="190" font-size="9" y="837" clip-path="url(#clipPath43)" text-rendering="optimizeLegibility" stroke-dasharray="6.6,3.3" stroke="none" xml:space="preserve">SVG genered</text>
            <line clip-path="url(#clipPath44)" fill="none" text-rendering="optimizeLegibility" x1="146" x2="130" y1="814" y2="820"/>
            <line clip-path="url(#clipPath44)" fill="none" text-rendering="optimizeLegibility" x1="130" x2="146" y1="820" y2="826"/>
            <line clip-path="url(#clipPath38)" fill="none" text-rendering="optimizeLegibility" x1="430" x2="310" y1="60" y2="180" stroke-dasharray="6.6,3.3"/>
            <line clip-path="url(#clipPath38)" fill="none" text-rendering="optimizeLegibility" x1="310" x2="372" y1="240" y2="240"/>
            <line clip-path="url(#clipPath38)" fill="none" text-rendering="optimizeLegibility" x1="372" x2="372" y1="240" y2="320"/>
            <line clip-path="url(#clipPath38)" fill="none" text-rendering="optimizeLegibility" x1="372" x2="310" y1="320" y2="320"/>
            <text x="376" font-size="9" y="284" clip-path="url(#clipPath45)" text-rendering="optimizeLegibility" stroke="none" xml:space="preserve">Settings = news Setting()</text>
            <line clip-path="url(#clipPath46)" fill="none" text-rendering="optimizeLegibility" x1="326" x2="310" y1="314" y2="320"/>
            <line clip-path="url(#clipPath46)" fill="none" text-rendering="optimizeLegibility" x1="310" x2="326" y1="320" y2="326"/>
            <line clip-path="url(#clipPath38)" fill="none" text-rendering="optimizeLegibility" x1="330" x2="570" y1="340" y2="340"/>
            <text x="425" font-size="9" y="331" clip-path="url(#clipPath47)" text-rendering="optimizeLegibility" stroke="none" xml:space="preserve">ask for data</text>
            <line clip-path="url(#clipPath48)" fill="none" text-rendering="optimizeLegibility" x1="554" x2="570" y1="346" y2="340"/>
            <line clip-path="url(#clipPath48)" fill="none" text-rendering="optimizeLegibility" x1="570" x2="554" y1="340" y2="334"/>
            <line clip-path="url(#clipPath38)" fill="none" text-rendering="optimizeLegibility" x1="330" x2="790" y1="500" y2="500"/>
            <text x="503" font-size="9" y="491" clip-path="url(#clipPath49)" text-rendering="optimizeLegibility" stroke="none" xml:space="preserve">SVG.Paint(datas, settings)</text>
            <line clip-path="url(#clipPath50)" fill="none" text-rendering="optimizeLegibility" x1="774" x2="790" y1="506" y2="500"/>
            <line clip-path="url(#clipPath50)" fill="none" text-rendering="optimizeLegibility" x1="790" x2="774" y1="500" y2="494"/>
            <line clip-path="url(#clipPath38)" fill="none" text-rendering="optimizeLegibility" x1="310" x2="372" y1="660" y2="660"/>
            <line clip-path="url(#clipPath38)" fill="none" text-rendering="optimizeLegibility" x1="372" x2="372" y1="660" y2="740"/>
            <line clip-path="url(#clipPath38)" fill="none" text-rendering="optimizeLegibility" x1="372" x2="310" y1="740" y2="740"/>
            <text x="376" font-size="9" y="704" clip-path="url(#clipPath51)" text-rendering="optimizeLegibility" stroke="none" xml:space="preserve">file = new File()</text>
            <line clip-path="url(#clipPath52)" fill="none" text-rendering="optimizeLegibility" x1="326" x2="310" y1="734" y2="740"/>
            <line clip-path="url(#clipPath52)" fill="none" text-rendering="optimizeLegibility" x1="310" x2="326" y1="740" y2="746"/>
            <line clip-path="url(#clipPath38)" fill="none" text-rendering="optimizeLegibility" x1="50" x2="233" y1="147" y2="140" stroke-dasharray="6.6,3.3"/>
            <line clip-path="url(#clipPath38)" fill="none" text-rendering="optimizeLegibility" x1="570" x2="330" y1="420" y2="420" stroke-dasharray="6.6,3.3"/>
            <text x="422" font-size="9" y="437" clip-path="url(#clipPath53)" text-rendering="optimizeLegibility" stroke-dasharray="6.6,3.3" stroke="none" xml:space="preserve">return datas</text>
            <line clip-path="url(#clipPath54)" fill="none" text-rendering="optimizeLegibility" x1="346" x2="330" y1="414" y2="420"/>
            <line clip-path="url(#clipPath54)" fill="none" text-rendering="optimizeLegibility" x1="330" x2="346" y1="420" y2="426"/>
            <line clip-path="url(#clipPath38)" fill="none" text-rendering="optimizeLegibility" x1="790" x2="330" y1="560" y2="560" stroke-dasharray="6.6,3.3"/>
            <text x="462" font-size="9" y="577" clip-path="url(#clipPath55)" text-rendering="optimizeLegibility" stroke-dasharray="6.6,3.3" stroke="none" xml:space="preserve">draw admission, formation, responsable, etc</text>
            <line clip-path="url(#clipPath56)" fill="none" text-rendering="optimizeLegibility" x1="346" x2="330" y1="554" y2="560"/>
            <line clip-path="url(#clipPath56)" fill="none" text-rendering="optimizeLegibility" x1="330" x2="346" y1="560" y2="566"/>
            <line clip-path="url(#clipPath38)" fill="none" text-rendering="optimizeLegibility" x1="810" x2="950" y1="500" y2="500"/>
            <text x="833" font-size="9" y="491" clip-path="url(#clipPath57)" text-rendering="optimizeLegibility" stroke="none" xml:space="preserve">defineObjectsPosition</text>
            <line clip-path="url(#clipPath58)" fill="none" text-rendering="optimizeLegibility" x1="934" x2="950" y1="506" y2="500"/>
            <line clip-path="url(#clipPath58)" fill="none" text-rendering="optimizeLegibility" x1="950" x2="934" y1="500" y2="494"/>
            <line clip-path="url(#clipPath38)" fill="none" text-rendering="optimizeLegibility" x1="670" x2="788" y1="460" y2="500" stroke-dasharray="6.6,3.3"/>
            <line clip-path="url(#clipPath38)" fill="none" text-rendering="optimizeLegibility" x1="950" x2="810" y1="560" y2="560" stroke-dasharray="6.6,3.3"/>
            <text x="838" font-size="9" y="577" clip-path="url(#clipPath59)" text-rendering="optimizeLegibility" stroke-dasharray="6.6,3.3" stroke="none" xml:space="preserve">associatePositions</text>
            <line clip-path="url(#clipPath60)" fill="none" text-rendering="optimizeLegibility" x1="826" x2="810" y1="554" y2="560"/>
            <line clip-path="url(#clipPath60)" fill="none" text-rendering="optimizeLegibility" x1="810" x2="826" y1="560" y2="566"/>
            <line clip-path="url(#clipPath38)" fill="none" text-rendering="optimizeLegibility" x1="950" x2="1017" y1="500" y2="500"/>
            <line clip-path="url(#clipPath38)" fill="none" text-rendering="optimizeLegibility" x1="1017" x2="1017" y1="500" y2="560"/>
            <line clip-path="url(#clipPath38)" fill="none" text-rendering="optimizeLegibility" x1="1017" x2="950" y1="560" y2="560"/>
            <text x="1021" font-size="9" y="534" clip-path="url(#clipPath61)" text-rendering="optimizeLegibility" stroke="none" xml:space="preserve">controlSettings(settings)</text>
            <line clip-path="url(#clipPath62)" fill="none" text-rendering="optimizeLegibility" x1="966" x2="950" y1="554" y2="560"/>
            <line clip-path="url(#clipPath62)" fill="none" text-rendering="optimizeLegibility" x1="950" x2="966" y1="560" y2="566"/>
        </g>
    </g>
</svg>
