<?xml version="1.0" encoding="UTF-8"?><svg xmlns="http://www.w3.org/2000/svg" xmlns:xlink="http://www.w3.org/1999/xlink" stroke-dasharray="none" shape-rendering="auto" font-family="'Dialog'" width="1035" text-rendering="auto" fill-opacity="1" contentScriptType="text/ecmascript" color-interpolation="auto" color-rendering="auto" preserveAspectRatio="xMidYMid meet" font-size="12" viewBox="0 0 1035 1020" fill="black" stroke="black" image-rendering="auto" stroke-miterlimit="10" zoomAndPan="magnify" version="1.0" stroke-linecap="square" stroke-linejoin="miter" contentStyleType="text/css" font-style="normal" height="1020" stroke-width="1" stroke-dashoffset="0" font-weight="normal" stroke-opacity="1">
    <!--Generated by the Batik Graphics2D SVG Generator-->
    <defs id="genericDefs"/>
    <g>
        <defs id="defs1">
            <linearGradient x1="10" x2="10" y1="10" gradientUnits="userSpaceOnUse" y2="767" xlink:type="simple" xlink:actuate="onLoad" id="linearGradient1" xlink:show="other" spreadMethod="pad">
                <stop stop-opacity="1" stop-color="white" offset="0%"/>
                <stop stop-opacity="1" stop-color="white" offset="100%"/>
            </linearGradient>
            <linearGradient x1="80" x2="80" y1="44" gradientUnits="userSpaceOnUse" y2="735" xlink:type="simple" xlink:actuate="onLoad" id="linearGradient2" xlink:show="other" spreadMethod="pad">
                <stop stop-opacity="1" stop-color="white" offset="0%"/>
                <stop stop-opacity="1" stop-color="rgb(195,209,213)" offset="100%"/>
            </linearGradient>
            <linearGradient x1="120" x2="120" y1="134" gradientUnits="userSpaceOnUse" y2="674" xlink:type="simple" xlink:actuate="onLoad" id="linearGradient3" xlink:show="other" spreadMethod="pad">
                <stop stop-opacity="1" stop-color="white" offset="0%"/>
                <stop stop-opacity="1" stop-color="rgb(195,209,213)" offset="100%"/>
            </linearGradient>
            <linearGradient x1="310" x2="310" y1="44" gradientUnits="userSpaceOnUse" y2="735" xlink:type="simple" xlink:actuate="onLoad" id="linearGradient4" xlink:show="other" spreadMethod="pad">
                <stop stop-opacity="1" stop-color="white" offset="0%"/>
                <stop stop-opacity="1" stop-color="rgb(195,209,213)" offset="100%"/>
            </linearGradient>
            <linearGradient x1="350" x2="350" y1="134" gradientUnits="userSpaceOnUse" y2="674" xlink:type="simple" xlink:actuate="onLoad" id="linearGradient5" xlink:show="other" spreadMethod="pad">
                <stop stop-opacity="1" stop-color="white" offset="0%"/>
                <stop stop-opacity="1" stop-color="rgb(195,209,213)" offset="100%"/>
            </linearGradient>
            <linearGradient x1="550" x2="550" y1="44" gradientUnits="userSpaceOnUse" y2="735" xlink:type="simple" xlink:actuate="onLoad" id="linearGradient6" xlink:show="other" spreadMethod="pad">
                <stop stop-opacity="1" stop-color="white" offset="0%"/>
                <stop stop-opacity="1" stop-color="rgb(195,209,213)" offset="100%"/>
            </linearGradient>
            <linearGradient x1="590" x2="590" y1="154" gradientUnits="userSpaceOnUse" y2="674" xlink:type="simple" xlink:actuate="onLoad" id="linearGradient7" xlink:show="other" spreadMethod="pad">
                <stop stop-opacity="1" stop-color="white" offset="0%"/>
                <stop stop-opacity="1" stop-color="rgb(195,209,213)" offset="100%"/>
            </linearGradient>
            <linearGradient x1="790" x2="790" y1="44" gradientUnits="userSpaceOnUse" y2="735" xlink:type="simple" xlink:actuate="onLoad" id="linearGradient8" xlink:show="other" spreadMethod="pad">
                <stop stop-opacity="1" stop-color="white" offset="0%"/>
                <stop stop-opacity="1" stop-color="rgb(195,209,213)" offset="100%"/>
            </linearGradient>
            <linearGradient x1="830" x2="830" y1="254" gradientUnits="userSpaceOnUse" y2="354" xlink:type="simple" xlink:actuate="onLoad" id="linearGradient9" xlink:show="other" spreadMethod="pad">
                <stop stop-opacity="1" stop-color="white" offset="0%"/>
                <stop stop-opacity="1" stop-color="rgb(195,209,213)" offset="100%"/>
            </linearGradient>
            <linearGradient x1="920" x2="920" y1="44" gradientUnits="userSpaceOnUse" y2="735" xlink:type="simple" xlink:actuate="onLoad" id="linearGradient10" xlink:show="other" spreadMethod="pad">
                <stop stop-opacity="1" stop-color="white" offset="0%"/>
                <stop stop-opacity="1" stop-color="rgb(195,209,213)" offset="100%"/>
            </linearGradient>
            <linearGradient x1="960" x2="960" y1="194" gradientUnits="userSpaceOnUse" y2="215" xlink:type="simple" xlink:actuate="onLoad" id="linearGradient11" xlink:show="other" spreadMethod="pad">
                <stop stop-opacity="1" stop-color="white" offset="0%"/>
                <stop stop-opacity="1" stop-color="rgb(195,209,213)" offset="100%"/>
            </linearGradient>
            <linearGradient x1="170" x2="170" y1="514" gradientUnits="userSpaceOnUse" y2="601" xlink:type="simple" xlink:actuate="onLoad" id="linearGradient12" xlink:show="other" spreadMethod="pad">
                <stop stop-opacity="1" stop-color="rgb(255,255,204)" offset="0%"/>
                <stop stop-opacity="1" stop-color="white" offset="100%"/>
            </linearGradient>
            <clipPath clipPathUnits="userSpaceOnUse" id="clipPath1">
                <path d="M10 10 L10 766 L1024 766 L1024 10 Z"/>
            </clipPath>
            <clipPath clipPathUnits="userSpaceOnUse" id="clipPath2">
                <path d="M7 7 L1028 7 L1028 770 L7 770 L7 7 Z"/>
            </clipPath>
            <clipPath clipPathUnits="userSpaceOnUse" id="clipPath3">
                <path d="M15 12 L96 12 L96 29 L15 29 L15 12 Z"/>
            </clipPath>
            <clipPath clipPathUnits="userSpaceOnUse" id="clipPath4">
                <path d="M79 43 L181 43 L181 736 L79 736 L79 43 Z"/>
            </clipPath>
            <clipPath clipPathUnits="userSpaceOnUse" id="clipPath5">
                <path d="M80 44 L80 734 L179 734 L179 44 Z"/>
            </clipPath>
            <clipPath clipPathUnits="userSpaceOnUse" id="clipPath6">
                <path d="M104 46 L158 46 L158 63 L104 63 L104 46 Z"/>
            </clipPath>
            <clipPath clipPathUnits="userSpaceOnUse" id="clipPath7">
                <path d="M120 134 L120 673 L139 673 L139 134 Z"/>
            </clipPath>
            <clipPath clipPathUnits="userSpaceOnUse" id="clipPath8">
                <path d="M309 43 L411 43 L411 736 L309 736 L309 43 Z"/>
            </clipPath>
            <clipPath clipPathUnits="userSpaceOnUse" id="clipPath9">
                <path d="M310 44 L310 734 L409 734 L409 44 Z"/>
            </clipPath>
            <clipPath clipPathUnits="userSpaceOnUse" id="clipPath10">
                <path d="M310 46 L411 46 L411 63 L310 63 L310 46 Z"/>
            </clipPath>
            <clipPath clipPathUnits="userSpaceOnUse" id="clipPath11">
                <path d="M350 134 L350 673 L369 673 L369 134 Z"/>
            </clipPath>
            <clipPath clipPathUnits="userSpaceOnUse" id="clipPath12">
                <path d="M349 133 L371 133 L371 675 L349 675 L349 133 Z"/>
            </clipPath>
            <clipPath clipPathUnits="userSpaceOnUse" id="clipPath13">
                <path d="M549 43 L651 43 L651 736 L549 736 L549 43 Z"/>
            </clipPath>
            <clipPath clipPathUnits="userSpaceOnUse" id="clipPath14">
                <path d="M550 44 L550 734 L649 734 L649 44 Z"/>
            </clipPath>
            <clipPath clipPathUnits="userSpaceOnUse" id="clipPath15">
                <path d="M575 46 L626 46 L626 63 L575 63 L575 46 Z"/>
            </clipPath>
            <clipPath clipPathUnits="userSpaceOnUse" id="clipPath16">
                <path d="M590 154 L590 673 L609 673 L609 154 Z"/>
            </clipPath>
            <clipPath clipPathUnits="userSpaceOnUse" id="clipPath17">
                <path d="M589 153 L611 153 L611 675 L589 675 L589 153 Z"/>
            </clipPath>
            <clipPath clipPathUnits="userSpaceOnUse" id="clipPath18">
                <path d="M789 43 L891 43 L891 736 L789 736 L789 43 Z"/>
            </clipPath>
            <clipPath clipPathUnits="userSpaceOnUse" id="clipPath19">
                <path d="M790 44 L790 734 L889 734 L889 44 Z"/>
            </clipPath>
            <clipPath clipPathUnits="userSpaceOnUse" id="clipPath20">
                <path d="M800 46 L881 46 L881 63 L800 63 L800 46 Z"/>
            </clipPath>
            <clipPath clipPathUnits="userSpaceOnUse" id="clipPath21">
                <path d="M830 254 L830 353 L849 353 L849 254 Z"/>
            </clipPath>
            <clipPath clipPathUnits="userSpaceOnUse" id="clipPath22">
                <path d="M829 253 L851 253 L851 355 L829 355 L829 253 Z"/>
            </clipPath>
            <clipPath clipPathUnits="userSpaceOnUse" id="clipPath23">
                <path d="M919 43 L1021 43 L1021 736 L919 736 L919 43 Z"/>
            </clipPath>
            <clipPath clipPathUnits="userSpaceOnUse" id="clipPath24">
                <path d="M920 44 L920 734 L1019 734 L1019 44 Z"/>
            </clipPath>
            <clipPath clipPathUnits="userSpaceOnUse" id="clipPath25">
                <path d="M928 46 L1014 46 L1014 63 L928 63 L928 46 Z"/>
            </clipPath>
            <clipPath clipPathUnits="userSpaceOnUse" id="clipPath26">
                <path d="M960 194 L960 214 L979 214 L979 194 Z"/>
            </clipPath>
            <clipPath clipPathUnits="userSpaceOnUse" id="clipPath27">
                <path d="M959 193 L981 193 L981 216 L959 216 L959 193 Z"/>
            </clipPath>
            <clipPath clipPathUnits="userSpaceOnUse" id="clipPath28">
                <path d="M170 514 L170 600 L290 600 L290 526 L278 514 Z"/>
            </clipPath>
            <clipPath clipPathUnits="userSpaceOnUse" id="clipPath29">
                <path d="M175 519 L264 519 L264 596 L175 596 L175 519 Z"/>
            </clipPath>
            <clipPath clipPathUnits="userSpaceOnUse" id="clipPath30">
                <path d="M169 513 L292 513 L292 602 L169 602 L169 513 Z"/>
            </clipPath>
            <clipPath clipPathUnits="userSpaceOnUse" id="clipPath31">
                <path d="M9 9 L1026 9 L1026 768 L9 768 L9 9 Z"/>
            </clipPath>
            <clipPath clipPathUnits="userSpaceOnUse" id="clipPath32">
                <path d="M-1 -1 L1036 -1 L1036 1021 L-1 1021 L-1 -1 Z"/>
            </clipPath>
            <clipPath clipPathUnits="userSpaceOnUse" id="clipPath33">
                <path d="M358 359 L610 359 L610 376 L358 376 L358 359 Z"/>
            </clipPath>
            <clipPath clipPathUnits="userSpaceOnUse" id="clipPath34">
                <path d="M139 347 L158 347 L158 362 L139 362 L139 347 Z"/>
            </clipPath>
            <clipPath clipPathUnits="userSpaceOnUse" id="clipPath35">
                <path d="M205 399 L284 399 L284 416 L205 416 L205 399 Z"/>
            </clipPath>
            <clipPath clipPathUnits="userSpaceOnUse" id="clipPath36">
                <path d="M139 387 L158 387 L158 402 L139 402 L139 387 Z"/>
            </clipPath>
            <clipPath clipPathUnits="userSpaceOnUse" id="clipPath37">
                <path d="M696 219 L873 219 L873 236 L696 236 L696 219 Z"/>
            </clipPath>
            <clipPath clipPathUnits="userSpaceOnUse" id="clipPath38">
                <path d="M609 207 L628 207 L628 222 L609 222 L609 207 Z"/>
            </clipPath>
            <clipPath clipPathUnits="userSpaceOnUse" id="clipPath39">
                <path d="M112 113 L380 113 L380 130 L112 130 L112 113 Z"/>
            </clipPath>
            <clipPath clipPathUnits="userSpaceOnUse" id="clipPath40">
                <path d="M333 127 L352 127 L352 142 L333 142 L333 127 Z"/>
            </clipPath>
            <clipPath clipPathUnits="userSpaceOnUse" id="clipPath41">
                <path d="M400 173 L932 173 L932 190 L400 190 L400 173 Z"/>
            </clipPath>
            <clipPath clipPathUnits="userSpaceOnUse" id="clipPath42">
                <path d="M943 187 L962 187 L962 202 L943 202 L943 187 Z"/>
            </clipPath>
            <clipPath clipPathUnits="userSpaceOnUse" id="clipPath43">
                <path d="M535 233 L668 233 L668 250 L535 250 L535 233 Z"/>
            </clipPath>
            <clipPath clipPathUnits="userSpaceOnUse" id="clipPath44">
                <path d="M813 247 L832 247 L832 262 L813 262 L813 247 Z"/>
            </clipPath>
            <clipPath clipPathUnits="userSpaceOnUse" id="clipPath45">
                <path d="M411 133 L551 133 L551 150 L411 150 L411 133 Z"/>
            </clipPath>
            <clipPath clipPathUnits="userSpaceOnUse" id="clipPath46">
                <path d="M573 147 L592 147 L592 162 L573 162 L573 147 Z"/>
            </clipPath>
            <clipPath clipPathUnits="userSpaceOnUse" id="clipPath47">
                <path d="M623 299 L815 299 L815 316 L623 316 L623 299 Z"/>
            </clipPath>
            <clipPath clipPathUnits="userSpaceOnUse" id="clipPath48">
                <path d="M609 287 L628 287 L628 302 L609 302 L609 287 Z"/>
            </clipPath>
        </defs>
        <g fill="url(#linearGradient1)" font-family="'Segoe UI'" stroke-linejoin="round" stroke="url(#linearGradient1)" stroke-width="0" stroke-miterlimit="0">
            <rect x="10" y="10" clip-path="url(#clipPath1)" width="1015" height="757" stroke="none"/>
        </g>
        <g stroke-width="0.1" font-family="'Segoe UI'" stroke-linecap="butt">
            <line clip-path="url(#clipPath2)" fill="none" x1="109" x2="109" y1="10" y2="22"/>
            <line clip-path="url(#clipPath2)" fill="none" x1="109" x2="109" y1="22" y2="22"/>
            <line clip-path="url(#clipPath2)" fill="none" x1="109" x2="103" y1="22" y2="28"/>
            <line clip-path="url(#clipPath2)" fill="none" x1="103" x2="103" y1="28" y2="28"/>
            <line clip-path="url(#clipPath2)" fill="none" x1="103" x2="10" y1="28" y2="28"/>
            <text xml:space="preserve" x="16" y="26" clip-path="url(#clipPath3)" stroke="none">SequenceSVG  </text>
            <rect x="80" y="44" clip-path="url(#clipPath4)" fill="none" width="99" height="18" stroke-width="1.1"/>
            <line clip-path="url(#clipPath4)" fill="none" x1="130" x2="130" y1="62" y2="734" stroke-dasharray="5,5" stroke-width="1.1"/>
        </g>
        <g stroke-linecap="butt" fill="url(#linearGradient2)" font-family="'Segoe UI'" stroke-dasharray="5,5" stroke="url(#linearGradient2)" stroke-width="1.1">
            <rect x="80" y="44" clip-path="url(#clipPath5)" width="100" opacity="0" height="691" stroke="none"/>
            <text x="105" y="60" clip-path="url(#clipPath6)" fill="black" stroke="none" xml:space="preserve">Final User</text>
            <rect x="120" y="134" clip-path="url(#clipPath7)" fill="url(#linearGradient3)" width="20" height="540" stroke="none"/>
            <rect x="310" y="44" clip-path="url(#clipPath8)" fill="none" width="99" stroke-dasharray="none" height="18" stroke="black"/>
            <line clip-path="url(#clipPath8)" fill="none" x1="360" x2="360" y1="62" y2="734" stroke="black"/>
            <rect x="310" y="44" clip-path="url(#clipPath9)" fill="url(#linearGradient4)" width="100" opacity="0" height="691" stroke="none"/>
            <text x="311" y="60" clip-path="url(#clipPath10)" fill="black" stroke="none" xml:space="preserve">GUI SVG Generator</text>
            <rect x="350" y="134" clip-path="url(#clipPath11)" fill="url(#linearGradient5)" width="20" height="540" stroke="none"/>
            <rect x="350" y="134" clip-path="url(#clipPath12)" fill="none" width="19" stroke-dasharray="none" rx="0" ry="0" height="539" stroke="black"/>
            <rect x="550" y="44" clip-path="url(#clipPath13)" fill="none" width="99" stroke-dasharray="none" height="18" stroke="black"/>
            <line clip-path="url(#clipPath13)" fill="none" x1="600" x2="600" y1="62" y2="734" stroke="black"/>
            <rect x="550" y="44" clip-path="url(#clipPath14)" fill="url(#linearGradient6)" width="100" opacity="0" height="691" stroke="none"/>
            <text x="576" y="60" clip-path="url(#clipPath15)" fill="black" stroke="none" xml:space="preserve">Database</text>
            <rect x="590" y="154" clip-path="url(#clipPath16)" fill="url(#linearGradient7)" width="20" height="520" stroke="none"/>
            <rect x="590" y="154" clip-path="url(#clipPath17)" fill="none" width="19" stroke-dasharray="none" rx="0" ry="0" height="519" stroke="black"/>
            <rect x="790" y="44" clip-path="url(#clipPath18)" fill="none" width="99" stroke-dasharray="none" height="18" stroke="black"/>
            <line clip-path="url(#clipPath18)" fill="none" x1="840" x2="840" y1="62" y2="734" stroke="black"/>
            <rect x="790" y="44" clip-path="url(#clipPath19)" fill="url(#linearGradient8)" width="100" opacity="0" height="691" stroke="none"/>
            <text x="801" y="60" clip-path="url(#clipPath20)" fill="black" stroke="none" xml:space="preserve">DrawerSVGGen</text>
            <rect x="830" y="254" clip-path="url(#clipPath21)" fill="url(#linearGradient9)" width="20" height="100" stroke="none"/>
            <rect x="830" y="254" clip-path="url(#clipPath22)" fill="none" width="19" stroke-dasharray="none" rx="0" ry="0" height="99" stroke="black"/>
            <rect x="920" y="44" clip-path="url(#clipPath23)" fill="none" width="99" stroke-dasharray="none" height="18" stroke="black"/>
            <line clip-path="url(#clipPath23)" fill="none" x1="970" x2="970" y1="62" y2="734" stroke="black"/>
            <rect x="920" y="44" clip-path="url(#clipPath24)" fill="url(#linearGradient10)" width="100" opacity="0" height="691" stroke="none"/>
            <text x="929" y="60" clip-path="url(#clipPath25)" fill="black" stroke="none" xml:space="preserve">Responsive SVG</text>
            <rect x="960" y="194" clip-path="url(#clipPath26)" fill="url(#linearGradient11)" width="20" height="21" stroke="none"/>
            <rect x="960" y="194" clip-path="url(#clipPath27)" fill="none" width="19" stroke-dasharray="none" rx="0" ry="0" height="20" stroke="black"/>
            <rect x="170" y="514" clip-path="url(#clipPath28)" fill="url(#linearGradient12)" width="121" stroke-dasharray="none" height="87" stroke="none"/>
            <text x="176" y="533" clip-path="url(#clipPath29)" fill="black" stroke-dasharray="none" stroke="none" xml:space="preserve">User can modify</text>
            <text x="176" y="548" clip-path="url(#clipPath29)" fill="black" stroke-dasharray="none" stroke="none" xml:space="preserve">his preferences</text>
            <text x="176" y="563" clip-path="url(#clipPath29)" fill="black" stroke-dasharray="none" stroke="none" xml:space="preserve">and click on</text>
            <text x="176" y="578" clip-path="url(#clipPath29)" fill="black" stroke-dasharray="none" stroke="none" xml:space="preserve">"Générer le SVG"</text>
            <text x="176" y="593" clip-path="url(#clipPath29)" fill="black" stroke-dasharray="none" stroke="none" xml:space="preserve">again</text>
            <line clip-path="url(#clipPath30)" fill="none" x1="170" x2="278" y1="514" y2="514" stroke-dasharray="none" stroke="black"/>
            <line clip-path="url(#clipPath30)" fill="none" x1="278" x2="290" y1="514" y2="526" stroke-dasharray="none" stroke="black"/>
            <line clip-path="url(#clipPath30)" fill="none" x1="290" x2="290" y1="526" y2="600" stroke-dasharray="none" stroke="black"/>
            <line clip-path="url(#clipPath30)" fill="none" x1="290" x2="170" y1="600" y2="600" stroke-dasharray="none" stroke="black"/>
            <line clip-path="url(#clipPath30)" fill="none" x1="170" x2="170" y1="600" y2="514" stroke-dasharray="none" stroke="black"/>
            <line clip-path="url(#clipPath30)" fill="none" x1="170" x2="170" y1="514" y2="514" stroke-dasharray="none" stroke="black"/>
            <line clip-path="url(#clipPath30)" fill="none" x1="278" x2="278" y1="514" y2="526" stroke-dasharray="none" stroke="black"/>
            <line clip-path="url(#clipPath30)" fill="none" x1="278" x2="291" y1="526" y2="526" stroke-dasharray="none" stroke="black"/>
            <rect x="10" y="10" clip-path="url(#clipPath31)" fill="none" width="1014" stroke-dasharray="none" rx="0" ry="0" height="756" stroke="black"/>
        </g>
        <g text-rendering="optimizeLegibility" stroke-width="1.1" font-family="'Segoe UI'" stroke-linecap="butt">
            <line clip-path="url(#clipPath32)" fill="none" x1="830" x2="140" y1="354" y2="354"/>
            <text xml:space="preserve" x="359" y="373" clip-path="url(#clipPath33)" stroke="none">Create the SVG file on the final User's computer</text>
            <polygon clip-path="url(#clipPath34)" points=" 140 354 156 348 156 360" stroke="none"/>
            <polygon fill="none" clip-path="url(#clipPath34)" points=" 140 354 156 348 156 360"/>
            <line clip-path="url(#clipPath32)" fill="none" x1="350" x2="140" y1="394" y2="394"/>
            <text xml:space="preserve" x="206" y="413" clip-path="url(#clipPath35)" stroke="none">Open the SVG </text>
            <polygon clip-path="url(#clipPath36)" points=" 140 394 156 388 156 400" stroke="none"/>
            <polygon fill="none" clip-path="url(#clipPath36)" points=" 140 394 156 388 156 400"/>
            <line clip-path="url(#clipPath32)" fill="none" x1="960" x2="610" y1="214" y2="214"/>
            <text xml:space="preserve" x="697" y="233" clip-path="url(#clipPath37)" stroke="none">  setPositions(posX: int, posY: int)</text>
            <polygon clip-path="url(#clipPath38)" points=" 610 214 626 208 626 220" stroke="none"/>
            <polygon fill="none" clip-path="url(#clipPath38)" points=" 610 214 626 208 626 220"/>
            <line clip-path="url(#clipPath32)" fill="none" x1="140" x2="350" y1="134" y2="134"/>
            <text xml:space="preserve" x="113" y="127" clip-path="url(#clipPath39)" stroke="none">Chooses preferences and click on "Générer le SVG"</text>
            <line clip-path="url(#clipPath40)" fill="none" x1="334" x2="350" y1="140" y2="134"/>
            <line clip-path="url(#clipPath40)" fill="none" x1="350" x2="334" y1="134" y2="128"/>
            <line clip-path="url(#clipPath32)" fill="none" x1="370" x2="960" y1="194" y2="194"/>
            <text xml:space="preserve" x="401" y="187" clip-path="url(#clipPath41)" stroke="none">  defineObjectsPosition(list of formation: EEList, canvasX: int, canvasY: int, isHiddenSubject: boolean)</text>
            <polygon clip-path="url(#clipPath42)" points=" 960 194 944 200 944 188" stroke="none"/>
            <polygon fill="none" clip-path="url(#clipPath42)" points=" 960 194 944 200 944 188"/>
            <line clip-path="url(#clipPath32)" fill="none" x1="170" x2="140" y1="547" y2="544" stroke-dasharray="6.6,3.3"/>
            <line clip-path="url(#clipPath32)" fill="none" x1="370" x2="830" y1="254" y2="254"/>
            <text xml:space="preserve" x="536" y="247" clip-path="url(#clipPath43)" stroke="none">  paint(Settings: Settings)</text>
            <polygon clip-path="url(#clipPath44)" points=" 830 254 814 260 814 248" stroke="none"/>
            <polygon fill="none" clip-path="url(#clipPath44)" points=" 830 254 814 260 814 248"/>
            <line clip-path="url(#clipPath32)" fill="none" x1="370" x2="590" y1="154" y2="154"/>
            <text xml:space="preserve" x="412" y="147" clip-path="url(#clipPath45)" stroke="none">  ROFDataBase.initialize()()</text>
            <polygon clip-path="url(#clipPath46)" points=" 590 154 574 160 574 148" stroke="none"/>
            <polygon fill="none" clip-path="url(#clipPath46)" points=" 590 154 574 160 574 148"/>
            <line clip-path="url(#clipPath32)" fill="none" x1="830" x2="610" y1="294" y2="294"/>
            <text xml:space="preserve" x="624" y="313" clip-path="url(#clipPath47)" stroke="none">Get informations from the Database</text>
            <polygon clip-path="url(#clipPath48)" points=" 610 294 626 288 626 300" stroke="none"/>
            <polygon fill="none" clip-path="url(#clipPath48)" points=" 610 294 626 288 626 300"/>
            <line clip-path="url(#clipPath32)" fill="none" x1="140" x2="350" y1="134" y2="134"/>
            <text xml:space="preserve" x="113" y="127" clip-path="url(#clipPath39)" stroke="none">Chooses preferences and click on "Générer le SVG"</text>
            <line clip-path="url(#clipPath40)" fill="none" x1="334" x2="350" y1="140" y2="134"/>
            <line clip-path="url(#clipPath40)" fill="none" x1="350" x2="334" y1="134" y2="128"/>
            <line clip-path="url(#clipPath32)" fill="none" x1="370" x2="590" y1="154" y2="154"/>
            <text xml:space="preserve" x="412" y="147" clip-path="url(#clipPath45)" stroke="none">  ROFDataBase.initialize()()</text>
            <polygon clip-path="url(#clipPath46)" points=" 590 154 574 160 574 148" stroke="none"/>
            <polygon fill="none" clip-path="url(#clipPath46)" points=" 590 154 574 160 574 148"/>
            <line clip-path="url(#clipPath32)" fill="none" x1="370" x2="960" y1="194" y2="194"/>
            <text xml:space="preserve" x="401" y="187" clip-path="url(#clipPath41)" stroke="none">  defineObjectsPosition(list of formation: EEList, canvasX: int, canvasY: int, isHiddenSubject: boolean)</text>
            <polygon clip-path="url(#clipPath42)" points=" 960 194 944 200 944 188" stroke="none"/>
            <polygon fill="none" clip-path="url(#clipPath42)" points=" 960 194 944 200 944 188"/>
            <line clip-path="url(#clipPath32)" fill="none" x1="960" x2="610" y1="214" y2="214"/>
            <text xml:space="preserve" x="697" y="233" clip-path="url(#clipPath37)" stroke="none">  setPositions(posX: int, posY: int)</text>
            <polygon clip-path="url(#clipPath38)" points=" 610 214 626 208 626 220" stroke="none"/>
            <polygon fill="none" clip-path="url(#clipPath38)" points=" 610 214 626 208 626 220"/>
            <line clip-path="url(#clipPath32)" fill="none" x1="370" x2="830" y1="254" y2="254"/>
            <text xml:space="preserve" x="536" y="247" clip-path="url(#clipPath43)" stroke="none">  paint(Settings: Settings)</text>
            <polygon clip-path="url(#clipPath44)" points=" 830 254 814 260 814 248" stroke="none"/>
            <polygon fill="none" clip-path="url(#clipPath44)" points=" 830 254 814 260 814 248"/>
            <line clip-path="url(#clipPath32)" fill="none" x1="830" x2="610" y1="294" y2="294"/>
            <text xml:space="preserve" x="624" y="313" clip-path="url(#clipPath47)" stroke="none">Get informations from the Database</text>
            <polygon clip-path="url(#clipPath48)" points=" 610 294 626 288 626 300" stroke="none"/>
            <polygon fill="none" clip-path="url(#clipPath48)" points=" 610 294 626 288 626 300"/>
            <line clip-path="url(#clipPath32)" fill="none" x1="830" x2="140" y1="354" y2="354"/>
            <text xml:space="preserve" x="359" y="373" clip-path="url(#clipPath33)" stroke="none">Create the SVG file on the final User's computer</text>
            <polygon clip-path="url(#clipPath34)" points=" 140 354 156 348 156 360" stroke="none"/>
            <polygon fill="none" clip-path="url(#clipPath34)" points=" 140 354 156 348 156 360"/>
            <line clip-path="url(#clipPath32)" fill="none" x1="350" x2="140" y1="394" y2="394"/>
            <text xml:space="preserve" x="206" y="413" clip-path="url(#clipPath35)" stroke="none">Open the SVG </text>
            <polygon clip-path="url(#clipPath36)" points=" 140 394 156 388 156 400" stroke="none"/>
            <polygon fill="none" clip-path="url(#clipPath36)" points=" 140 394 156 388 156 400"/>
            <line clip-path="url(#clipPath32)" fill="none" x1="170" x2="140" y1="547" y2="544" stroke-dasharray="6.6,3.3"/>
        </g>
    </g>
</svg>
