<?xml version="1.0" encoding="UTF-8"?><svg xmlns="http://www.w3.org/2000/svg" xmlns:xlink="http://www.w3.org/1999/xlink" stroke-dasharray="none" shape-rendering="auto" font-family="'Dialog'" width="1138" text-rendering="auto" fill-opacity="1" contentScriptType="text/ecmascript" color-interpolation="auto" color-rendering="auto" preserveAspectRatio="xMidYMid meet" font-size="12" viewBox="0 0 1138 1035" fill="black" stroke="black" image-rendering="auto" stroke-miterlimit="10" zoomAndPan="magnify" version="1.0" stroke-linecap="square" stroke-linejoin="miter" contentStyleType="text/css" font-style="normal" height="1035" stroke-width="1" stroke-dashoffset="0" font-weight="normal" stroke-opacity="1">
    <!--Generated by the Batik Graphics2D SVG Generator-->
    <defs id="genericDefs"/>
    <g>
        <defs id="defs1">
            <linearGradient x1="110" x2="110" y1="140" gradientUnits="userSpaceOnUse" y2="840" xlink:type="simple" xlink:actuate="onLoad" id="linearGradient1" xlink:show="other" spreadMethod="pad">
                <stop stop-opacity="1" stop-color="white" offset="0%"/>
                <stop stop-opacity="1" stop-color="rgb(195,209,213)" offset="100%"/>
            </linearGradient>
            <linearGradient x1="70" x2="70" y1="10" gradientUnits="userSpaceOnUse" y2="1025" xlink:type="simple" xlink:actuate="onLoad" id="linearGradient2" xlink:show="other" spreadMethod="pad">
                <stop stop-opacity="1" stop-color="white" offset="0%"/>
                <stop stop-opacity="1" stop-color="rgb(195,209,213)" offset="100%"/>
            </linearGradient>
            <linearGradient x1="110" x2="110" y1="140" gradientUnits="userSpaceOnUse" y2="840" xlink:type="simple" xlink:actuate="onLoad" id="linearGradient3" xlink:show="other" spreadMethod="pad">
                <stop stop-opacity="1" stop-color="white" offset="0%"/>
                <stop stop-opacity="1" stop-color="rgb(195,209,213)" offset="100%"/>
            </linearGradient>
            <linearGradient x1="310" x2="310" y1="120" gradientUnits="userSpaceOnUse" y2="820" xlink:type="simple" xlink:actuate="onLoad" id="linearGradient4" xlink:show="other" spreadMethod="pad">
                <stop stop-opacity="1" stop-color="white" offset="0%"/>
                <stop stop-opacity="1" stop-color="rgb(195,209,213)" offset="100%"/>
            </linearGradient>
            <linearGradient x1="270" x2="270" y1="10" gradientUnits="userSpaceOnUse" y2="1025" xlink:type="simple" xlink:actuate="onLoad" id="linearGradient5" xlink:show="other" spreadMethod="pad">
                <stop stop-opacity="1" stop-color="white" offset="0%"/>
                <stop stop-opacity="1" stop-color="rgb(195,209,213)" offset="100%"/>
            </linearGradient>
            <linearGradient x1="310" x2="310" y1="120" gradientUnits="userSpaceOnUse" y2="820" xlink:type="simple" xlink:actuate="onLoad" id="linearGradient6" xlink:show="other" spreadMethod="pad">
                <stop stop-opacity="1" stop-color="white" offset="0%"/>
                <stop stop-opacity="1" stop-color="rgb(195,209,213)" offset="100%"/>
            </linearGradient>
            <linearGradient x1="570" x2="570" y1="340" gradientUnits="userSpaceOnUse" y2="420" xlink:type="simple" xlink:actuate="onLoad" id="linearGradient7" xlink:show="other" spreadMethod="pad">
                <stop stop-opacity="1" stop-color="white" offset="0%"/>
                <stop stop-opacity="1" stop-color="rgb(195,209,213)" offset="100%"/>
            </linearGradient>
            <linearGradient x1="530" x2="530" y1="10" gradientUnits="userSpaceOnUse" y2="1025" xlink:type="simple" xlink:actuate="onLoad" id="linearGradient8" xlink:show="other" spreadMethod="pad">
                <stop stop-opacity="1" stop-color="white" offset="0%"/>
                <stop stop-opacity="1" stop-color="rgb(195,209,213)" offset="100%"/>
            </linearGradient>
            <linearGradient x1="570" x2="570" y1="340" gradientUnits="userSpaceOnUse" y2="420" xlink:type="simple" xlink:actuate="onLoad" id="linearGradient9" xlink:show="other" spreadMethod="pad">
                <stop stop-opacity="1" stop-color="white" offset="0%"/>
                <stop stop-opacity="1" stop-color="rgb(195,209,213)" offset="100%"/>
            </linearGradient>
            <linearGradient x1="790" x2="790" y1="500" gradientUnits="userSpaceOnUse" y2="560" xlink:type="simple" xlink:actuate="onLoad" id="linearGradient10" xlink:show="other" spreadMethod="pad">
                <stop stop-opacity="1" stop-color="white" offset="0%"/>
                <stop stop-opacity="1" stop-color="rgb(195,209,213)" offset="100%"/>
            </linearGradient>
            <linearGradient x1="750" x2="750" y1="10" gradientUnits="userSpaceOnUse" y2="1025" xlink:type="simple" xlink:actuate="onLoad" id="linearGradient11" xlink:show="other" spreadMethod="pad">
                <stop stop-opacity="1" stop-color="white" offset="0%"/>
                <stop stop-opacity="1" stop-color="rgb(195,209,213)" offset="100%"/>
            </linearGradient>
            <linearGradient x1="790" x2="790" y1="500" gradientUnits="userSpaceOnUse" y2="560" xlink:type="simple" xlink:actuate="onLoad" id="linearGradient12" xlink:show="other" spreadMethod="pad">
                <stop stop-opacity="1" stop-color="white" offset="0%"/>
                <stop stop-opacity="1" stop-color="rgb(195,209,213)" offset="100%"/>
            </linearGradient>
            <linearGradient x1="10" x2="10" y1="80" gradientUnits="userSpaceOnUse" y2="167" xlink:type="simple" xlink:actuate="onLoad" id="linearGradient13" xlink:show="other" spreadMethod="pad">
                <stop stop-opacity="1" stop-color="rgb(255,255,204)" offset="0%"/>
                <stop stop-opacity="1" stop-color="white" offset="100%"/>
            </linearGradient>
            <linearGradient x1="590" x2="590" y1="40" gradientUnits="userSpaceOnUse" y2="127" xlink:type="simple" xlink:actuate="onLoad" id="linearGradient14" xlink:show="other" spreadMethod="pad">
                <stop stop-opacity="1" stop-color="rgb(255,255,204)" offset="0%"/>
                <stop stop-opacity="1" stop-color="white" offset="100%"/>
            </linearGradient>
            <linearGradient x1="630" x2="630" y1="400" gradientUnits="userSpaceOnUse" y2="487" xlink:type="simple" xlink:actuate="onLoad" id="linearGradient15" xlink:show="other" spreadMethod="pad">
                <stop stop-opacity="1" stop-color="rgb(255,255,204)" offset="0%"/>
                <stop stop-opacity="1" stop-color="white" offset="100%"/>
            </linearGradient>
            <linearGradient x1="950" x2="950" y1="500" gradientUnits="userSpaceOnUse" y2="560" xlink:type="simple" xlink:actuate="onLoad" id="linearGradient16" xlink:show="other" spreadMethod="pad">
                <stop stop-opacity="1" stop-color="white" offset="0%"/>
                <stop stop-opacity="1" stop-color="rgb(195,209,213)" offset="100%"/>
            </linearGradient>
            <linearGradient x1="910" x2="910" y1="10" gradientUnits="userSpaceOnUse" y2="825" xlink:type="simple" xlink:actuate="onLoad" id="linearGradient17" xlink:show="other" spreadMethod="pad">
                <stop stop-opacity="1" stop-color="white" offset="0%"/>
                <stop stop-opacity="1" stop-color="rgb(195,209,213)" offset="100%"/>
            </linearGradient>
            <linearGradient x1="950" x2="950" y1="500" gradientUnits="userSpaceOnUse" y2="560" xlink:type="simple" xlink:actuate="onLoad" id="linearGradient18" xlink:show="other" spreadMethod="pad">
                <stop stop-opacity="1" stop-color="white" offset="0%"/>
                <stop stop-opacity="1" stop-color="rgb(195,209,213)" offset="100%"/>
            </linearGradient>
            <linearGradient x1="390" x2="390" y1="60" gradientUnits="userSpaceOnUse" y2="162" xlink:type="simple" xlink:actuate="onLoad" id="linearGradient19" xlink:show="other" spreadMethod="pad">
                <stop stop-opacity="1" stop-color="rgb(255,255,204)" offset="0%"/>
                <stop stop-opacity="1" stop-color="white" offset="100%"/>
            </linearGradient>
            <clipPath clipPathUnits="userSpaceOnUse" id="clipPath1">
                <path d="M110 140 L110 839 L129 839 L129 140 Z"/>
            </clipPath>
            <clipPath clipPathUnits="userSpaceOnUse" id="clipPath2">
                <path d="M109 139 L131 139 L131 841 L109 841 L109 139 Z"/>
            </clipPath>
            <clipPath clipPathUnits="userSpaceOnUse" id="clipPath3">
                <path d="M69 9 L171 9 L171 1026 L69 1026 L69 9 Z"/>
            </clipPath>
            <clipPath clipPathUnits="userSpaceOnUse" id="clipPath4">
                <path d="M70 10 L70 1024 L169 1024 L169 10 Z"/>
            </clipPath>
            <clipPath clipPathUnits="userSpaceOnUse" id="clipPath5">
                <path d="M94 12 L148 12 L148 29 L94 29 L94 12 Z"/>
            </clipPath>
            <clipPath clipPathUnits="userSpaceOnUse" id="clipPath6">
                <path d="M310 120 L310 819 L329 819 L329 120 Z"/>
            </clipPath>
            <clipPath clipPathUnits="userSpaceOnUse" id="clipPath7">
                <path d="M309 119 L331 119 L331 821 L309 821 L309 119 Z"/>
            </clipPath>
            <clipPath clipPathUnits="userSpaceOnUse" id="clipPath8">
                <path d="M269 9 L371 9 L371 1026 L269 1026 L269 9 Z"/>
            </clipPath>
            <clipPath clipPathUnits="userSpaceOnUse" id="clipPath9">
                <path d="M270 10 L270 1024 L369 1024 L369 10 Z"/>
            </clipPath>
            <clipPath clipPathUnits="userSpaceOnUse" id="clipPath10">
                <path d="M270 12 L371 12 L371 29 L270 29 L270 12 Z"/>
            </clipPath>
            <clipPath clipPathUnits="userSpaceOnUse" id="clipPath11">
                <path d="M570 340 L570 419 L589 419 L589 340 Z"/>
            </clipPath>
            <clipPath clipPathUnits="userSpaceOnUse" id="clipPath12">
                <path d="M569 339 L591 339 L591 421 L569 421 L569 339 Z"/>
            </clipPath>
            <clipPath clipPathUnits="userSpaceOnUse" id="clipPath13">
                <path d="M529 9 L631 9 L631 1026 L529 1026 L529 9 Z"/>
            </clipPath>
            <clipPath clipPathUnits="userSpaceOnUse" id="clipPath14">
                <path d="M530 10 L530 1024 L629 1024 L629 10 Z"/>
            </clipPath>
            <clipPath clipPathUnits="userSpaceOnUse" id="clipPath15">
                <path d="M555 12 L606 12 L606 29 L555 29 L555 12 Z"/>
            </clipPath>
            <clipPath clipPathUnits="userSpaceOnUse" id="clipPath16">
                <path d="M790 500 L790 559 L809 559 L809 500 Z"/>
            </clipPath>
            <clipPath clipPathUnits="userSpaceOnUse" id="clipPath17">
                <path d="M789 499 L811 499 L811 561 L789 561 L789 499 Z"/>
            </clipPath>
            <clipPath clipPathUnits="userSpaceOnUse" id="clipPath18">
                <path d="M749 9 L851 9 L851 1026 L749 1026 L749 9 Z"/>
            </clipPath>
            <clipPath clipPathUnits="userSpaceOnUse" id="clipPath19">
                <path d="M750 10 L750 1024 L849 1024 L849 10 Z"/>
            </clipPath>
            <clipPath clipPathUnits="userSpaceOnUse" id="clipPath20">
                <path d="M774 12 L828 12 L828 29 L774 29 L774 12 Z"/>
            </clipPath>
            <clipPath clipPathUnits="userSpaceOnUse" id="clipPath21">
                <path d="M10 80 L10 166 L92 166 L92 92 L80 80 Z"/>
            </clipPath>
            <clipPath clipPathUnits="userSpaceOnUse" id="clipPath22">
                <path d="M15 85 L79 85 L79 162 L15 162 L15 85 Z"/>
            </clipPath>
            <clipPath clipPathUnits="userSpaceOnUse" id="clipPath23">
                <path d="M9 79 L94 79 L94 168 L9 168 L9 79 Z"/>
            </clipPath>
            <clipPath clipPathUnits="userSpaceOnUse" id="clipPath24">
                <path d="M590 40 L590 126 L690 126 L690 52 L678 40 Z"/>
            </clipPath>
            <clipPath clipPathUnits="userSpaceOnUse" id="clipPath25">
                <path d="M595 45 L671 45 L671 122 L595 122 L595 45 Z"/>
            </clipPath>
            <clipPath clipPathUnits="userSpaceOnUse" id="clipPath26">
                <path d="M589 39 L692 39 L692 128 L589 128 L589 39 Z"/>
            </clipPath>
            <clipPath clipPathUnits="userSpaceOnUse" id="clipPath27">
                <path d="M630 400 L630 486 L730 486 L730 412 L718 400 Z"/>
            </clipPath>
            <clipPath clipPathUnits="userSpaceOnUse" id="clipPath28">
                <path d="M635 405 L717 405 L717 482 L635 482 L635 405 Z"/>
            </clipPath>
            <clipPath clipPathUnits="userSpaceOnUse" id="clipPath29">
                <path d="M629 399 L732 399 L732 488 L629 488 L629 399 Z"/>
            </clipPath>
            <clipPath clipPathUnits="userSpaceOnUse" id="clipPath30">
                <path d="M950 500 L950 559 L969 559 L969 500 Z"/>
            </clipPath>
            <clipPath clipPathUnits="userSpaceOnUse" id="clipPath31">
                <path d="M949 499 L971 499 L971 561 L949 561 L949 499 Z"/>
            </clipPath>
            <clipPath clipPathUnits="userSpaceOnUse" id="clipPath32">
                <path d="M909 9 L1011 9 L1011 826 L909 826 L909 9 Z"/>
            </clipPath>
            <clipPath clipPathUnits="userSpaceOnUse" id="clipPath33">
                <path d="M910 10 L910 824 L1009 824 L1009 10 Z"/>
            </clipPath>
            <clipPath clipPathUnits="userSpaceOnUse" id="clipPath34">
                <path d="M918 12 L1004 12 L1004 29 L918 29 L918 12 Z"/>
            </clipPath>
            <clipPath clipPathUnits="userSpaceOnUse" id="clipPath35">
                <path d="M390 60 L390 161 L470 161 L470 72 L458 60 Z"/>
            </clipPath>
            <clipPath clipPathUnits="userSpaceOnUse" id="clipPath36">
                <path d="M395 65 L456 65 L456 157 L395 157 L395 65 Z"/>
            </clipPath>
            <clipPath clipPathUnits="userSpaceOnUse" id="clipPath37">
                <path d="M389 59 L472 59 L472 163 L389 163 L389 59 Z"/>
            </clipPath>
            <clipPath clipPathUnits="userSpaceOnUse" id="clipPath38">
                <path d="M-1 -1 L1139 -1 L1139 1036 L-1 1036 L-1 -1 Z"/>
            </clipPath>
            <clipPath clipPathUnits="userSpaceOnUse" id="clipPath39">
                <path d="M189 119 L253 119 L253 136 L189 136 L189 119 Z"/>
            </clipPath>
            <clipPath clipPathUnits="userSpaceOnUse" id="clipPath40">
                <path d="M293 133 L312 133 L312 148 L293 148 L293 133 Z"/>
            </clipPath>
            <clipPath clipPathUnits="userSpaceOnUse" id="clipPath41">
                <path d="M157 199 L286 199 L286 216 L157 216 L157 199 Z"/>
            </clipPath>
            <clipPath clipPathUnits="userSpaceOnUse" id="clipPath42">
                <path d="M293 213 L312 213 L312 228 L293 228 L293 213 Z"/>
            </clipPath>
            <clipPath clipPathUnits="userSpaceOnUse" id="clipPath43">
                <path d="M184 825 L254 825 L254 842 L184 842 L184 825 Z"/>
            </clipPath>
            <clipPath clipPathUnits="userSpaceOnUse" id="clipPath44">
                <path d="M129 813 L148 813 L148 828 L129 828 L129 813 Z"/>
            </clipPath>
            <clipPath clipPathUnits="userSpaceOnUse" id="clipPath45">
                <path d="M375 272 L503 272 L503 289 L375 289 L375 272 Z"/>
            </clipPath>
            <clipPath clipPathUnits="userSpaceOnUse" id="clipPath46">
                <path d="M329 313 L348 313 L348 328 L329 328 L329 313 Z"/>
            </clipPath>
            <clipPath clipPathUnits="userSpaceOnUse" id="clipPath47">
                <path d="M385 319 L517 319 L517 336 L385 336 L385 319 Z"/>
            </clipPath>
            <clipPath clipPathUnits="userSpaceOnUse" id="clipPath48">
                <path d="M553 333 L572 333 L572 348 L553 348 L553 333 Z"/>
            </clipPath>
            <clipPath clipPathUnits="userSpaceOnUse" id="clipPath49">
                <path d="M437 479 L685 479 L685 496 L437 496 L437 479 Z"/>
            </clipPath>
            <clipPath clipPathUnits="userSpaceOnUse" id="clipPath50">
                <path d="M773 493 L792 493 L792 508 L773 508 L773 493 Z"/>
            </clipPath>
            <clipPath clipPathUnits="userSpaceOnUse" id="clipPath51">
                <path d="M375 692 L458 692 L458 709 L375 709 L375 692 Z"/>
            </clipPath>
            <clipPath clipPathUnits="userSpaceOnUse" id="clipPath52">
                <path d="M329 733 L348 733 L348 748 L329 748 L329 733 Z"/>
            </clipPath>
            <clipPath clipPathUnits="userSpaceOnUse" id="clipPath53">
                <path d="M416 425 L482 425 L482 442 L416 442 L416 425 Z"/>
            </clipPath>
            <clipPath clipPathUnits="userSpaceOnUse" id="clipPath54">
                <path d="M329 413 L348 413 L348 428 L329 428 L329 413 Z"/>
            </clipPath>
            <clipPath clipPathUnits="userSpaceOnUse" id="clipPath55">
                <path d="M442 565 L677 565 L677 582 L442 582 L442 565 Z"/>
            </clipPath>
            <clipPath clipPathUnits="userSpaceOnUse" id="clipPath56">
                <path d="M329 553 L348 553 L348 568 L329 568 L329 553 Z"/>
            </clipPath>
            <clipPath clipPathUnits="userSpaceOnUse" id="clipPath57">
                <path d="M766 470 L1087 470 L1087 487 L766 487 L766 470 Z"/>
            </clipPath>
            <clipPath clipPathUnits="userSpaceOnUse" id="clipPath58">
                <path d="M933 493 L952 493 L952 508 L933 508 L933 493 Z"/>
            </clipPath>
            <clipPath clipPathUnits="userSpaceOnUse" id="clipPath59">
                <path d="M830 565 L929 565 L929 582 L830 582 L830 565 Z"/>
            </clipPath>
            <clipPath clipPathUnits="userSpaceOnUse" id="clipPath60">
                <path d="M809 553 L828 553 L828 568 L809 568 L809 553 Z"/>
            </clipPath>
            <clipPath clipPathUnits="userSpaceOnUse" id="clipPath61">
                <path d="M1020 522 L1116 522 L1116 539 L1020 539 L1020 522 Z"/>
            </clipPath>
            <clipPath clipPathUnits="userSpaceOnUse" id="clipPath62">
                <path d="M969 553 L988 553 L988 568 L969 568 L969 553 Z"/>
            </clipPath>
        </defs>
        <g fill="url(#linearGradient1)" font-family="'Segoe UI'" stroke-linejoin="round" stroke="url(#linearGradient1)" stroke-width="0" stroke-miterlimit="0">
            <rect x="110" y="140" clip-path="url(#clipPath1)" width="20" height="700" stroke="none"/>
        </g>
        <g stroke-width="1.1" font-family="'Segoe UI'" stroke-linecap="butt">
            <rect x="110" y="140" clip-path="url(#clipPath2)" fill="none" width="19" rx="0" ry="0" height="699"/>
            <rect x="70" y="10" clip-path="url(#clipPath3)" fill="none" width="99" height="18"/>
            <line clip-path="url(#clipPath3)" fill="none" x1="120" x2="120" y1="28" y2="1024" stroke-dasharray="5,5"/>
            <rect x="70" y="10" clip-path="url(#clipPath4)" fill="url(#linearGradient2)" width="100" stroke-dasharray="5,5" opacity="0" height="1015" stroke="none"/>
            <text x="95" y="26" clip-path="url(#clipPath5)" stroke-dasharray="5,5" stroke="none" xml:space="preserve">Final User</text>
            <rect x="110" y="140" clip-path="url(#clipPath1)" fill="url(#linearGradient3)" width="20" stroke-dasharray="5,5" height="700" stroke="none"/>
            <rect x="110" y="140" clip-path="url(#clipPath2)" fill="none" width="19" rx="0" ry="0" height="699"/>
            <rect x="310" y="120" clip-path="url(#clipPath6)" fill="url(#linearGradient4)" width="20" height="700" stroke="none"/>
            <rect x="310" y="120" clip-path="url(#clipPath7)" fill="none" width="19" rx="0" ry="0" height="699"/>
            <rect x="270" y="10" clip-path="url(#clipPath8)" fill="none" width="99" height="18"/>
            <line clip-path="url(#clipPath8)" fill="none" x1="320" x2="320" y1="28" y2="1024" stroke-dasharray="5,5"/>
            <rect x="270" y="10" clip-path="url(#clipPath9)" fill="url(#linearGradient5)" width="100" stroke-dasharray="5,5" opacity="0" height="1015" stroke="none"/>
            <text x="271" y="26" clip-path="url(#clipPath10)" stroke-dasharray="5,5" stroke="none" xml:space="preserve">GUI SVG Generator</text>
            <rect x="310" y="120" clip-path="url(#clipPath6)" fill="url(#linearGradient6)" width="20" stroke-dasharray="5,5" height="700" stroke="none"/>
            <rect x="310" y="120" clip-path="url(#clipPath7)" fill="none" width="19" rx="0" ry="0" height="699"/>
            <rect x="570" y="340" clip-path="url(#clipPath11)" fill="url(#linearGradient7)" width="20" height="80" stroke="none"/>
            <rect x="570" y="340" clip-path="url(#clipPath12)" fill="none" width="19" rx="0" ry="0" height="79"/>
            <rect x="530" y="10" clip-path="url(#clipPath13)" fill="none" width="99" height="18"/>
            <line clip-path="url(#clipPath13)" fill="none" x1="580" x2="580" y1="28" y2="1024" stroke-dasharray="5,5"/>
            <rect x="530" y="10" clip-path="url(#clipPath14)" fill="url(#linearGradient8)" width="100" stroke-dasharray="5,5" opacity="0" height="1015" stroke="none"/>
            <text x="556" y="26" clip-path="url(#clipPath15)" stroke-dasharray="5,5" stroke="none" xml:space="preserve">Database</text>
            <rect x="570" y="340" clip-path="url(#clipPath11)" fill="url(#linearGradient9)" width="20" stroke-dasharray="5,5" height="80" stroke="none"/>
            <rect x="570" y="340" clip-path="url(#clipPath12)" fill="none" width="19" rx="0" ry="0" height="79"/>
            <rect x="790" y="500" clip-path="url(#clipPath16)" fill="url(#linearGradient10)" width="20" height="60" stroke="none"/>
            <rect x="790" y="500" clip-path="url(#clipPath17)" fill="none" width="19" rx="0" ry="0" height="59"/>
            <rect x="750" y="10" clip-path="url(#clipPath18)" fill="none" width="99" height="18"/>
            <line clip-path="url(#clipPath18)" fill="none" x1="800" x2="800" y1="28" y2="1024" stroke-dasharray="5,5"/>
            <rect x="750" y="10" clip-path="url(#clipPath19)" fill="url(#linearGradient11)" width="100" stroke-dasharray="5,5" opacity="0" height="1015" stroke="none"/>
            <text x="775" y="26" clip-path="url(#clipPath20)" stroke-dasharray="5,5" stroke="none" xml:space="preserve">Draw SVG</text>
            <rect x="790" y="500" clip-path="url(#clipPath16)" fill="url(#linearGradient12)" width="20" stroke-dasharray="5,5" height="60" stroke="none"/>
            <rect x="790" y="500" clip-path="url(#clipPath17)" fill="none" width="19" rx="0" ry="0" height="59"/>
            <rect x="10" y="80" clip-path="url(#clipPath21)" fill="url(#linearGradient13)" width="83" height="87" stroke="none"/>
            <text xml:space="preserve" x="16" y="99" clip-path="url(#clipPath22)" stroke="none">The user</text>
            <text xml:space="preserve" x="16" y="114" clip-path="url(#clipPath22)" stroke="none">chooses</text>
            <text xml:space="preserve" x="16" y="129" clip-path="url(#clipPath22)" stroke="none">preferences</text>
            <text xml:space="preserve" x="16" y="144" clip-path="url(#clipPath22)" stroke="none">and paper</text>
            <text xml:space="preserve" x="16" y="159" clip-path="url(#clipPath22)" stroke="none">format</text>
            <line clip-path="url(#clipPath23)" fill="none" x1="10" x2="80" y1="80" y2="80"/>
            <line clip-path="url(#clipPath23)" fill="none" x1="80" x2="92" y1="80" y2="92"/>
            <line clip-path="url(#clipPath23)" fill="none" x1="92" x2="92" y1="92" y2="166"/>
            <line clip-path="url(#clipPath23)" fill="none" x1="92" x2="10" y1="166" y2="166"/>
            <line clip-path="url(#clipPath23)" fill="none" x1="10" x2="10" y1="166" y2="80"/>
            <line clip-path="url(#clipPath23)" fill="none" x1="10" x2="10" y1="80" y2="80"/>
            <line clip-path="url(#clipPath23)" fill="none" x1="80" x2="80" y1="80" y2="92"/>
            <line clip-path="url(#clipPath23)" fill="none" x1="80" x2="93" y1="92" y2="92"/>
            <rect x="590" y="40" clip-path="url(#clipPath24)" fill="url(#linearGradient14)" width="101" height="87" stroke="none"/>
            <text xml:space="preserve" x="596" y="59" clip-path="url(#clipPath25)" stroke="none">Use model</text>
            <text xml:space="preserve" x="596" y="74" clip-path="url(#clipPath25)" stroke="none">package</text>
            <text xml:space="preserve" x="596" y="89" clip-path="url(#clipPath25)" stroke="none">beceause ROF</text>
            <text xml:space="preserve" x="596" y="104" clip-path="url(#clipPath25)" stroke="none">is not</text>
            <text xml:space="preserve" x="596" y="119" clip-path="url(#clipPath25)" stroke="none">functionnal</text>
            <line clip-path="url(#clipPath26)" fill="none" x1="590" x2="678" y1="40" y2="40"/>
            <line clip-path="url(#clipPath26)" fill="none" x1="678" x2="690" y1="40" y2="52"/>
            <line clip-path="url(#clipPath26)" fill="none" x1="690" x2="690" y1="52" y2="126"/>
            <line clip-path="url(#clipPath26)" fill="none" x1="690" x2="590" y1="126" y2="126"/>
            <line clip-path="url(#clipPath26)" fill="none" x1="590" x2="590" y1="126" y2="40"/>
            <line clip-path="url(#clipPath26)" fill="none" x1="590" x2="590" y1="40" y2="40"/>
            <line clip-path="url(#clipPath26)" fill="none" x1="678" x2="678" y1="40" y2="52"/>
            <line clip-path="url(#clipPath26)" fill="none" x1="678" x2="691" y1="52" y2="52"/>
            <rect x="630" y="400" clip-path="url(#clipPath27)" fill="url(#linearGradient15)" width="101" height="87" stroke="none"/>
            <text xml:space="preserve" x="636" y="419" clip-path="url(#clipPath28)" stroke="none">Here SVG is an</text>
            <text xml:space="preserve" x="636" y="434" clip-path="url(#clipPath28)" stroke="none">attribute of the</text>
            <text xml:space="preserve" x="636" y="449" clip-path="url(#clipPath28)" stroke="none">GUI SVG</text>
            <text xml:space="preserve" x="636" y="464" clip-path="url(#clipPath28)" stroke="none">Generator</text>
            <text xml:space="preserve" x="636" y="479" clip-path="url(#clipPath28)" stroke="none">class</text>
            <line clip-path="url(#clipPath29)" fill="none" x1="630" x2="718" y1="400" y2="400"/>
            <line clip-path="url(#clipPath29)" fill="none" x1="718" x2="730" y1="400" y2="412"/>
            <line clip-path="url(#clipPath29)" fill="none" x1="730" x2="730" y1="412" y2="486"/>
            <line clip-path="url(#clipPath29)" fill="none" x1="730" x2="630" y1="486" y2="486"/>
            <line clip-path="url(#clipPath29)" fill="none" x1="630" x2="630" y1="486" y2="400"/>
            <line clip-path="url(#clipPath29)" fill="none" x1="630" x2="630" y1="400" y2="400"/>
            <line clip-path="url(#clipPath29)" fill="none" x1="718" x2="718" y1="400" y2="412"/>
            <line clip-path="url(#clipPath29)" fill="none" x1="718" x2="731" y1="412" y2="412"/>
            <rect x="950" y="500" clip-path="url(#clipPath30)" fill="url(#linearGradient16)" width="20" height="60" stroke="none"/>
            <rect x="950" y="500" clip-path="url(#clipPath31)" fill="none" width="19" rx="0" ry="0" height="59"/>
            <rect x="910" y="10" clip-path="url(#clipPath32)" fill="none" width="99" height="18"/>
            <line clip-path="url(#clipPath32)" fill="none" x1="960" x2="960" y1="28" y2="824" stroke-dasharray="5,5"/>
            <rect x="910" y="10" clip-path="url(#clipPath33)" fill="url(#linearGradient17)" width="100" stroke-dasharray="5,5" opacity="0" height="815" stroke="none"/>
            <text x="919" y="26" clip-path="url(#clipPath34)" stroke-dasharray="5,5" stroke="none" xml:space="preserve">Responsive SVG</text>
            <rect x="950" y="500" clip-path="url(#clipPath30)" fill="url(#linearGradient18)" width="20" stroke-dasharray="5,5" height="60" stroke="none"/>
            <rect x="950" y="500" clip-path="url(#clipPath31)" fill="none" width="19" rx="0" ry="0" height="59"/>
            <rect x="390" y="60" clip-path="url(#clipPath35)" fill="url(#linearGradient19)" width="81" height="102" stroke="none"/>
            <text xml:space="preserve" x="396" y="79" clip-path="url(#clipPath36)" stroke="none">All settings</text>
            <text xml:space="preserve" x="396" y="94" clip-path="url(#clipPath36)" stroke="none">don't</text>
            <text xml:space="preserve" x="396" y="109" clip-path="url(#clipPath36)" stroke="none">make the</text>
            <text xml:space="preserve" x="396" y="124" clip-path="url(#clipPath36)" stroke="none">SVG</text>
            <text xml:space="preserve" x="396" y="139" clip-path="url(#clipPath36)" stroke="none">responsive</text>
            <line clip-path="url(#clipPath37)" fill="none" x1="390" x2="458" y1="60" y2="60"/>
            <line clip-path="url(#clipPath37)" fill="none" x1="458" x2="470" y1="60" y2="72"/>
            <line clip-path="url(#clipPath37)" fill="none" x1="470" x2="470" y1="72" y2="161"/>
            <line clip-path="url(#clipPath37)" fill="none" x1="470" x2="390" y1="161" y2="161"/>
            <line clip-path="url(#clipPath37)" fill="none" x1="390" x2="390" y1="161" y2="60"/>
            <line clip-path="url(#clipPath37)" fill="none" x1="390" x2="390" y1="60" y2="60"/>
            <line clip-path="url(#clipPath37)" fill="none" x1="458" x2="458" y1="60" y2="72"/>
            <line clip-path="url(#clipPath37)" fill="none" x1="458" x2="471" y1="72" y2="72"/>
            <line clip-path="url(#clipPath38)" fill="none" text-rendering="optimizeLegibility" x1="130" x2="310" y1="140" y2="140"/>
            <text x="190" y="133" clip-path="url(#clipPath39)" text-rendering="optimizeLegibility" stroke="none" xml:space="preserve">Set Settings</text>
            <line clip-path="url(#clipPath40)" fill="none" text-rendering="optimizeLegibility" x1="294" x2="310" y1="146" y2="140"/>
            <line clip-path="url(#clipPath40)" fill="none" text-rendering="optimizeLegibility" x1="310" x2="294" y1="140" y2="134"/>
            <line clip-path="url(#clipPath38)" fill="none" text-rendering="optimizeLegibility" x1="130" x2="310" y1="220" y2="220"/>
            <text x="158" y="213" clip-path="url(#clipPath41)" text-rendering="optimizeLegibility" stroke="none" xml:space="preserve">ButtonPush.addListener</text>
            <line clip-path="url(#clipPath42)" fill="none" text-rendering="optimizeLegibility" x1="294" x2="310" y1="226" y2="220"/>
            <line clip-path="url(#clipPath42)" fill="none" text-rendering="optimizeLegibility" x1="310" x2="294" y1="220" y2="214"/>
            <line clip-path="url(#clipPath38)" fill="none" text-rendering="optimizeLegibility" x1="310" x2="130" y1="820" y2="820" stroke-dasharray="6.6,3.3"/>
            <text x="185" y="839" clip-path="url(#clipPath43)" text-rendering="optimizeLegibility" stroke-dasharray="6.6,3.3" stroke="none" xml:space="preserve">SVG genered</text>
            <line clip-path="url(#clipPath44)" fill="none" text-rendering="optimizeLegibility" x1="146" x2="130" y1="814" y2="820"/>
            <line clip-path="url(#clipPath44)" fill="none" text-rendering="optimizeLegibility" x1="130" x2="146" y1="820" y2="826"/>
            <line clip-path="url(#clipPath38)" fill="none" text-rendering="optimizeLegibility" x1="390" x2="330" y1="100" y2="160" stroke-dasharray="6.6,3.3"/>
            <line clip-path="url(#clipPath38)" fill="none" text-rendering="optimizeLegibility" x1="330" x2="372" y1="239" y2="239"/>
            <line clip-path="url(#clipPath38)" fill="none" text-rendering="optimizeLegibility" x1="372" x2="372" y1="239" y2="320"/>
            <line clip-path="url(#clipPath38)" fill="none" text-rendering="optimizeLegibility" x1="372" x2="330" y1="320" y2="320"/>
            <text x="376" y="286" clip-path="url(#clipPath45)" text-rendering="optimizeLegibility" stroke="none" xml:space="preserve">Settings = new Setting()</text>
            <polygon text-rendering="optimizeLegibility" clip-path="url(#clipPath46)" points=" 330 320 346 314 346 326" stroke="none"/>
            <polygon text-rendering="optimizeLegibility" fill="none" clip-path="url(#clipPath46)" points=" 330 320 346 314 346 326"/>
            <line clip-path="url(#clipPath38)" fill="none" text-rendering="optimizeLegibility" x1="330" x2="570" y1="340" y2="340"/>
            <text x="386" y="333" clip-path="url(#clipPath47)" text-rendering="optimizeLegibility" stroke="none" xml:space="preserve">  ROFDataBase.initialize()</text>
            <polygon text-rendering="optimizeLegibility" clip-path="url(#clipPath48)" points=" 570 340 554 346 554 334" stroke="none"/>
            <polygon text-rendering="optimizeLegibility" fill="none" clip-path="url(#clipPath48)" points=" 570 340 554 346 554 334"/>
            <line clip-path="url(#clipPath38)" fill="none" text-rendering="optimizeLegibility" x1="330" x2="790" y1="500" y2="500"/>
            <text x="438" y="493" clip-path="url(#clipPath49)" text-rendering="optimizeLegibility" stroke="none" xml:space="preserve">  paint(settings: Settings, datas1: ROFDataBase)</text>
            <polygon text-rendering="optimizeLegibility" clip-path="url(#clipPath50)" points=" 790 500 774 506 774 494" stroke="none"/>
            <polygon text-rendering="optimizeLegibility" fill="none" clip-path="url(#clipPath50)" points=" 790 500 774 506 774 494"/>
            <line clip-path="url(#clipPath38)" fill="none" text-rendering="optimizeLegibility" x1="330" x2="372" y1="660" y2="660"/>
            <line clip-path="url(#clipPath38)" fill="none" text-rendering="optimizeLegibility" x1="372" x2="372" y1="660" y2="740"/>
            <line clip-path="url(#clipPath38)" fill="none" text-rendering="optimizeLegibility" x1="372" x2="330" y1="740" y2="740"/>
            <text x="376" y="706" clip-path="url(#clipPath51)" text-rendering="optimizeLegibility" stroke="none" xml:space="preserve">file = new File()</text>
            <line clip-path="url(#clipPath52)" fill="none" text-rendering="optimizeLegibility" x1="346" x2="330" y1="734" y2="740"/>
            <line clip-path="url(#clipPath52)" fill="none" text-rendering="optimizeLegibility" x1="330" x2="346" y1="740" y2="746"/>
            <line clip-path="url(#clipPath38)" fill="none" text-rendering="optimizeLegibility" x1="93" x2="247" y1="142" y2="140" stroke-dasharray="6.6,3.3"/>
            <line clip-path="url(#clipPath38)" fill="none" text-rendering="optimizeLegibility" x1="570" x2="330" y1="420" y2="420" stroke-dasharray="6.6,3.3"/>
            <text x="417" y="439" clip-path="url(#clipPath53)" text-rendering="optimizeLegibility" stroke-dasharray="6.6,3.3" stroke="none" xml:space="preserve">return datas</text>
            <line clip-path="url(#clipPath54)" fill="none" text-rendering="optimizeLegibility" x1="346" x2="330" y1="414" y2="420"/>
            <line clip-path="url(#clipPath54)" fill="none" text-rendering="optimizeLegibility" x1="330" x2="346" y1="420" y2="426"/>
            <line clip-path="url(#clipPath38)" fill="none" text-rendering="optimizeLegibility" x1="790" x2="330" y1="560" y2="560" stroke-dasharray="6.6,3.3"/>
            <text x="443" y="579" clip-path="url(#clipPath55)" text-rendering="optimizeLegibility" stroke-dasharray="6.6,3.3" stroke="none" xml:space="preserve">draw admission, formation, responsable, etc</text>
            <line clip-path="url(#clipPath56)" fill="none" text-rendering="optimizeLegibility" x1="346" x2="330" y1="554" y2="560"/>
            <line clip-path="url(#clipPath56)" fill="none" text-rendering="optimizeLegibility" x1="330" x2="346" y1="560" y2="566"/>
            <line clip-path="url(#clipPath38)" fill="none" text-rendering="optimizeLegibility" x1="810" x2="950" y1="500" y2="500"/>
            <text x="767" y="484" clip-path="url(#clipPath57)" text-rendering="optimizeLegibility" stroke="none" xml:space="preserve">  defineObjectsPosition(list: EEList, canvasX: int, canvasY: int)</text>
            <polygon text-rendering="optimizeLegibility" clip-path="url(#clipPath58)" points=" 950 500 934 506 934 494" stroke="none"/>
            <polygon text-rendering="optimizeLegibility" fill="none" clip-path="url(#clipPath58)" points=" 950 500 934 506 934 494"/>
            <line clip-path="url(#clipPath38)" fill="none" text-rendering="optimizeLegibility" x1="731" x2="788" y1="475" y2="500" stroke-dasharray="6.6,3.3"/>
            <line clip-path="url(#clipPath38)" fill="none" text-rendering="optimizeLegibility" x1="950" x2="810" y1="560" y2="560" stroke-dasharray="6.6,3.3"/>
            <text x="831" y="579" clip-path="url(#clipPath59)" text-rendering="optimizeLegibility" stroke-dasharray="6.6,3.3" stroke="none" xml:space="preserve">associatePositions</text>
            <line clip-path="url(#clipPath60)" fill="none" text-rendering="optimizeLegibility" x1="826" x2="810" y1="554" y2="560"/>
            <line clip-path="url(#clipPath60)" fill="none" text-rendering="optimizeLegibility" x1="810" x2="826" y1="560" y2="566"/>
            <line clip-path="url(#clipPath38)" fill="none" text-rendering="optimizeLegibility" x1="970" x2="1017" y1="500" y2="500"/>
            <line clip-path="url(#clipPath38)" fill="none" text-rendering="optimizeLegibility" x1="1017" x2="1017" y1="500" y2="560"/>
            <line clip-path="url(#clipPath38)" fill="none" text-rendering="optimizeLegibility" x1="1017" x2="970" y1="560" y2="560"/>
            <text x="1021" y="536" clip-path="url(#clipPath61)" text-rendering="optimizeLegibility" stroke="none" xml:space="preserve">  controlSettings()</text>
            <polygon text-rendering="optimizeLegibility" clip-path="url(#clipPath62)" points=" 970 560 986 554 986 566" stroke="none"/>
            <polygon text-rendering="optimizeLegibility" fill="none" clip-path="url(#clipPath62)" points=" 970 560 986 554 986 566"/>
        </g>
    </g>
</svg>
