<?xml version="1.0" encoding="UTF-8"?><svg xmlns="http://www.w3.org/2000/svg" xmlns:xlink="http://www.w3.org/1999/xlink" stroke-dasharray="none" shape-rendering="auto" font-family="'Dialog'" width="1147" text-rendering="auto" fill-opacity="1" contentScriptType="text/ecmascript" color-interpolation="auto" color-rendering="auto" preserveAspectRatio="xMidYMid meet" font-size="12" viewBox="0 0 1147 1035" fill="black" stroke="black" image-rendering="auto" stroke-miterlimit="10" zoomAndPan="magnify" version="1.0" stroke-linecap="square" stroke-linejoin="miter" contentStyleType="text/css" font-style="normal" height="1035" stroke-width="1" stroke-dashoffset="0" font-weight="normal" stroke-opacity="1">
    <!--Generated by the Batik Graphics2D SVG Generator-->
    <defs id="genericDefs"/>
    <g>
        <defs id="defs1">
            <linearGradient x1="110" x2="110" y1="60" gradientUnits="userSpaceOnUse" y2="140" xlink:type="simple" xlink:actuate="onLoad" id="linearGradient1" xlink:show="other" spreadMethod="pad">
                <stop stop-opacity="1" stop-color="white" offset="0%"/>
                <stop stop-opacity="1" stop-color="rgb(195,209,213)" offset="100%"/>
            </linearGradient>
            <linearGradient x1="110" x2="110" y1="640" gradientUnits="userSpaceOnUse" y2="700" xlink:type="simple" xlink:actuate="onLoad" id="linearGradient2" xlink:show="other" spreadMethod="pad">
                <stop stop-opacity="1" stop-color="white" offset="0%"/>
                <stop stop-opacity="1" stop-color="rgb(195,209,213)" offset="100%"/>
            </linearGradient>
            <linearGradient x1="70" x2="70" y1="10" gradientUnits="userSpaceOnUse" y2="1025" xlink:type="simple" xlink:actuate="onLoad" id="linearGradient3" xlink:show="other" spreadMethod="pad">
                <stop stop-opacity="1" stop-color="white" offset="0%"/>
                <stop stop-opacity="1" stop-color="rgb(195,209,213)" offset="100%"/>
            </linearGradient>
            <linearGradient x1="110" x2="110" y1="60" gradientUnits="userSpaceOnUse" y2="140" xlink:type="simple" xlink:actuate="onLoad" id="linearGradient4" xlink:show="other" spreadMethod="pad">
                <stop stop-opacity="1" stop-color="white" offset="0%"/>
                <stop stop-opacity="1" stop-color="rgb(195,209,213)" offset="100%"/>
            </linearGradient>
            <linearGradient x1="110" x2="110" y1="640" gradientUnits="userSpaceOnUse" y2="700" xlink:type="simple" xlink:actuate="onLoad" id="linearGradient5" xlink:show="other" spreadMethod="pad">
                <stop stop-opacity="1" stop-color="white" offset="0%"/>
                <stop stop-opacity="1" stop-color="rgb(195,209,213)" offset="100%"/>
            </linearGradient>
            <linearGradient x1="310" x2="310" y1="120" gradientUnits="userSpaceOnUse" y2="220" xlink:type="simple" xlink:actuate="onLoad" id="linearGradient6" xlink:show="other" spreadMethod="pad">
                <stop stop-opacity="1" stop-color="white" offset="0%"/>
                <stop stop-opacity="1" stop-color="rgb(195,209,213)" offset="100%"/>
            </linearGradient>
            <linearGradient x1="310" x2="310" y1="520" gradientUnits="userSpaceOnUse" y2="621" xlink:type="simple" xlink:actuate="onLoad" id="linearGradient7" xlink:show="other" spreadMethod="pad">
                <stop stop-opacity="1" stop-color="white" offset="0%"/>
                <stop stop-opacity="1" stop-color="rgb(195,209,213)" offset="100%"/>
            </linearGradient>
            <linearGradient x1="310" x2="310" y1="240" gradientUnits="userSpaceOnUse" y2="340" xlink:type="simple" xlink:actuate="onLoad" id="linearGradient8" xlink:show="other" spreadMethod="pad">
                <stop stop-opacity="1" stop-color="white" offset="0%"/>
                <stop stop-opacity="1" stop-color="rgb(195,209,213)" offset="100%"/>
            </linearGradient>
            <linearGradient x1="310" x2="310" y1="380" gradientUnits="userSpaceOnUse" y2="480" xlink:type="simple" xlink:actuate="onLoad" id="linearGradient9" xlink:show="other" spreadMethod="pad">
                <stop stop-opacity="1" stop-color="white" offset="0%"/>
                <stop stop-opacity="1" stop-color="rgb(195,209,213)" offset="100%"/>
            </linearGradient>
            <linearGradient x1="270" x2="270" y1="10" gradientUnits="userSpaceOnUse" y2="1025" xlink:type="simple" xlink:actuate="onLoad" id="linearGradient10" xlink:show="other" spreadMethod="pad">
                <stop stop-opacity="1" stop-color="white" offset="0%"/>
                <stop stop-opacity="1" stop-color="rgb(195,209,213)" offset="100%"/>
            </linearGradient>
            <linearGradient x1="310" x2="310" y1="120" gradientUnits="userSpaceOnUse" y2="220" xlink:type="simple" xlink:actuate="onLoad" id="linearGradient11" xlink:show="other" spreadMethod="pad">
                <stop stop-opacity="1" stop-color="white" offset="0%"/>
                <stop stop-opacity="1" stop-color="rgb(195,209,213)" offset="100%"/>
            </linearGradient>
            <linearGradient x1="310" x2="310" y1="520" gradientUnits="userSpaceOnUse" y2="621" xlink:type="simple" xlink:actuate="onLoad" id="linearGradient12" xlink:show="other" spreadMethod="pad">
                <stop stop-opacity="1" stop-color="white" offset="0%"/>
                <stop stop-opacity="1" stop-color="rgb(195,209,213)" offset="100%"/>
            </linearGradient>
            <linearGradient x1="310" x2="310" y1="240" gradientUnits="userSpaceOnUse" y2="340" xlink:type="simple" xlink:actuate="onLoad" id="linearGradient13" xlink:show="other" spreadMethod="pad">
                <stop stop-opacity="1" stop-color="white" offset="0%"/>
                <stop stop-opacity="1" stop-color="rgb(195,209,213)" offset="100%"/>
            </linearGradient>
            <linearGradient x1="310" x2="310" y1="380" gradientUnits="userSpaceOnUse" y2="480" xlink:type="simple" xlink:actuate="onLoad" id="linearGradient14" xlink:show="other" spreadMethod="pad">
                <stop stop-opacity="1" stop-color="white" offset="0%"/>
                <stop stop-opacity="1" stop-color="rgb(195,209,213)" offset="100%"/>
            </linearGradient>
            <linearGradient x1="570" x2="570" y1="260" gradientUnits="userSpaceOnUse" y2="341" xlink:type="simple" xlink:actuate="onLoad" id="linearGradient15" xlink:show="other" spreadMethod="pad">
                <stop stop-opacity="1" stop-color="white" offset="0%"/>
                <stop stop-opacity="1" stop-color="rgb(195,209,213)" offset="100%"/>
            </linearGradient>
            <linearGradient x1="530" x2="530" y1="10" gradientUnits="userSpaceOnUse" y2="1025" xlink:type="simple" xlink:actuate="onLoad" id="linearGradient16" xlink:show="other" spreadMethod="pad">
                <stop stop-opacity="1" stop-color="white" offset="0%"/>
                <stop stop-opacity="1" stop-color="rgb(195,209,213)" offset="100%"/>
            </linearGradient>
            <linearGradient x1="570" x2="570" y1="260" gradientUnits="userSpaceOnUse" y2="341" xlink:type="simple" xlink:actuate="onLoad" id="linearGradient17" xlink:show="other" spreadMethod="pad">
                <stop stop-opacity="1" stop-color="white" offset="0%"/>
                <stop stop-opacity="1" stop-color="rgb(195,209,213)" offset="100%"/>
            </linearGradient>
            <linearGradient x1="790" x2="790" y1="380" gradientUnits="userSpaceOnUse" y2="480" xlink:type="simple" xlink:actuate="onLoad" id="linearGradient18" xlink:show="other" spreadMethod="pad">
                <stop stop-opacity="1" stop-color="white" offset="0%"/>
                <stop stop-opacity="1" stop-color="rgb(195,209,213)" offset="100%"/>
            </linearGradient>
            <linearGradient x1="750" x2="750" y1="10" gradientUnits="userSpaceOnUse" y2="1025" xlink:type="simple" xlink:actuate="onLoad" id="linearGradient19" xlink:show="other" spreadMethod="pad">
                <stop stop-opacity="1" stop-color="white" offset="0%"/>
                <stop stop-opacity="1" stop-color="rgb(195,209,213)" offset="100%"/>
            </linearGradient>
            <linearGradient x1="790" x2="790" y1="380" gradientUnits="userSpaceOnUse" y2="480" xlink:type="simple" xlink:actuate="onLoad" id="linearGradient20" xlink:show="other" spreadMethod="pad">
                <stop stop-opacity="1" stop-color="white" offset="0%"/>
                <stop stop-opacity="1" stop-color="rgb(195,209,213)" offset="100%"/>
            </linearGradient>
            <linearGradient x1="10" x2="10" y1="80" gradientUnits="userSpaceOnUse" y2="167" xlink:type="simple" xlink:actuate="onLoad" id="linearGradient21" xlink:show="other" spreadMethod="pad">
                <stop stop-opacity="1" stop-color="rgb(255,255,204)" offset="0%"/>
                <stop stop-opacity="1" stop-color="white" offset="100%"/>
            </linearGradient>
            <linearGradient x1="170" x2="170" y1="160" gradientUnits="userSpaceOnUse" y2="247" xlink:type="simple" xlink:actuate="onLoad" id="linearGradient22" xlink:show="other" spreadMethod="pad">
                <stop stop-opacity="1" stop-color="rgb(255,255,204)" offset="0%"/>
                <stop stop-opacity="1" stop-color="white" offset="100%"/>
            </linearGradient>
            <linearGradient x1="590" x2="590" y1="40" gradientUnits="userSpaceOnUse" y2="127" xlink:type="simple" xlink:actuate="onLoad" id="linearGradient23" xlink:show="other" spreadMethod="pad">
                <stop stop-opacity="1" stop-color="rgb(255,255,204)" offset="0%"/>
                <stop stop-opacity="1" stop-color="white" offset="100%"/>
            </linearGradient>
            <linearGradient x1="650" x2="650" y1="300" gradientUnits="userSpaceOnUse" y2="387" xlink:type="simple" xlink:actuate="onLoad" id="linearGradient24" xlink:show="other" spreadMethod="pad">
                <stop stop-opacity="1" stop-color="rgb(255,255,204)" offset="0%"/>
                <stop stop-opacity="1" stop-color="white" offset="100%"/>
            </linearGradient>
            <linearGradient x1="950" x2="950" y1="380" gradientUnits="userSpaceOnUse" y2="480" xlink:type="simple" xlink:actuate="onLoad" id="linearGradient25" xlink:show="other" spreadMethod="pad">
                <stop stop-opacity="1" stop-color="white" offset="0%"/>
                <stop stop-opacity="1" stop-color="rgb(195,209,213)" offset="100%"/>
            </linearGradient>
            <linearGradient x1="910" x2="910" y1="10" gradientUnits="userSpaceOnUse" y2="710" xlink:type="simple" xlink:actuate="onLoad" id="linearGradient26" xlink:show="other" spreadMethod="pad">
                <stop stop-opacity="1" stop-color="white" offset="0%"/>
                <stop stop-opacity="1" stop-color="rgb(195,209,213)" offset="100%"/>
            </linearGradient>
            <linearGradient x1="950" x2="950" y1="380" gradientUnits="userSpaceOnUse" y2="480" xlink:type="simple" xlink:actuate="onLoad" id="linearGradient27" xlink:show="other" spreadMethod="pad">
                <stop stop-opacity="1" stop-color="white" offset="0%"/>
                <stop stop-opacity="1" stop-color="rgb(195,209,213)" offset="100%"/>
            </linearGradient>
            <clipPath clipPathUnits="userSpaceOnUse" id="clipPath1">
                <path d="M110 60 L110 139 L129 139 L129 60 Z"/>
            </clipPath>
            <clipPath clipPathUnits="userSpaceOnUse" id="clipPath2">
                <path d="M109 59 L131 59 L131 141 L109 141 L109 59 Z"/>
            </clipPath>
            <clipPath clipPathUnits="userSpaceOnUse" id="clipPath3">
                <path d="M110 640 L110 699 L129 699 L129 640 Z"/>
            </clipPath>
            <clipPath clipPathUnits="userSpaceOnUse" id="clipPath4">
                <path d="M109 639 L131 639 L131 701 L109 701 L109 639 Z"/>
            </clipPath>
            <clipPath clipPathUnits="userSpaceOnUse" id="clipPath5">
                <path d="M69 9 L171 9 L171 1026 L69 1026 L69 9 Z"/>
            </clipPath>
            <clipPath clipPathUnits="userSpaceOnUse" id="clipPath6">
                <path d="M70 10 L70 1024 L169 1024 L169 10 Z"/>
            </clipPath>
            <clipPath clipPathUnits="userSpaceOnUse" id="clipPath7">
                <path d="M94 12 L148 12 L148 29 L94 29 L94 12 Z"/>
            </clipPath>
            <clipPath clipPathUnits="userSpaceOnUse" id="clipPath8">
                <path d="M310 120 L310 219 L329 219 L329 120 Z"/>
            </clipPath>
            <clipPath clipPathUnits="userSpaceOnUse" id="clipPath9">
                <path d="M309 119 L331 119 L331 221 L309 221 L309 119 Z"/>
            </clipPath>
            <clipPath clipPathUnits="userSpaceOnUse" id="clipPath10">
                <path d="M310 520 L310 620 L329 620 L329 520 Z"/>
            </clipPath>
            <clipPath clipPathUnits="userSpaceOnUse" id="clipPath11">
                <path d="M309 519 L331 519 L331 622 L309 622 L309 519 Z"/>
            </clipPath>
            <clipPath clipPathUnits="userSpaceOnUse" id="clipPath12">
                <path d="M310 240 L310 339 L329 339 L329 240 Z"/>
            </clipPath>
            <clipPath clipPathUnits="userSpaceOnUse" id="clipPath13">
                <path d="M309 239 L331 239 L331 341 L309 341 L309 239 Z"/>
            </clipPath>
            <clipPath clipPathUnits="userSpaceOnUse" id="clipPath14">
                <path d="M310 380 L310 479 L329 479 L329 380 Z"/>
            </clipPath>
            <clipPath clipPathUnits="userSpaceOnUse" id="clipPath15">
                <path d="M309 379 L331 379 L331 481 L309 481 L309 379 Z"/>
            </clipPath>
            <clipPath clipPathUnits="userSpaceOnUse" id="clipPath16">
                <path d="M269 9 L371 9 L371 1026 L269 1026 L269 9 Z"/>
            </clipPath>
            <clipPath clipPathUnits="userSpaceOnUse" id="clipPath17">
                <path d="M270 10 L270 1024 L369 1024 L369 10 Z"/>
            </clipPath>
            <clipPath clipPathUnits="userSpaceOnUse" id="clipPath18">
                <path d="M270 12 L371 12 L371 29 L270 29 L270 12 Z"/>
            </clipPath>
            <clipPath clipPathUnits="userSpaceOnUse" id="clipPath19">
                <path d="M570 260 L570 340 L589 340 L589 260 Z"/>
            </clipPath>
            <clipPath clipPathUnits="userSpaceOnUse" id="clipPath20">
                <path d="M569 259 L591 259 L591 342 L569 342 L569 259 Z"/>
            </clipPath>
            <clipPath clipPathUnits="userSpaceOnUse" id="clipPath21">
                <path d="M529 9 L631 9 L631 1026 L529 1026 L529 9 Z"/>
            </clipPath>
            <clipPath clipPathUnits="userSpaceOnUse" id="clipPath22">
                <path d="M530 10 L530 1024 L629 1024 L629 10 Z"/>
            </clipPath>
            <clipPath clipPathUnits="userSpaceOnUse" id="clipPath23">
                <path d="M555 12 L606 12 L606 29 L555 29 L555 12 Z"/>
            </clipPath>
            <clipPath clipPathUnits="userSpaceOnUse" id="clipPath24">
                <path d="M790 380 L790 479 L809 479 L809 380 Z"/>
            </clipPath>
            <clipPath clipPathUnits="userSpaceOnUse" id="clipPath25">
                <path d="M789 379 L811 379 L811 481 L789 481 L789 379 Z"/>
            </clipPath>
            <clipPath clipPathUnits="userSpaceOnUse" id="clipPath26">
                <path d="M749 9 L851 9 L851 1026 L749 1026 L749 9 Z"/>
            </clipPath>
            <clipPath clipPathUnits="userSpaceOnUse" id="clipPath27">
                <path d="M750 10 L750 1024 L849 1024 L849 10 Z"/>
            </clipPath>
            <clipPath clipPathUnits="userSpaceOnUse" id="clipPath28">
                <path d="M774 12 L828 12 L828 29 L774 29 L774 12 Z"/>
            </clipPath>
            <clipPath clipPathUnits="userSpaceOnUse" id="clipPath29">
                <path d="M10 80 L10 166 L92 166 L92 92 L80 80 Z"/>
            </clipPath>
            <clipPath clipPathUnits="userSpaceOnUse" id="clipPath30">
                <path d="M15 85 L79 85 L79 162 L15 162 L15 85 Z"/>
            </clipPath>
            <clipPath clipPathUnits="userSpaceOnUse" id="clipPath31">
                <path d="M9 79 L94 79 L94 168 L9 168 L9 79 Z"/>
            </clipPath>
            <clipPath clipPathUnits="userSpaceOnUse" id="clipPath32">
                <path d="M170 160 L170 246 L250 246 L250 172 L238 160 Z"/>
            </clipPath>
            <clipPath clipPathUnits="userSpaceOnUse" id="clipPath33">
                <path d="M175 165 L236 165 L236 242 L175 242 L175 165 Z"/>
            </clipPath>
            <clipPath clipPathUnits="userSpaceOnUse" id="clipPath34">
                <path d="M169 159 L252 159 L252 248 L169 248 L169 159 Z"/>
            </clipPath>
            <clipPath clipPathUnits="userSpaceOnUse" id="clipPath35">
                <path d="M590 40 L590 126 L690 126 L690 52 L678 40 Z"/>
            </clipPath>
            <clipPath clipPathUnits="userSpaceOnUse" id="clipPath36">
                <path d="M595 45 L671 45 L671 122 L595 122 L595 45 Z"/>
            </clipPath>
            <clipPath clipPathUnits="userSpaceOnUse" id="clipPath37">
                <path d="M589 39 L692 39 L692 128 L589 128 L589 39 Z"/>
            </clipPath>
            <clipPath clipPathUnits="userSpaceOnUse" id="clipPath38">
                <path d="M650 300 L650 386 L750 386 L750 312 L738 300 Z"/>
            </clipPath>
            <clipPath clipPathUnits="userSpaceOnUse" id="clipPath39">
                <path d="M655 305 L737 305 L737 382 L655 382 L655 305 Z"/>
            </clipPath>
            <clipPath clipPathUnits="userSpaceOnUse" id="clipPath40">
                <path d="M649 299 L752 299 L752 388 L649 388 L649 299 Z"/>
            </clipPath>
            <clipPath clipPathUnits="userSpaceOnUse" id="clipPath41">
                <path d="M950 380 L950 479 L969 479 L969 380 Z"/>
            </clipPath>
            <clipPath clipPathUnits="userSpaceOnUse" id="clipPath42">
                <path d="M949 379 L971 379 L971 481 L949 481 L949 379 Z"/>
            </clipPath>
            <clipPath clipPathUnits="userSpaceOnUse" id="clipPath43">
                <path d="M909 9 L1011 9 L1011 711 L909 711 L909 9 Z"/>
            </clipPath>
            <clipPath clipPathUnits="userSpaceOnUse" id="clipPath44">
                <path d="M910 10 L910 709 L1009 709 L1009 10 Z"/>
            </clipPath>
            <clipPath clipPathUnits="userSpaceOnUse" id="clipPath45">
                <path d="M918 12 L1004 12 L1004 29 L918 29 L918 12 Z"/>
            </clipPath>
            <clipPath clipPathUnits="userSpaceOnUse" id="clipPath46">
                <path d="M-1 -1 L1148 -1 L1148 1036 L-1 1036 L-1 -1 Z"/>
            </clipPath>
            <clipPath clipPathUnits="userSpaceOnUse" id="clipPath47">
                <path d="M189 35 L253 35 L253 52 L189 52 L189 35 Z"/>
            </clipPath>
            <clipPath clipPathUnits="userSpaceOnUse" id="clipPath48">
                <path d="M303 49 L322 49 L322 64 L303 64 L303 49 Z"/>
            </clipPath>
            <clipPath clipPathUnits="userSpaceOnUse" id="clipPath49">
                <path d="M162 95 L291 95 L291 112 L162 112 L162 95 Z"/>
            </clipPath>
            <clipPath clipPathUnits="userSpaceOnUse" id="clipPath50">
                <path d="M303 109 L322 109 L322 124 L303 124 L303 109 Z"/>
            </clipPath>
            <clipPath clipPathUnits="userSpaceOnUse" id="clipPath51">
                <path d="M184 641 L254 641 L254 658 L184 658 L184 641 Z"/>
            </clipPath>
            <clipPath clipPathUnits="userSpaceOnUse" id="clipPath52">
                <path d="M119 629 L138 629 L138 644 L119 644 L119 629 Z"/>
            </clipPath>
            <clipPath clipPathUnits="userSpaceOnUse" id="clipPath53">
                <path d="M380 148 L516 148 L516 165 L380 165 L380 148 Z"/>
            </clipPath>
            <clipPath clipPathUnits="userSpaceOnUse" id="clipPath54">
                <path d="M309 189 L328 189 L328 204 L309 204 L309 189 Z"/>
            </clipPath>
            <clipPath clipPathUnits="userSpaceOnUse" id="clipPath55">
                <path d="M424 235 L488 235 L488 252 L424 252 L424 235 Z"/>
            </clipPath>
            <clipPath clipPathUnits="userSpaceOnUse" id="clipPath56">
                <path d="M563 249 L582 249 L582 264 L563 264 L563 249 Z"/>
            </clipPath>
            <clipPath clipPathUnits="userSpaceOnUse" id="clipPath57">
                <path d="M493 375 L629 375 L629 392 L493 392 L493 375 Z"/>
            </clipPath>
            <clipPath clipPathUnits="userSpaceOnUse" id="clipPath58">
                <path d="M773 389 L792 389 L792 404 L773 404 L773 389 Z"/>
            </clipPath>
            <clipPath clipPathUnits="userSpaceOnUse" id="clipPath59">
                <path d="M380 548 L466 548 L466 565 L380 565 L380 548 Z"/>
            </clipPath>
            <clipPath clipPathUnits="userSpaceOnUse" id="clipPath60">
                <path d="M309 589 L328 589 L328 604 L309 604 L309 589 Z"/>
            </clipPath>
            <clipPath clipPathUnits="userSpaceOnUse" id="clipPath61">
                <path d="M416 321 L482 321 L482 338 L416 338 L416 321 Z"/>
            </clipPath>
            <clipPath clipPathUnits="userSpaceOnUse" id="clipPath62">
                <path d="M329 309 L348 309 L348 324 L329 324 L329 309 Z"/>
            </clipPath>
            <clipPath clipPathUnits="userSpaceOnUse" id="clipPath63">
                <path d="M440 461 L678 461 L678 478 L440 478 L440 461 Z"/>
            </clipPath>
            <clipPath clipPathUnits="userSpaceOnUse" id="clipPath64">
                <path d="M329 449 L348 449 L348 464 L329 464 L329 449 Z"/>
            </clipPath>
            <clipPath clipPathUnits="userSpaceOnUse" id="clipPath65">
                <path d="M815 375 L947 375 L947 392 L815 392 L815 375 Z"/>
            </clipPath>
            <clipPath clipPathUnits="userSpaceOnUse" id="clipPath66">
                <path d="M933 389 L952 389 L952 404 L933 404 L933 389 Z"/>
            </clipPath>
            <clipPath clipPathUnits="userSpaceOnUse" id="clipPath67">
                <path d="M758 461 L1001 461 L1001 478 L758 478 L758 461 Z"/>
            </clipPath>
            <clipPath clipPathUnits="userSpaceOnUse" id="clipPath68">
                <path d="M809 449 L828 449 L828 464 L809 464 L809 449 Z"/>
            </clipPath>
            <clipPath clipPathUnits="userSpaceOnUse" id="clipPath69">
                <path d="M1015 430 L1125 430 L1125 447 L1015 447 L1015 430 Z"/>
            </clipPath>
            <clipPath clipPathUnits="userSpaceOnUse" id="clipPath70">
                <path d="M949 473 L968 473 L968 488 L949 488 L949 473 Z"/>
            </clipPath>
        </defs>
        <g fill="url(#linearGradient1)" font-family="'Segoe UI'" stroke-linejoin="round" stroke="url(#linearGradient1)" stroke-width="0" stroke-miterlimit="0">
            <rect x="110" y="60" clip-path="url(#clipPath1)" width="20" height="80" stroke="none"/>
        </g>
        <g stroke-width="1.1" font-family="'Segoe UI'" stroke-linecap="butt">
            <rect x="110" y="60" clip-path="url(#clipPath2)" fill="none" width="19" rx="0" ry="0" height="79"/>
            <rect x="110" y="640" clip-path="url(#clipPath3)" fill="url(#linearGradient2)" width="20" height="60" stroke="none"/>
            <rect x="110" y="640" clip-path="url(#clipPath4)" fill="none" width="19" rx="0" ry="0" height="59"/>
            <rect x="70" y="10" clip-path="url(#clipPath5)" fill="none" width="99" height="18"/>
            <line clip-path="url(#clipPath5)" fill="none" x1="120" x2="120" y1="28" y2="1024" stroke-dasharray="5,5"/>
            <rect x="70" y="10" clip-path="url(#clipPath6)" fill="url(#linearGradient3)" width="100" stroke-dasharray="5,5" opacity="0" height="1015" stroke="none"/>
            <text x="95" y="26" clip-path="url(#clipPath7)" stroke-dasharray="5,5" stroke="none" xml:space="preserve">Final User</text>
            <rect x="110" y="60" clip-path="url(#clipPath1)" fill="url(#linearGradient4)" width="20" stroke-dasharray="5,5" height="80" stroke="none"/>
            <rect x="110" y="60" clip-path="url(#clipPath2)" fill="none" width="19" rx="0" ry="0" height="79"/>
            <rect x="110" y="640" clip-path="url(#clipPath3)" fill="url(#linearGradient5)" width="20" height="60" stroke="none"/>
            <rect x="110" y="640" clip-path="url(#clipPath4)" fill="none" width="19" rx="0" ry="0" height="59"/>
            <rect x="310" y="120" clip-path="url(#clipPath8)" fill="url(#linearGradient6)" width="20" height="100" stroke="none"/>
            <rect x="310" y="120" clip-path="url(#clipPath9)" fill="none" width="19" rx="0" ry="0" height="99"/>
            <rect x="310" y="520" clip-path="url(#clipPath10)" fill="url(#linearGradient7)" width="20" height="101" stroke="none"/>
            <rect x="310" y="520" clip-path="url(#clipPath11)" fill="none" width="19" rx="0" ry="0" height="100"/>
            <rect x="310" y="240" clip-path="url(#clipPath12)" fill="url(#linearGradient8)" width="20" height="100" stroke="none"/>
            <rect x="310" y="240" clip-path="url(#clipPath13)" fill="none" width="19" rx="0" ry="0" height="99"/>
            <rect x="310" y="380" clip-path="url(#clipPath14)" fill="url(#linearGradient9)" width="20" height="100" stroke="none"/>
            <rect x="310" y="380" clip-path="url(#clipPath15)" fill="none" width="19" rx="0" ry="0" height="99"/>
            <rect x="270" y="10" clip-path="url(#clipPath16)" fill="none" width="99" height="18"/>
            <line clip-path="url(#clipPath16)" fill="none" x1="320" x2="320" y1="28" y2="1024" stroke-dasharray="5,5"/>
            <rect x="270" y="10" clip-path="url(#clipPath17)" fill="url(#linearGradient10)" width="100" stroke-dasharray="5,5" opacity="0" height="1015" stroke="none"/>
            <text x="271" y="26" clip-path="url(#clipPath18)" stroke-dasharray="5,5" stroke="none" xml:space="preserve">GUI SVG Generator</text>
            <rect x="310" y="120" clip-path="url(#clipPath8)" fill="url(#linearGradient11)" width="20" stroke-dasharray="5,5" height="100" stroke="none"/>
            <rect x="310" y="120" clip-path="url(#clipPath9)" fill="none" width="19" rx="0" ry="0" height="99"/>
            <rect x="310" y="520" clip-path="url(#clipPath10)" fill="url(#linearGradient12)" width="20" height="101" stroke="none"/>
            <rect x="310" y="520" clip-path="url(#clipPath11)" fill="none" width="19" rx="0" ry="0" height="100"/>
            <rect x="310" y="240" clip-path="url(#clipPath12)" fill="url(#linearGradient13)" width="20" height="100" stroke="none"/>
            <rect x="310" y="240" clip-path="url(#clipPath13)" fill="none" width="19" rx="0" ry="0" height="99"/>
            <rect x="310" y="380" clip-path="url(#clipPath14)" fill="url(#linearGradient14)" width="20" height="100" stroke="none"/>
            <rect x="310" y="380" clip-path="url(#clipPath15)" fill="none" width="19" rx="0" ry="0" height="99"/>
            <rect x="570" y="260" clip-path="url(#clipPath19)" fill="url(#linearGradient15)" width="20" height="81" stroke="none"/>
            <rect x="570" y="260" clip-path="url(#clipPath20)" fill="none" width="19" rx="0" ry="0" height="80"/>
            <rect x="530" y="10" clip-path="url(#clipPath21)" fill="none" width="99" height="18"/>
            <line clip-path="url(#clipPath21)" fill="none" x1="580" x2="580" y1="28" y2="1024" stroke-dasharray="5,5"/>
            <rect x="530" y="10" clip-path="url(#clipPath22)" fill="url(#linearGradient16)" width="100" stroke-dasharray="5,5" opacity="0" height="1015" stroke="none"/>
            <text x="556" y="26" clip-path="url(#clipPath23)" stroke-dasharray="5,5" stroke="none" xml:space="preserve">Database</text>
            <rect x="570" y="260" clip-path="url(#clipPath19)" fill="url(#linearGradient17)" width="20" stroke-dasharray="5,5" height="81" stroke="none"/>
            <rect x="570" y="260" clip-path="url(#clipPath20)" fill="none" width="19" rx="0" ry="0" height="80"/>
            <rect x="790" y="380" clip-path="url(#clipPath24)" fill="url(#linearGradient18)" width="20" height="100" stroke="none"/>
            <rect x="790" y="380" clip-path="url(#clipPath25)" fill="none" width="19" rx="0" ry="0" height="99"/>
            <rect x="750" y="10" clip-path="url(#clipPath26)" fill="none" width="99" height="18"/>
            <line clip-path="url(#clipPath26)" fill="none" x1="800" x2="800" y1="28" y2="1024" stroke-dasharray="5,5"/>
            <rect x="750" y="10" clip-path="url(#clipPath27)" fill="url(#linearGradient19)" width="100" stroke-dasharray="5,5" opacity="0" height="1015" stroke="none"/>
            <text x="775" y="26" clip-path="url(#clipPath28)" stroke-dasharray="5,5" stroke="none" xml:space="preserve">Draw SVG</text>
            <rect x="790" y="380" clip-path="url(#clipPath24)" fill="url(#linearGradient20)" width="20" stroke-dasharray="5,5" height="100" stroke="none"/>
            <rect x="790" y="380" clip-path="url(#clipPath25)" fill="none" width="19" rx="0" ry="0" height="99"/>
            <rect x="10" y="80" clip-path="url(#clipPath29)" fill="url(#linearGradient21)" width="83" height="87" stroke="none"/>
            <text xml:space="preserve" x="16" y="99" clip-path="url(#clipPath30)" stroke="none">The user</text>
            <text xml:space="preserve" x="16" y="114" clip-path="url(#clipPath30)" stroke="none">chooses</text>
            <text xml:space="preserve" x="16" y="129" clip-path="url(#clipPath30)" stroke="none">preferences</text>
            <text xml:space="preserve" x="16" y="144" clip-path="url(#clipPath30)" stroke="none">and paper</text>
            <text xml:space="preserve" x="16" y="159" clip-path="url(#clipPath30)" stroke="none">format</text>
            <line clip-path="url(#clipPath31)" fill="none" x1="10" x2="80" y1="80" y2="80"/>
            <line clip-path="url(#clipPath31)" fill="none" x1="80" x2="92" y1="80" y2="92"/>
            <line clip-path="url(#clipPath31)" fill="none" x1="92" x2="92" y1="92" y2="166"/>
            <line clip-path="url(#clipPath31)" fill="none" x1="92" x2="10" y1="166" y2="166"/>
            <line clip-path="url(#clipPath31)" fill="none" x1="10" x2="10" y1="166" y2="80"/>
            <line clip-path="url(#clipPath31)" fill="none" x1="10" x2="10" y1="80" y2="80"/>
            <line clip-path="url(#clipPath31)" fill="none" x1="80" x2="80" y1="80" y2="92"/>
            <line clip-path="url(#clipPath31)" fill="none" x1="80" x2="93" y1="92" y2="92"/>
            <rect x="170" y="160" clip-path="url(#clipPath32)" fill="url(#linearGradient22)" width="81" height="87" stroke="none"/>
            <text xml:space="preserve" x="176" y="179" clip-path="url(#clipPath33)" stroke="none">All settings</text>
            <text xml:space="preserve" x="176" y="194" clip-path="url(#clipPath33)" stroke="none">don't</text>
            <text xml:space="preserve" x="176" y="209" clip-path="url(#clipPath33)" stroke="none">make the</text>
            <text xml:space="preserve" x="176" y="224" clip-path="url(#clipPath33)" stroke="none">SVG</text>
            <text xml:space="preserve" x="176" y="239" clip-path="url(#clipPath33)" stroke="none">responsive</text>
            <line clip-path="url(#clipPath34)" fill="none" x1="170" x2="238" y1="160" y2="160"/>
            <line clip-path="url(#clipPath34)" fill="none" x1="238" x2="250" y1="160" y2="172"/>
            <line clip-path="url(#clipPath34)" fill="none" x1="250" x2="250" y1="172" y2="246"/>
            <line clip-path="url(#clipPath34)" fill="none" x1="250" x2="170" y1="246" y2="246"/>
            <line clip-path="url(#clipPath34)" fill="none" x1="170" x2="170" y1="246" y2="160"/>
            <line clip-path="url(#clipPath34)" fill="none" x1="170" x2="170" y1="160" y2="160"/>
            <line clip-path="url(#clipPath34)" fill="none" x1="238" x2="238" y1="160" y2="172"/>
            <line clip-path="url(#clipPath34)" fill="none" x1="238" x2="251" y1="172" y2="172"/>
            <rect x="590" y="40" clip-path="url(#clipPath35)" fill="url(#linearGradient23)" width="101" height="87" stroke="none"/>
            <text xml:space="preserve" x="596" y="59" clip-path="url(#clipPath36)" stroke="none">Use model</text>
            <text xml:space="preserve" x="596" y="74" clip-path="url(#clipPath36)" stroke="none">package</text>
            <text xml:space="preserve" x="596" y="89" clip-path="url(#clipPath36)" stroke="none">beceause ROF</text>
            <text xml:space="preserve" x="596" y="104" clip-path="url(#clipPath36)" stroke="none">is not</text>
            <text xml:space="preserve" x="596" y="119" clip-path="url(#clipPath36)" stroke="none">functionnal</text>
            <line clip-path="url(#clipPath37)" fill="none" x1="590" x2="678" y1="40" y2="40"/>
            <line clip-path="url(#clipPath37)" fill="none" x1="678" x2="690" y1="40" y2="52"/>
            <line clip-path="url(#clipPath37)" fill="none" x1="690" x2="690" y1="52" y2="126"/>
            <line clip-path="url(#clipPath37)" fill="none" x1="690" x2="590" y1="126" y2="126"/>
            <line clip-path="url(#clipPath37)" fill="none" x1="590" x2="590" y1="126" y2="40"/>
            <line clip-path="url(#clipPath37)" fill="none" x1="590" x2="590" y1="40" y2="40"/>
            <line clip-path="url(#clipPath37)" fill="none" x1="678" x2="678" y1="40" y2="52"/>
            <line clip-path="url(#clipPath37)" fill="none" x1="678" x2="691" y1="52" y2="52"/>
            <rect x="650" y="300" clip-path="url(#clipPath38)" fill="url(#linearGradient24)" width="101" height="87" stroke="none"/>
            <text xml:space="preserve" x="656" y="319" clip-path="url(#clipPath39)" stroke="none">Here SVG is an</text>
            <text xml:space="preserve" x="656" y="334" clip-path="url(#clipPath39)" stroke="none">attribute of the</text>
            <text xml:space="preserve" x="656" y="349" clip-path="url(#clipPath39)" stroke="none">GUI SVG</text>
            <text xml:space="preserve" x="656" y="364" clip-path="url(#clipPath39)" stroke="none">Generator</text>
            <text xml:space="preserve" x="656" y="379" clip-path="url(#clipPath39)" stroke="none">class</text>
            <line clip-path="url(#clipPath40)" fill="none" x1="650" x2="738" y1="300" y2="300"/>
            <line clip-path="url(#clipPath40)" fill="none" x1="738" x2="750" y1="300" y2="312"/>
            <line clip-path="url(#clipPath40)" fill="none" x1="750" x2="750" y1="312" y2="386"/>
            <line clip-path="url(#clipPath40)" fill="none" x1="750" x2="650" y1="386" y2="386"/>
            <line clip-path="url(#clipPath40)" fill="none" x1="650" x2="650" y1="386" y2="300"/>
            <line clip-path="url(#clipPath40)" fill="none" x1="650" x2="650" y1="300" y2="300"/>
            <line clip-path="url(#clipPath40)" fill="none" x1="738" x2="738" y1="300" y2="312"/>
            <line clip-path="url(#clipPath40)" fill="none" x1="738" x2="751" y1="312" y2="312"/>
            <rect x="950" y="380" clip-path="url(#clipPath41)" fill="url(#linearGradient25)" width="20" height="100" stroke="none"/>
            <rect x="950" y="380" clip-path="url(#clipPath42)" fill="none" width="19" rx="0" ry="0" height="99"/>
            <rect x="910" y="10" clip-path="url(#clipPath43)" fill="none" width="99" height="18"/>
            <line clip-path="url(#clipPath43)" fill="none" x1="960" x2="960" y1="28" y2="709" stroke-dasharray="5,5"/>
            <rect x="910" y="10" clip-path="url(#clipPath44)" fill="url(#linearGradient26)" width="100" stroke-dasharray="5,5" opacity="0" height="700" stroke="none"/>
            <text x="919" y="26" clip-path="url(#clipPath45)" stroke-dasharray="5,5" stroke="none" xml:space="preserve">Responsive SVG</text>
            <rect x="950" y="380" clip-path="url(#clipPath41)" fill="url(#linearGradient27)" width="20" stroke-dasharray="5,5" height="100" stroke="none"/>
            <rect x="950" y="380" clip-path="url(#clipPath42)" fill="none" width="19" rx="0" ry="0" height="99"/>
            <line clip-path="url(#clipPath46)" fill="none" text-rendering="optimizeLegibility" x1="120" x2="320" y1="56" y2="56"/>
            <text x="190" y="49" clip-path="url(#clipPath47)" text-rendering="optimizeLegibility" stroke="none" xml:space="preserve">Set Settings</text>
            <polygon text-rendering="optimizeLegibility" clip-path="url(#clipPath48)" points=" 320 56 304 62 304 50" stroke="none"/>
            <polygon text-rendering="optimizeLegibility" fill="none" clip-path="url(#clipPath48)" points=" 320 56 304 62 304 50"/>
            <line clip-path="url(#clipPath46)" fill="none" text-rendering="optimizeLegibility" x1="130" x2="320" y1="116" y2="116"/>
            <text x="163" y="109" clip-path="url(#clipPath49)" text-rendering="optimizeLegibility" stroke="none" xml:space="preserve">ButtonPush.addListener</text>
            <line clip-path="url(#clipPath50)" fill="none" text-rendering="optimizeLegibility" x1="304" x2="320" y1="122" y2="116"/>
            <line clip-path="url(#clipPath50)" fill="none" text-rendering="optimizeLegibility" x1="320" x2="304" y1="116" y2="110"/>
            <line clip-path="url(#clipPath46)" fill="none" text-rendering="optimizeLegibility" x1="320" x2="120" y1="636" y2="636" stroke-dasharray="6.6,3.3"/>
            <text x="185" y="655" clip-path="url(#clipPath51)" text-rendering="optimizeLegibility" stroke-dasharray="6.6,3.3" stroke="none" xml:space="preserve">SVG genered</text>
            <line clip-path="url(#clipPath52)" fill="none" text-rendering="optimizeLegibility" x1="136" x2="120" y1="630" y2="636"/>
            <line clip-path="url(#clipPath52)" fill="none" text-rendering="optimizeLegibility" x1="120" x2="136" y1="636" y2="642"/>
            <line clip-path="url(#clipPath46)" fill="none" text-rendering="optimizeLegibility" x1="320" x2="377" y1="116" y2="116"/>
            <line clip-path="url(#clipPath46)" fill="none" text-rendering="optimizeLegibility" x1="377" x2="377" y1="116" y2="196"/>
            <line clip-path="url(#clipPath46)" fill="none" text-rendering="optimizeLegibility" x1="377" x2="310" y1="196" y2="196"/>
            <text x="381" y="162" clip-path="url(#clipPath53)" text-rendering="optimizeLegibility" stroke="none" xml:space="preserve">Settings = news Setting( )</text>
            <line clip-path="url(#clipPath54)" fill="none" text-rendering="optimizeLegibility" x1="326" x2="310" y1="190" y2="196"/>
            <line clip-path="url(#clipPath54)" fill="none" text-rendering="optimizeLegibility" x1="310" x2="326" y1="196" y2="202"/>
            <line clip-path="url(#clipPath46)" fill="none" text-rendering="optimizeLegibility" x1="330" x2="580" y1="256" y2="256"/>
            <text x="425" y="249" clip-path="url(#clipPath55)" text-rendering="optimizeLegibility" stroke="none" xml:space="preserve">ask for data</text>
            <line clip-path="url(#clipPath56)" fill="none" text-rendering="optimizeLegibility" x1="564" x2="580" y1="262" y2="256"/>
            <line clip-path="url(#clipPath56)" fill="none" text-rendering="optimizeLegibility" x1="580" x2="564" y1="256" y2="250"/>
            <line clip-path="url(#clipPath46)" fill="none" text-rendering="optimizeLegibility" x1="330" x2="790" y1="396" y2="396"/>
            <text x="494" y="389" clip-path="url(#clipPath57)" text-rendering="optimizeLegibility" stroke="none" xml:space="preserve">SVG.Paint(datas, settings)</text>
            <line clip-path="url(#clipPath58)" fill="none" text-rendering="optimizeLegibility" x1="774" x2="790" y1="402" y2="396"/>
            <line clip-path="url(#clipPath58)" fill="none" text-rendering="optimizeLegibility" x1="790" x2="774" y1="396" y2="390"/>
            <line clip-path="url(#clipPath46)" fill="none" text-rendering="optimizeLegibility" x1="320" x2="377" y1="516" y2="516"/>
            <line clip-path="url(#clipPath46)" fill="none" text-rendering="optimizeLegibility" x1="377" x2="377" y1="516" y2="596"/>
            <line clip-path="url(#clipPath46)" fill="none" text-rendering="optimizeLegibility" x1="377" x2="310" y1="596" y2="596"/>
            <text x="381" y="562" clip-path="url(#clipPath59)" text-rendering="optimizeLegibility" stroke="none" xml:space="preserve">file = new File( )</text>
            <line clip-path="url(#clipPath60)" fill="none" text-rendering="optimizeLegibility" x1="326" x2="310" y1="590" y2="596"/>
            <line clip-path="url(#clipPath60)" fill="none" text-rendering="optimizeLegibility" x1="310" x2="326" y1="596" y2="602"/>
            <line clip-path="url(#clipPath46)" fill="none" text-rendering="optimizeLegibility" x1="93" x2="205" y1="136" y2="56" stroke-dasharray="6.6,3.3"/>
            <line clip-path="url(#clipPath46)" fill="none" text-rendering="optimizeLegibility" x1="570" x2="330" y1="316" y2="316" stroke-dasharray="6.6,3.3"/>
            <text x="417" y="335" clip-path="url(#clipPath61)" text-rendering="optimizeLegibility" stroke-dasharray="6.6,3.3" stroke="none" xml:space="preserve">return datas</text>
            <line clip-path="url(#clipPath62)" fill="none" text-rendering="optimizeLegibility" x1="346" x2="330" y1="310" y2="316"/>
            <line clip-path="url(#clipPath62)" fill="none" text-rendering="optimizeLegibility" x1="330" x2="346" y1="316" y2="322"/>
            <line clip-path="url(#clipPath46)" fill="none" text-rendering="optimizeLegibility" x1="790" x2="330" y1="456" y2="456" stroke-dasharray="6.6,3.3"/>
            <text x="441" y="475" clip-path="url(#clipPath63)" text-rendering="optimizeLegibility" stroke-dasharray="6.6,3.3" stroke="none" xml:space="preserve">draw admission, formation, Responsable, etc</text>
            <line clip-path="url(#clipPath64)" fill="none" text-rendering="optimizeLegibility" x1="346" x2="330" y1="450" y2="456"/>
            <line clip-path="url(#clipPath64)" fill="none" text-rendering="optimizeLegibility" x1="330" x2="346" y1="456" y2="462"/>
            <line clip-path="url(#clipPath46)" fill="none" text-rendering="optimizeLegibility" x1="210" x2="320" y1="160" y2="116" stroke-dasharray="6.6,3.3"/>
            <line clip-path="url(#clipPath46)" fill="none" text-rendering="optimizeLegibility" x1="810" x2="950" y1="396" y2="396"/>
            <text x="816" y="389" clip-path="url(#clipPath65)" text-rendering="optimizeLegibility" stroke="none" xml:space="preserve">Ask for a responsive SVG</text>
            <line clip-path="url(#clipPath66)" fill="none" text-rendering="optimizeLegibility" x1="934" x2="950" y1="402" y2="396"/>
            <line clip-path="url(#clipPath66)" fill="none" text-rendering="optimizeLegibility" x1="950" x2="934" y1="396" y2="390"/>
            <line clip-path="url(#clipPath46)" fill="none" text-rendering="optimizeLegibility" x1="690" x2="567" y1="387" y2="396" stroke-dasharray="6.6,3.3"/>
            <line clip-path="url(#clipPath46)" fill="none" text-rendering="optimizeLegibility" x1="950" x2="810" y1="456" y2="456" stroke-dasharray="6.6,3.3"/>
            <text x="759" y="475" clip-path="url(#clipPath67)" text-rendering="optimizeLegibility" stroke-dasharray="6.6,3.3" stroke="none" xml:space="preserve">associate positions making the SVG reponsive</text>
            <line clip-path="url(#clipPath68)" fill="none" text-rendering="optimizeLegibility" x1="826" x2="810" y1="450" y2="456"/>
            <line clip-path="url(#clipPath68)" fill="none" text-rendering="optimizeLegibility" x1="810" x2="826" y1="456" y2="462"/>
            <line clip-path="url(#clipPath46)" fill="none" text-rendering="optimizeLegibility" x1="950" x2="1012" y1="396" y2="396"/>
            <line clip-path="url(#clipPath46)" fill="none" text-rendering="optimizeLegibility" x1="1012" x2="1012" y1="396" y2="480"/>
            <line clip-path="url(#clipPath46)" fill="none" text-rendering="optimizeLegibility" x1="1012" x2="950" y1="480" y2="480"/>
            <text x="1016" y="444" clip-path="url(#clipPath69)" text-rendering="optimizeLegibility" stroke="none" xml:space="preserve">Control the settings </text>
            <line clip-path="url(#clipPath70)" fill="none" text-rendering="optimizeLegibility" x1="966" x2="950" y1="474" y2="480"/>
            <line clip-path="url(#clipPath70)" fill="none" text-rendering="optimizeLegibility" x1="950" x2="966" y1="480" y2="486"/>
        </g>
    </g>
</svg>
